<?xml version="1.0" encoding="UTF-8" standalone="no"?>
<svg
   xmlns:dc="http://purl.org/dc/elements/1.1/"
   xmlns:cc="http://creativecommons.org/ns#"
   xmlns:rdf="http://www.w3.org/1999/02/22-rdf-syntax-ns#"
   xmlns:svg="http://www.w3.org/2000/svg"
   xmlns="http://www.w3.org/2000/svg"
   viewBox="0 0 1280 720"
   height="720"
   width="1280"
   xml:space="preserve"
   id="svg2"
   version="1.1"><metadata
     id="metadata8"><rdf:RDF><cc:Work
         rdf:about=""><dc:format>image/svg+xml</dc:format><dc:type
           rdf:resource="http://purl.org/dc/dcmitype/StillImage" /></cc:Work></rdf:RDF></metadata><defs
     id="defs6"><clipPath
       id="clipPath18"
       clipPathUnits="userSpaceOnUse"><path
         style="clip-rule:evenodd"
         id="path16"
         d="M 0,1.2207e-4 H 960 V 540.00012 H 0 Z" /></clipPath><clipPath
       id="clipPath42"
       clipPathUnits="userSpaceOnUse"><path
         style="clip-rule:evenodd"
         id="path40"
         d="M 110.4,0 H 221.88 V 540 H 110.4 Z" /></clipPath><clipPath
       id="clipPath68"
       clipPathUnits="userSpaceOnUse"><path
         style="clip-rule:evenodd"
         id="path66"
         d="M 344.88,25.68 H 456.36 V 540 H 344.88 Z" /></clipPath><clipPath
       id="clipPath94"
       clipPathUnits="userSpaceOnUse"><path
         style="clip-rule:evenodd"
         id="path92"
         d="M 653.04,0 H 764.52 V 523.92 H 653.04 Z" /></clipPath><clipPath
       id="clipPath106"
       clipPathUnits="userSpaceOnUse"><path
         style="clip-rule:evenodd"
         id="path104"
         d="M 1.4305e-5,0 H 960.00001 V 540 H 1.4305e-5 Z" /></clipPath><clipPath
       id="clipPath118"
       clipPathUnits="userSpaceOnUse"><path
         style="clip-rule:evenodd"
         id="path116"
         d="M -3.0518e-5,540 H 960 V 6.1035e-5 H 0" /></clipPath><clipPath
       id="clipPath128"
       clipPathUnits="userSpaceOnUse"><path
         style="clip-rule:evenodd"
         id="path126"
         d="M -6.1035e-5,540 H 960 V 1.2207e-4 L 0,6.1035e-5" /></clipPath></defs><g
     transform="matrix(1.3333333,0,0,-1.3333333,0,720)"
     id="g10"><g
       id="g12"><g
         clip-path="url(#clipPath18)"
         id="g14"><path
           id="path20"
           style="fill:#ffffff;fill-opacity:1;fill-rule:evenodd;stroke:none"
           d="M 0,6.1035e-5 H 960 V 540.00006 H 0 Z" /></g></g><path
       id="path22"
       style="fill:#ffffff;fill-opacity:1;fill-rule:evenodd;stroke:none"
       d="m 110.41,147.71 h 111.4 v 114.52 h -111.4 z" /><path
       id="path24"
       style="fill:#ffffff;fill-opacity:1;fill-rule:evenodd;stroke:none"
       d="m 221.81,147.71 h 111.4 v 114.52 h -111.4 z" /><path
       id="path26"
       style="fill:none;stroke:#000000;stroke-width:0.96377999;stroke-linecap:butt;stroke-linejoin:round;stroke-miterlimit:10;stroke-dasharray:none;stroke-opacity:1"
       d="M 221.81,262.72 V 147.23" /><path
       id="path28"
       style="fill:none;stroke:#000000;stroke-width:0.96377999;stroke-linecap:butt;stroke-linejoin:round;stroke-miterlimit:10;stroke-dasharray:none;stroke-opacity:1"
       d="M 110.41,262.72 V 147.23" /><path
       id="path30"
       style="fill:none;stroke:#000000;stroke-width:0.96377999;stroke-linecap:butt;stroke-linejoin:round;stroke-miterlimit:10;stroke-dasharray:none;stroke-opacity:1"
       d="M 333.21,262.72 V 147.23" /><path
       id="path32"
       style="fill:none;stroke:#000000;stroke-width:0.96377999;stroke-linecap:butt;stroke-linejoin:round;stroke-miterlimit:10;stroke-dasharray:none;stroke-opacity:1"
       d="M 109.93,262.23 H 333.69" /><path
       id="path34"
       style="fill:none;stroke:#000000;stroke-width:0.96377999;stroke-linecap:butt;stroke-linejoin:round;stroke-miterlimit:10;stroke-dasharray:none;stroke-opacity:1"
       d="M 109.93,147.71 H 333.69" /><g
       id="g36"><g
         clip-path="url(#clipPath42)"
         id="g38"><text
           id="text46"
           style="font-variant:normal;font-weight:bold;font-size:87.95999908px;font-family:Arial;-inkscape-font-specification:Arial-BoldMT;writing-mode:lr-tb;fill:#000000;fill-opacity:1;fill-rule:nonzero;stroke:none"
           transform="matrix(1,0,0,-1,141.62,172.99)"><tspan
             id="tspan44"
             y="0"
             x="0">1</tspan></text>
</g></g><path
       id="path48"
       style="fill:#ffffff;fill-opacity:1;fill-rule:evenodd;stroke:none"
       d="m 344.92,337.21 h 111.4 v 114.52 h -111.4 z" /><path
       id="path50"
       style="fill:#ffffff;fill-opacity:1;fill-rule:evenodd;stroke:none"
       d="m 456.32,337.21 h 111.4 v 114.52 h -111.4 z" /><path
       id="path52"
       style="fill:none;stroke:#000000;stroke-width:0.96377999;stroke-linecap:butt;stroke-linejoin:round;stroke-miterlimit:10;stroke-dasharray:none;stroke-opacity:1"
       d="M 456.32,452.21 V 336.73" /><path
       id="path54"
       style="fill:none;stroke:#000000;stroke-width:0.96377999;stroke-linecap:butt;stroke-linejoin:round;stroke-miterlimit:10;stroke-dasharray:none;stroke-opacity:1"
       d="M 344.92,452.21 V 336.73" /><path
       id="path56"
       style="fill:none;stroke:#000000;stroke-width:0.96377999;stroke-linecap:butt;stroke-linejoin:round;stroke-miterlimit:10;stroke-dasharray:none;stroke-opacity:1"
       d="M 567.72,452.21 V 336.73" /><path
       id="path58"
       style="fill:none;stroke:#000000;stroke-width:0.96377999;stroke-linecap:butt;stroke-linejoin:round;stroke-miterlimit:10;stroke-dasharray:none;stroke-opacity:1"
       d="M 344.44,451.73 H 568.2" /><path
       id="path60"
       style="fill:none;stroke:#000000;stroke-width:0.96377999;stroke-linecap:butt;stroke-linejoin:round;stroke-miterlimit:10;stroke-dasharray:none;stroke-opacity:1"
       d="M 344.44,337.21 H 568.2" /><g
       id="g62"><g
         clip-path="url(#clipPath68)"
         id="g64"><text
           id="text72"
           style="font-variant:normal;font-weight:bold;font-size:87.98400116px;font-family:Arial;-inkscape-font-specification:Arial-BoldMT;writing-mode:lr-tb;fill:#000000;fill-opacity:1;fill-rule:nonzero;stroke:none"
           transform="matrix(1,0,0,-1,376.18,362.54)"><tspan
             id="tspan70"
             y="0"
             x="0">2</tspan></text>
</g></g><path
       id="path74"
       style="fill:#ffffff;fill-opacity:1;fill-rule:evenodd;stroke:none"
       d="m 653.05,96.18 h 111.4 V 210.7 h -111.4 z" /><path
       id="path76"
       style="fill:#ffffff;fill-opacity:1;fill-rule:evenodd;stroke:none"
       d="m 764.45,96.18 h 111.4 V 210.7 h -111.4 z" /><path
       id="path78"
       style="fill:none;stroke:#000000;stroke-width:0.96377999;stroke-linecap:butt;stroke-linejoin:round;stroke-miterlimit:10;stroke-dasharray:none;stroke-opacity:1"
       d="M 764.45,211.18 V 95.698" /><path
       id="path80"
       style="fill:none;stroke:#000000;stroke-width:0.96377999;stroke-linecap:butt;stroke-linejoin:round;stroke-miterlimit:10;stroke-dasharray:none;stroke-opacity:1"
       d="M 653.05,211.18 V 95.698" /><path
       id="path82"
       style="fill:none;stroke:#000000;stroke-width:0.96377999;stroke-linecap:butt;stroke-linejoin:round;stroke-miterlimit:10;stroke-dasharray:none;stroke-opacity:1"
       d="M 875.85,211.18 V 95.698" /><path
       id="path84"
       style="fill:none;stroke:#000000;stroke-width:0.96377999;stroke-linecap:butt;stroke-linejoin:round;stroke-miterlimit:10;stroke-dasharray:none;stroke-opacity:1"
       d="M 652.56,210.7 H 876.33" /><path
       id="path86"
       style="fill:none;stroke:#000000;stroke-width:0.96377999;stroke-linecap:butt;stroke-linejoin:round;stroke-miterlimit:10;stroke-dasharray:none;stroke-opacity:1"
       d="M 652.56,96.18 H 876.33" /><g
       id="g88"><g
         clip-path="url(#clipPath94)"
         id="g90"><text
           id="text98"
           style="font-variant:normal;font-weight:bold;font-size:87.98400116px;font-family:Arial;-inkscape-font-specification:Arial-BoldMT;writing-mode:lr-tb;fill:#000000;fill-opacity:1;fill-rule:nonzero;stroke:none"
           transform="matrix(1,0,0,-1,684.34,121.46)"><tspan
             id="tspan96"
             y="0"
             x="0">3</tspan></text>
</g></g><g
       id="g100"><g
         clip-path="url(#clipPath106)"
         id="g102"><text
           id="text110"
           style="font-variant:normal;font-weight:bold;font-size:18px;font-family:MalgunGothicBold;-inkscape-font-specification:MalgunGothicBold;writing-mode:lr-tb;fill:#000000;fill-opacity:1;fill-rule:nonzero;stroke:none"
           transform="matrix(1,0,0,-1,797.18,189.5)"><tspan
             id="tspan108"
             y="0"
             x="0 14.364 27.576 36.792">NULL</tspan></text>
</g></g><g
       id="g112"><g
         clip-path="url(#clipPath118)"
         id="g114"><path
           id="path120"
           style="fill:#000000;fill-opacity:1;fill-rule:nonzero;stroke:none"
           d="m 281.86,210.85 0.09,8.87 0.27,8.87 0.44,8.83 0.6,8.78 0.77,8.71 0.92,8.62 1.08,8.52 1.21,8.4 1.35,8.26 1.48,8.1 1.61,7.93 1.74,7.73 1.84,7.54 1.95,7.3 2.06,7.07 2.15,6.8 2.25,6.53 2.34,6.23 2.41,5.93 2.49,5.59 2.56,5.25 2.62,4.89 2.69,4.5 2.73,4.11 2.79,3.7 2.84,3.27 2.87,2.82 1.45,1.23 1.47,1.12 1.47,0.99 1.47,0.88 1.51,0.76 2.43,0.77 0.31,-0.95 -2.4,-0.76 0.07,0.03 -1.45,-0.73 0.03,0.02 -1.45,-0.87 0.02,0.02 -1.44,-0.98 0.02,0.02 -1.44,-1.1 0.02,0.01 -1.43,-1.21 0.03,0.02 -2.85,-2.79 0.03,0.03 -2.81,-3.24 0.02,0.03 -2.77,-3.68 0.02,0.03 -2.72,-4.09 0.01,0.02 -2.67,-4.48 0.01,0.02 -2.62,-4.87 0.01,0.02 -2.55,-5.24 0.01,0.02 -2.48,-5.58 v 0.01 l -2.4,-5.91 v 0.01 l -2.33,-6.21 v 0.01 l -2.24,-6.52 v 0.01 l -2.15,-6.79 v 0.01 l -2.05,-7.05 v 0.01 l -1.95,-7.3 0.01,0.01 -1.84,-7.52 v 0.01 l -1.73,-7.72 v 0.01 l -1.61,-7.92 h 0.01 l -1.49,-8.09 v 0.01 l -1.35,-8.25 v 0.01 l -1.2,-8.39 v 0.01 l -1.07,-8.51 v 0.01 l -0.93,-8.62 0.01,0.01 -0.77,-8.7 v 0.01 l -0.61,-8.76 v 0.01 l -0.43,-8.82 v 0 l -0.27,-8.85 v 0.01 l -0.09,-8.88 z m 56.57,191.19 6.45,-1.84 -5.34,-4.06 z" /></g></g><g
       id="g122"><g
         clip-path="url(#clipPath128)"
         id="g124"><path
           id="path130"
           style="fill:#000000;fill-opacity:1;fill-rule:nonzero;stroke:none"
           d="m 516.34,398.75 0.2,-11.23 0.58,-11.23 0.96,-11.18 1.32,-11.12 1.67,-11.02 2.01,-10.92 2.33,-10.78 2.65,-10.63 2.95,-10.45 3.23,-10.26 3.51,-10.04 3.77,-9.8 4.01,-9.53 4.26,-9.25 4.48,-8.94 4.7,-8.61 4.89,-8.26 5.09,-7.89 5.26,-7.49 5.42,-7.09 5.57,-6.63 2.85,-3.15 2.87,-3.03 2.9,-2.91 2.94,-2.79 2.96,-2.66 2.99,-2.53 3.02,-2.4 3.04,-2.27 3.06,-2.13 3.09,-1.99 3.1,-1.84 3.12,-1.71 3.15,-1.55 3.15,-1.4 3.17,-1.25 3.18,-1.09 3.19,-0.93 3.21,-0.77 3.2,-0.59 3.22,-0.44 1.41,-0.09 0.06,1 -1.39,0.08 h 0.04 l -3.19,0.44 0.02,-0.01 -3.18,0.59 h 0.03 l -3.18,0.76 h 0.02 l -3.17,0.92 0.03,-0.01 -3.16,1.08 0.02,-0.01 -3.15,1.25 0.02,-0.01 -3.14,1.39 0.02,-0.01 -3.12,1.55 0.01,-0.01 -3.1,1.69 0.02,-0.01 -3.09,1.84 0.01,-0.01 -3.07,1.98 0.02,-0.01 -3.06,2.12 0.02,-0.01 -3.02,2.25 0.01,-0.01 -3.01,2.4 0.01,-0.01 -2.97,2.52 0.01,-0.01 -2.96,2.65 0.01,-0.01 -2.92,2.78 0.01,-0.01 -2.9,2.9 0.01,-0.01 -2.86,3.02 v 0 l -2.83,3.13 0.01,-0.01 -5.56,6.62 0.02,-0.02 -5.41,7.07 0.01,-0.02 -5.25,7.48 0.01,-0.02 -5.07,7.88 0.01,-0.02 -4.89,8.24 0.01,-0.01 -4.69,8.59 0.01,-0.01 -4.47,8.92 0.01,-0.01 -4.25,9.23 v -0.02 l -4.01,9.52 0.01,-0.01 -3.77,9.78 0.01,-0.01 -3.51,10.02 0.01,-0.01 -3.23,10.24 0.01,-0.01 -2.94,10.44 v -0.02 l -2.64,10.61 v -0.01 l -2.33,10.77 0.01,-0.02 -2.01,10.9 v -0.02 l -1.67,11.01 0.01,-0.01 -1.32,11.1 v -0.02 l -0.96,11.16 v -0.01 l -0.59,11.21 v -0.02 l -0.19,11.23 z m 130.55,-242.31 6.15,2.68 -5.83,3.31 z" /></g></g></g></svg>