<?xml version="1.0" encoding="UTF-8" standalone="no"?>
<svg
   xmlns:dc="http://purl.org/dc/elements/1.1/"
   xmlns:cc="http://creativecommons.org/ns#"
   xmlns:rdf="http://www.w3.org/1999/02/22-rdf-syntax-ns#"
   xmlns:svg="http://www.w3.org/2000/svg"
   xmlns="http://www.w3.org/2000/svg"
   viewBox="0 0 1280 720"
   height="720"
   width="1280"
   xml:space="preserve"
   id="svg2"
   version="1.1"><metadata
     id="metadata8"><rdf:RDF><cc:Work
         rdf:about=""><dc:format>image/svg+xml</dc:format><dc:type
           rdf:resource="http://purl.org/dc/dcmitype/StillImage" /></cc:Work></rdf:RDF></metadata><defs
     id="defs6"><clipPath
       id="clipPath18"
       clipPathUnits="userSpaceOnUse"><path
         style="clip-rule:evenodd"
         id="path16"
         d="M 0,1.2207e-4 H 960 V 540.00012 H 0 Z" /></clipPath><clipPath
       id="clipPath38"
       clipPathUnits="userSpaceOnUse"><path
         style="clip-rule:evenodd"
         id="path36"
         d="M 1.4305e-5,0 H 960.00001 V 540 H 1.4305e-5 Z" /></clipPath><clipPath
       id="clipPath60"
       clipPathUnits="userSpaceOnUse"><path
         style="clip-rule:evenodd"
         id="path58"
         d="M 1.4305e-5,0 H 960.00001 V 540 H 1.4305e-5 Z" /></clipPath><clipPath
       id="clipPath82"
       clipPathUnits="userSpaceOnUse"><path
         style="clip-rule:evenodd"
         id="path80"
         d="M 1.4305e-5,0 H 960.00001 V 540 H 1.4305e-5 Z" /></clipPath><clipPath
       id="clipPath104"
       clipPathUnits="userSpaceOnUse"><path
         style="clip-rule:evenodd"
         id="path102"
         d="M 1.4305e-5,0 H 960.00001 V 540 H 1.4305e-5 Z" /></clipPath><clipPath
       id="clipPath126"
       clipPathUnits="userSpaceOnUse"><path
         style="clip-rule:evenodd"
         id="path124"
         d="M 1.4305e-5,0 H 960.00001 V 540 H 1.4305e-5 Z" /></clipPath><clipPath
       id="clipPath140"
       clipPathUnits="userSpaceOnUse"><path
         style="clip-rule:evenodd"
         id="path138"
         d="M 3.0518e-5,540 H 960 V 2.4414e-4 L 6.1035e-5,1.8311e-4" /></clipPath></defs><g
     transform="matrix(1.3333333,0,0,-1.3333333,0,720)"
     id="g10"><g
       id="g12"><g
         clip-path="url(#clipPath18)"
         id="g14"><path
           id="path20"
           style="fill:#ffffff;fill-opacity:1;fill-rule:evenodd;stroke:none"
           d="M 0,6.1035e-5 H 960 V 540.00006 H 0 Z" /></g></g><path
       id="path22"
       style="fill:none;stroke:#000000;stroke-width:1;stroke-linecap:butt;stroke-linejoin:round;stroke-miterlimit:10;stroke-dasharray:none;stroke-opacity:1"
       d="M 305.96,285.1 V 254.9" /><path
       id="path24"
       style="fill:none;stroke:#000000;stroke-width:1;stroke-linecap:butt;stroke-linejoin:round;stroke-miterlimit:10;stroke-dasharray:none;stroke-opacity:1"
       d="M 263.85,285.1 V 254.9" /><path
       id="path26"
       style="fill:none;stroke:#000000;stroke-width:1;stroke-linecap:butt;stroke-linejoin:round;stroke-miterlimit:10;stroke-dasharray:none;stroke-opacity:1"
       d="M 348.06,285.1 V 254.9" /><path
       id="path28"
       style="fill:none;stroke:#000000;stroke-width:1;stroke-linecap:butt;stroke-linejoin:round;stroke-miterlimit:10;stroke-dasharray:none;stroke-opacity:1"
       d="m 263.35,284.6 h 85.21" /><path
       id="path30"
       style="fill:none;stroke:#000000;stroke-width:1;stroke-linecap:butt;stroke-linejoin:round;stroke-miterlimit:10;stroke-dasharray:none;stroke-opacity:1"
       d="m 263.35,255.4 h 85.21" /><g
       id="g32"><g
         clip-path="url(#clipPath38)"
         id="g34"><text
           id="text42"
           style="font-variant:normal;font-weight:bold;font-size:18px;font-family:Arial;-inkscape-font-specification:Arial-BoldMT;writing-mode:lr-tb;fill:#000000;fill-opacity:1;fill-rule:nonzero;stroke:none"
           transform="matrix(1,0,0,-1,279.89,263.42)"><tspan
             id="tspan40"
             y="0"
             x="0">1</tspan></text>
</g></g><path
       id="path44"
       style="fill:none;stroke:#000000;stroke-width:1;stroke-linecap:butt;stroke-linejoin:round;stroke-miterlimit:10;stroke-dasharray:none;stroke-opacity:1"
       d="M 422.82,315.1 V 284.9" /><path
       id="path46"
       style="fill:none;stroke:#000000;stroke-width:1;stroke-linecap:butt;stroke-linejoin:round;stroke-miterlimit:10;stroke-dasharray:none;stroke-opacity:1"
       d="M 380.72,315.1 V 284.9" /><path
       id="path48"
       style="fill:none;stroke:#000000;stroke-width:1;stroke-linecap:butt;stroke-linejoin:round;stroke-miterlimit:10;stroke-dasharray:none;stroke-opacity:1"
       d="M 464.93,315.1 V 284.9" /><path
       id="path50"
       style="fill:none;stroke:#000000;stroke-width:1;stroke-linecap:butt;stroke-linejoin:round;stroke-miterlimit:10;stroke-dasharray:none;stroke-opacity:1"
       d="m 380.22,314.6 h 85.21" /><path
       id="path52"
       style="fill:none;stroke:#000000;stroke-width:1;stroke-linecap:butt;stroke-linejoin:round;stroke-miterlimit:10;stroke-dasharray:none;stroke-opacity:1"
       d="m 380.22,285.4 h 85.21" /><g
       id="g54"><g
         clip-path="url(#clipPath60)"
         id="g56"><text
           id="text64"
           style="font-variant:normal;font-weight:bold;font-size:18px;font-family:Arial;-inkscape-font-specification:Arial-BoldMT;writing-mode:lr-tb;fill:#000000;fill-opacity:1;fill-rule:nonzero;stroke:none"
           transform="matrix(1,0,0,-1,396.77,293.42)"><tspan
             id="tspan62"
             y="0"
             x="0">1</tspan></text>
</g></g><path
       id="path66"
       style="fill:none;stroke:#000000;stroke-width:1;stroke-linecap:butt;stroke-linejoin:round;stroke-miterlimit:10;stroke-dasharray:none;stroke-opacity:1"
       d="m 462.8,257.44 v -30.2" /><path
       id="path68"
       style="fill:none;stroke:#000000;stroke-width:1;stroke-linecap:butt;stroke-linejoin:round;stroke-miterlimit:10;stroke-dasharray:none;stroke-opacity:1"
       d="m 420.7,257.44 v -30.2" /><path
       id="path70"
       style="fill:none;stroke:#000000;stroke-width:1;stroke-linecap:butt;stroke-linejoin:round;stroke-miterlimit:10;stroke-dasharray:none;stroke-opacity:1"
       d="m 504.91,257.44 v -30.2" /><path
       id="path72"
       style="fill:none;stroke:#000000;stroke-width:1;stroke-linecap:butt;stroke-linejoin:round;stroke-miterlimit:10;stroke-dasharray:none;stroke-opacity:1"
       d="m 420.2,256.94 h 85.21" /><path
       id="path74"
       style="fill:none;stroke:#000000;stroke-width:1;stroke-linecap:butt;stroke-linejoin:round;stroke-miterlimit:10;stroke-dasharray:none;stroke-opacity:1"
       d="m 420.2,227.74 h 85.21" /><g
       id="g76"><g
         clip-path="url(#clipPath82)"
         id="g78"><text
           id="text86"
           style="font-variant:normal;font-weight:bold;font-size:18px;font-family:Arial;-inkscape-font-specification:Arial-BoldMT;writing-mode:lr-tb;fill:#000000;fill-opacity:1;fill-rule:nonzero;stroke:none"
           transform="matrix(1,0,0,-1,436.75,235.75)"><tspan
             id="tspan84"
             y="0"
             x="0">1</tspan></text>
</g></g><path
       id="path88"
       style="fill:none;stroke:#000000;stroke-width:1;stroke-linecap:butt;stroke-linejoin:round;stroke-miterlimit:10;stroke-dasharray:none;stroke-opacity:1"
       d="M 570.55,298.4 V 268.2" /><path
       id="path90"
       style="fill:none;stroke:#000000;stroke-width:1;stroke-linecap:butt;stroke-linejoin:round;stroke-miterlimit:10;stroke-dasharray:none;stroke-opacity:1"
       d="M 528.44,298.4 V 268.2" /><path
       id="path92"
       style="fill:none;stroke:#000000;stroke-width:1;stroke-linecap:butt;stroke-linejoin:round;stroke-miterlimit:10;stroke-dasharray:none;stroke-opacity:1"
       d="M 612.65,298.4 V 268.2" /><path
       id="path94"
       style="fill:none;stroke:#000000;stroke-width:1;stroke-linecap:butt;stroke-linejoin:round;stroke-miterlimit:10;stroke-dasharray:none;stroke-opacity:1"
       d="m 527.94,297.9 h 85.21" /><path
       id="path96"
       style="fill:none;stroke:#000000;stroke-width:1;stroke-linecap:butt;stroke-linejoin:round;stroke-miterlimit:10;stroke-dasharray:none;stroke-opacity:1"
       d="m 527.94,268.7 h 85.21" /><g
       id="g98"><g
         clip-path="url(#clipPath104)"
         id="g100"><text
           id="text108"
           style="font-variant:normal;font-weight:bold;font-size:18.02400017px;font-family:Arial;-inkscape-font-specification:Arial-BoldMT;writing-mode:lr-tb;fill:#000000;fill-opacity:1;fill-rule:nonzero;stroke:none"
           transform="matrix(1,0,0,-1,544.51,276.74)"><tspan
             id="tspan106"
             y="0"
             x="0">1</tspan></text>
</g></g><path
       id="path110"
       style="fill:none;stroke:#000000;stroke-width:1;stroke-linecap:butt;stroke-linejoin:round;stroke-miterlimit:10;stroke-dasharray:none;stroke-opacity:1"
       d="m 674.47,260.63 v -30.2" /><path
       id="path112"
       style="fill:none;stroke:#000000;stroke-width:1;stroke-linecap:butt;stroke-linejoin:round;stroke-miterlimit:10;stroke-dasharray:none;stroke-opacity:1"
       d="m 632.37,260.63 v -30.2" /><path
       id="path114"
       style="fill:none;stroke:#000000;stroke-width:1;stroke-linecap:butt;stroke-linejoin:round;stroke-miterlimit:10;stroke-dasharray:none;stroke-opacity:1"
       d="m 716.58,260.63 v -30.2" /><path
       id="path116"
       style="fill:none;stroke:#000000;stroke-width:1;stroke-linecap:butt;stroke-linejoin:round;stroke-miterlimit:10;stroke-dasharray:none;stroke-opacity:1"
       d="m 631.87,260.13 h 85.21" /><path
       id="path118"
       style="fill:none;stroke:#000000;stroke-width:1;stroke-linecap:butt;stroke-linejoin:round;stroke-miterlimit:10;stroke-dasharray:none;stroke-opacity:1"
       d="m 631.87,230.93 h 85.21" /><g
       id="g120"><g
         clip-path="url(#clipPath126)"
         id="g122"><text
           id="text130"
           style="font-variant:normal;font-weight:bold;font-size:18px;font-family:Arial;-inkscape-font-specification:Arial-BoldMT;writing-mode:lr-tb;fill:#000000;fill-opacity:1;fill-rule:nonzero;stroke:none"
           transform="matrix(1,0,0,-1,648.46,238.94)"><tspan
             id="tspan128"
             y="0"
             x="0">1</tspan></text>
</g></g><path
       id="path132"
       style="fill:#000000;fill-opacity:1;fill-rule:nonzero;stroke:none"
       d="m 326.42,269.49 2.56,0.09 2.56,0.25 2.51,0.41 2.46,0.56 2.37,0.68 2.27,0.81 2.16,0.92 2.01,1.03 1.86,1.11 0.87,0.6 0.81,0.61 0.78,0.62 0.71,0.65 0.67,0.65 0.6,0.69 0.55,0.68 0.48,0.7 0.42,0.72 0.35,0.73 0.28,0.74 0.2,0.74 0.13,0.75 0.04,0.74 0.04,0.7 -0.01,-0.06 0.12,0.7 -0.01,-0.04 0.19,0.69 -0.01,-0.04 0.26,0.69 -0.02,-0.04 0.34,0.69 -0.02,-0.03 0.4,0.68 -0.02,-0.03 0.46,0.67 -0.02,-0.02 0.53,0.67 -0.02,-0.03 0.58,0.65 -0.02,-0.02 0.65,0.64 -0.02,-0.02 0.7,0.63 -0.02,-0.01 0.75,0.61 -0.02,-0.01 0.8,0.59 -0.01,-0.01 0.84,0.58 -0.02,-0.02 1.83,1.1 -0.03,-0.01 1.99,1 -0.03,-0.01 2.12,0.91 -0.03,-0.01 2.24,0.8 -0.03,-0.01 2.35,0.68 -0.03,-0.01 2.43,0.55 -0.05,-0.01 2.57,0.34 -0.13,0.99 -2.59,-0.34 -2.46,-0.56 -2.38,-0.69 -2.27,-0.8 -2.15,-0.93 -2.02,-1.02 -1.86,-1.12 -0.86,-0.59 -0.82,-0.61 -0.77,-0.63 -0.72,-0.64 -0.66,-0.66 -0.61,-0.67 -0.54,-0.7 -0.49,-0.7 -0.41,-0.71 -0.36,-0.73 -0.28,-0.74 -0.2,-0.75 -0.13,-0.75 -0.04,-0.73 -0.03,-0.71 v 0.06 l -0.12,-0.7 0.01,0.05 -0.19,-0.7 0.02,0.05 -0.26,-0.7 0.02,0.04 -0.34,-0.69 0.02,0.04 -0.4,-0.69 0.02,0.04 -0.47,-0.68 0.02,0.03 -0.52,-0.66 0.02,0.02 -0.59,-0.66 0.02,0.02 -0.64,-0.63 0.01,0.01 -0.69,-0.63 0.02,0.02 -0.76,-0.61 0.01,0.01 -0.79,-0.6 0.02,0.02 -0.85,-0.58 0.03,0.01 -1.83,-1.09 0.03,0.02 -1.99,-1.02 0.03,0.02 -2.12,-0.91 0.02,0.01 -2.25,-0.8 0.03,0.01 -2.34,-0.68 0.03,0.01 -2.43,-0.55 0.03,0.01 -2.48,-0.41 0.03,0.01 -2.53,-0.26 h 0.04 l -2.55,-0.08 z m 48.58,27.03 5.74,3.48 -6.23,2.5 z" /><g
       id="g134"><g
         clip-path="url(#clipPath140)"
         id="g136"><path
           id="path142"
           style="fill:#000000;fill-opacity:1;fill-rule:nonzero;stroke:none"
           d="m 445.95,298.42 -0.03,-0.99 -0.1,-0.99 -0.15,-1 -0.22,-0.99 -0.27,-0.98 -0.32,-0.97 -0.38,-0.96 -0.42,-0.94 -0.47,-0.93 -0.52,-0.91 -1.16,-1.74 -1.32,-1.67 -1.47,-1.54 -1.59,-1.42 -1.71,-1.29 -1.79,-1.13 -0.94,-0.5 -0.95,-0.46 -0.97,-0.41 -0.98,-0.37 -1,-0.31 -1.01,-0.26 -1.01,-0.21 -1.02,-0.15 -1.04,-0.09 -1.01,-0.03 -1,-0.02 h 0.03 l -1,-0.08 h 0.02 l -0.99,-0.12 h 0.02 l -0.99,-0.17 h 0.02 l -0.98,-0.21 h 0.02 l -0.97,-0.26 0.03,0.01 -1.91,-0.65 0.04,0.02 -1.84,-0.8 0.03,0.02 -1.76,-0.94 0.04,0.02 -1.68,-1.08 0.04,0.03 -1.57,-1.2 0.03,0.03 -1.43,-1.29 0.03,0.03 -1.3,-1.39 0.03,0.04 -1.14,-1.46 0.02,0.03 -0.51,-0.76 0.02,0.03 -0.46,-0.77 0.01,0.02 -0.41,-0.78 0.01,0.02 -0.37,-0.79 0.01,0.02 -0.31,-0.8 0.01,0.03 -0.26,-0.82 v 0.03 l -0.21,-0.82 0.01,0.04 -0.15,-0.82 0.01,0.04 -0.09,-0.84 v 0.04 l -0.03,-0.83 v 0.04 l 0.02,-0.83 v 0.04 l 0.08,-0.84 v 0.03 l 0.13,-0.82 -0.01,0.02 0.17,-0.81 v 0.02 l 0.22,-0.81 -0.01,0.03 0.27,-0.8 -0.02,0.03 0.66,-1.58 -0.02,0.04 0.81,-1.52 -0.02,0.04 0.96,-1.46 -0.02,0.03 1.09,-1.39 -0.03,0.04 1.21,-1.29 -0.03,0.03 1.31,-1.2 -0.03,0.03 1.41,-1.07 -0.04,0.02 1.5,-0.93 -0.04,0.02 1.55,-0.81 -0.09,0.04 1.72,-0.5 -0.28,-0.96 -1.76,0.51 -1.62,0.84 -1.53,0.96 -1.44,1.1 -1.35,1.22 -1.23,1.32 -1.12,1.42 -0.99,1.5 -0.84,1.56 -0.67,1.62 -0.28,0.84 -0.22,0.84 -0.18,0.84 -0.13,0.85 -0.09,0.87 -0.02,0.85 0.03,0.86 0.1,0.87 0.15,0.85 0.22,0.85 0.27,0.85 0.33,0.83 0.38,0.82 0.42,0.8 0.47,0.8 0.53,0.78 1.17,1.49 1.32,1.42 1.47,1.32 1.6,1.22 1.7,1.09 1.8,0.96 1.88,0.81 1.94,0.66 1,0.27 1.01,0.22 1.01,0.18 1.01,0.12 1.03,0.09 1.02,0.02 h -0.01 l 1,0.03 h -0.03 l 1.01,0.09 -0.03,-0.01 0.99,0.15 -0.03,-0.01 0.99,0.2 h -0.03 l 0.99,0.25 h -0.03 l 0.98,0.3 h -0.02 l 0.96,0.35 -0.03,-0.01 0.95,0.4 h -0.03 l 0.93,0.45 -0.01,-0.01 0.91,0.48 -0.03,-0.01 1.76,1.11 -0.03,-0.03 1.67,1.26 -0.03,-0.02 1.56,1.39 -0.03,-0.03 1.44,1.52 -0.03,-0.04 1.29,1.63 -0.02,-0.03 1.14,1.71 -0.02,-0.02 0.51,0.88 -0.01,-0.02 0.45,0.91 -0.01,-0.02 0.42,0.91 -0.01,-0.02 0.36,0.94 v -0.03 l 0.31,0.95 -0.01,-0.03 0.27,0.95 -0.01,-0.02 0.21,0.96 -0.01,-0.03 0.15,0.96 v -0.03 l 0.09,0.97 v -0.03 l 0.03,0.98 z m -30.49,-51.94 5.26,-4.16 -6.49,-1.71 z" /></g></g><path
       id="path144"
       style="fill:#000000;fill-opacity:1;fill-rule:nonzero;stroke:none"
       d="m 485.41,242.25 1.02,0.03 1.04,0.09 1.03,0.14 1.02,0.2 1.02,0.26 1,0.31 0.99,0.35 0.98,0.4 1.9,0.94 1.81,1.1 1.71,1.26 1.61,1.39 1.48,1.51 1.33,1.63 1.17,1.7 0.52,0.9 0.48,0.9 0.43,0.93 0.38,0.93 0.32,0.95 0.27,0.96 0.22,0.97 0.15,0.97 0.1,0.98 0.03,0.97 0.03,0.95 v -0.03 l 0.09,0.94 v -0.03 l 0.16,0.94 -0.01,-0.02 0.2,0.94 v -0.04 l 0.27,0.94 -0.01,-0.02 0.31,0.92 -0.01,-0.03 0.37,0.91 -0.01,-0.02 0.42,0.9 -0.01,-0.02 0.46,0.88 -0.01,-0.02 0.51,0.86 -0.01,-0.02 1.14,1.68 -0.02,-0.04 1.3,1.59 -0.03,-0.03 1.45,1.48 -0.03,-0.03 1.57,1.36 -0.03,-0.02 1.68,1.23 -0.03,-0.02 1.77,1.08 -0.03,-0.02 1.86,0.91 -0.03,-0.01 0.95,0.4 -0.02,-0.01 0.96,0.34 -0.08,-0.02 1.05,0.19 -0.18,0.98 -1.08,-0.19 -1.02,-0.36 -0.98,-0.41 -1.9,-0.93 -1.81,-1.11 -1.71,-1.26 -1.61,-1.38 -1.48,-1.52 -1.33,-1.62 -1.17,-1.71 -0.52,-0.89 -0.48,-0.91 -0.43,-0.92 -0.38,-0.93 -0.32,-0.95 -0.28,-0.97 -0.21,-0.96 -0.16,-0.98 -0.09,-0.97 -0.03,-0.97 -0.03,-0.95 v 0.04 l -0.1,-0.95 v 0.02 l -0.15,-0.94 0.01,0.03 -0.21,-0.94 0.01,0.03 -0.27,-0.94 0.01,0.03 -0.31,-0.93 0.01,0.03 -0.37,-0.91 0.01,0.03 -0.42,-0.9 0.01,0.02 -0.47,-0.89 0.02,0.02 -0.51,-0.87 0.02,0.03 -1.15,-1.67 0.02,0.03 -1.3,-1.59 0.03,0.04 -1.45,-1.49 0.03,0.03 -1.58,-1.36 0.04,0.02 -1.68,-1.23 0.03,0.02 -1.77,-1.08 0.03,0.03 -1.86,-0.93 0.04,0.02 -0.96,-0.39 0.02,0.01 -0.96,-0.35 0.02,0.01 -0.98,-0.3 0.02,0.01 -0.99,-0.25 h 0.03 l -1,-0.19 h 0.02 l -0.99,-0.14 h 0.02 l -1.01,-0.09 h 0.03 l -1.01,-0.03 z m 37.61,37.12 5.42,3.95 -6.41,1.97 z" /><path
       id="path146"
       style="fill:#000000;fill-opacity:1;fill-rule:nonzero;stroke:none"
       d="m 592.22,283.82 0.95,-0.03 0.97,-0.08 0.96,-0.14 0.95,-0.19 0.95,-0.23 0.94,-0.29 1.83,-0.7 1.78,-0.88 1.69,-1.03 1.6,-1.17 1.5,-1.3 1.38,-1.41 1.24,-1.51 1.1,-1.6 0.93,-1.67 0.4,-0.86 0.36,-0.88 0.3,-0.88 0.25,-0.89 0.21,-0.91 0.14,-0.91 0.09,-0.92 0.03,-0.9 0.03,-0.88 v 0.03 l 0.08,-0.89 v 0.04 l 0.14,-0.88 -0.01,0.03 0.2,-0.88 -0.01,0.03 0.25,-0.86 -0.01,0.02 0.29,-0.86 -0.01,0.03 0.35,-0.85 -0.01,0.02 0.39,-0.84 -0.02,0.03 0.91,-1.62 -0.03,0.04 1.08,-1.56 -0.03,0.03 1.22,-1.48 -0.03,0.03 1.35,-1.38 -0.03,0.03 1.47,-1.26 -0.03,0.02 1.56,-1.15 -0.03,0.03 1.65,-1.01 -0.03,0.02 1.73,-0.85 -0.08,0.03 2.45,-0.74 -0.29,-0.96 -2.49,0.75 -1.79,0.89 -1.69,1.02 -1.6,1.18 -1.5,1.29 -1.38,1.41 -1.24,1.51 -1.1,1.6 -0.93,1.66 -0.4,0.87 -0.36,0.87 -0.3,0.89 -0.25,0.89 -0.21,0.91 -0.14,0.9 -0.09,0.92 -0.03,0.9 -0.03,0.89 v -0.03 l -0.08,0.88 v -0.03 l -0.14,0.87 0.01,-0.02 -0.2,0.87 0.01,-0.02 -0.25,0.87 0.01,-0.03 -0.29,0.86 0.01,-0.03 -0.35,0.86 0.01,-0.03 -0.39,0.83 0.02,-0.03 -0.91,1.64 0.03,-0.04 -1.08,1.56 0.03,-0.04 -1.22,1.48 0.03,-0.03 -1.35,1.38 0.03,-0.03 -1.47,1.27 0.03,-0.03 -1.56,1.15 0.03,-0.02 -1.66,1.01 0.04,-0.02 -1.73,0.85 0.04,-0.02 -1.79,0.69 0.03,-0.01 -0.91,0.28 0.03,-0.01 -0.93,0.23 0.02,-0.01 -0.93,0.19 h 0.03 l -0.93,0.13 h 0.03 l -0.94,0.07 h 0.02 l -0.94,0.03 z m 34.75,-34.26 5.37,-4.02 -6.44,-1.89 z" /></g></svg>