<?xml version="1.0" encoding="UTF-8" standalone="no"?>
<svg
   xmlns:dc="http://purl.org/dc/elements/1.1/"
   xmlns:cc="http://creativecommons.org/ns#"
   xmlns:rdf="http://www.w3.org/1999/02/22-rdf-syntax-ns#"
   xmlns:svg="http://www.w3.org/2000/svg"
   xmlns="http://www.w3.org/2000/svg"
   viewBox="12 270 735 110"
   height="110"
   width="735"
   xml:space="preserve"
   id="svg2"
   version="1.1"><metadata
     id="metadata8"><rdf:RDF><cc:Work
         rdf:about=""><dc:format>image/svg+xml</dc:format><dc:type
           rdf:resource="http://purl.org/dc/dcmitype/StillImage" /></cc:Work></rdf:RDF></metadata><defs
     id="defs6"><clipPath
       id="clipPath18"
       clipPathUnits="userSpaceOnUse"><path
         style="clip-rule:evenodd"
         id="path16"
         d="M 0,1.2207e-4 H 960 V 540.00012 H 0 Z" /></clipPath><clipPath
       id="clipPath38"
       clipPathUnits="userSpaceOnUse"><path
         style="clip-rule:evenodd"
         id="path36"
         d="M 1.4305e-5,0 H 960.00001 V 540 H 1.4305e-5 Z" /></clipPath><clipPath
       id="clipPath60"
       clipPathUnits="userSpaceOnUse"><path
         style="clip-rule:evenodd"
         id="path58"
         d="M 1.4305e-5,0 H 960.00001 V 540 H 1.4305e-5 Z" /></clipPath><clipPath
       id="clipPath74"
       clipPathUnits="userSpaceOnUse"><path
         style="clip-rule:evenodd"
         id="path72"
         d="M 1.4305e-5,0 H 960.00001 V 540 H 1.4305e-5 Z" /></clipPath><clipPath
       id="clipPath86"
       clipPathUnits="userSpaceOnUse"><path
         style="clip-rule:evenodd"
         id="path84"
         d="M 1.4305e-5,0 H 960.00001 V 540 H 1.4305e-5 Z" /></clipPath><clipPath
       id="clipPath98"
       clipPathUnits="userSpaceOnUse"><path
         style="clip-rule:evenodd"
         id="path96"
         d="M 1.4305e-5,0 H 960.00001 V 540 H 1.4305e-5 Z" /></clipPath><clipPath
       id="clipPath110"
       clipPathUnits="userSpaceOnUse"><path
         style="clip-rule:evenodd"
         id="path108"
         d="M 1.4305e-5,0 H 960.00001 V 540 H 1.4305e-5 Z" /></clipPath><clipPath
       id="clipPath122"
       clipPathUnits="userSpaceOnUse"><path
         style="clip-rule:evenodd"
         id="path120"
         d="M 0,540 H 960 V 1.8311e-4 H 7.629e-6" /></clipPath><clipPath
       id="clipPath142"
       clipPathUnits="userSpaceOnUse"><path
         style="clip-rule:evenodd"
         id="path140"
         d="M 1.4305e-5,0 H 960.00001 V 540 H 1.4305e-5 Z" /></clipPath><clipPath
       id="clipPath154"
       clipPathUnits="userSpaceOnUse"><path
         style="clip-rule:evenodd"
         id="path152"
         d="M 1.4305e-5,0 H 960.00001 V 540 H 1.4305e-5 Z" /></clipPath><clipPath
       id="clipPath166"
       clipPathUnits="userSpaceOnUse"><path
         style="clip-rule:evenodd"
         id="path164"
         d="M 1.4305e-5,0 H 960.00001 V 540 H 1.4305e-5 Z" /></clipPath><clipPath
       id="clipPath178"
       clipPathUnits="userSpaceOnUse"><path
         style="clip-rule:evenodd"
         id="path176"
         d="M 0,540 H 960 V 1.8311e-4 H 3.0518e-5" /></clipPath><clipPath
       id="clipPath188"
       clipPathUnits="userSpaceOnUse"><path
         style="clip-rule:evenodd"
         id="path186"
         d="M 1.4305e-5,0 H 960.00001 V 540 H 1.4305e-5 Z" /></clipPath><clipPath
       id="clipPath210"
       clipPathUnits="userSpaceOnUse"><path
         style="clip-rule:evenodd"
         id="path208"
         d="M 1.4305e-5,0 H 960.00001 V 540 H 1.4305e-5 Z" /></clipPath><clipPath
       id="clipPath222"
       clipPathUnits="userSpaceOnUse"><path
         style="clip-rule:evenodd"
         id="path220"
         d="M 1.4305e-5,0 H 960.00001 V 540 H 1.4305e-5 Z" /></clipPath><clipPath
       id="clipPath234"
       clipPathUnits="userSpaceOnUse"><path
         style="clip-rule:evenodd"
         id="path232"
         d="M 1.4305e-5,0 H 960.00001 V 540 H 1.4305e-5 Z" /></clipPath><clipPath
       id="clipPath246"
       clipPathUnits="userSpaceOnUse"><path
         style="clip-rule:evenodd"
         id="path244"
         d="M 6.1035e-5,540 H 960 V 1.8311e-4 H 1.2207e-4" /></clipPath></defs><g
     transform="matrix(1.3333333,0,0,-1.3333333,0,720)"
     id="g10"><g
       id="g12"><g
         clip-path="url(#clipPath18)"
         id="g14"><path
           id="path20"
           style="fill:#ffffff;fill-opacity:1;fill-rule:evenodd;stroke:none"
           d="M 0,6.1035e-5 H 960 V 540.00006 H 0 Z" /></g></g><path
       id="path22"
       style="fill:none;stroke:#000000;stroke-width:1;stroke-linecap:butt;stroke-linejoin:round;stroke-miterlimit:10;stroke-dasharray:none;stroke-opacity:1"
       d="m 72.643,290.04 v -30.2" /><path
       id="path24"
       style="fill:none;stroke:#000000;stroke-width:1;stroke-linecap:butt;stroke-linejoin:round;stroke-miterlimit:10;stroke-dasharray:none;stroke-opacity:1"
       d="m 33.018,290.04 v -30.2" /><path
       id="path26"
       style="fill:none;stroke:#000000;stroke-width:1;stroke-linecap:butt;stroke-linejoin:round;stroke-miterlimit:10;stroke-dasharray:none;stroke-opacity:1"
       d="m 112.27,290.04 v -30.2" /><path
       id="path28"
       style="fill:none;stroke:#000000;stroke-width:1;stroke-linecap:butt;stroke-linejoin:round;stroke-miterlimit:10;stroke-dasharray:none;stroke-opacity:1"
       d="M 32.518,289.54 H 112.77" /><path
       id="path30"
       style="fill:none;stroke:#000000;stroke-width:1;stroke-linecap:butt;stroke-linejoin:round;stroke-miterlimit:10;stroke-dasharray:none;stroke-opacity:1"
       d="M 32.518,260.34 H 112.77" /><g
       id="g32"><g
         clip-path="url(#clipPath38)"
         id="g34"><text
           id="text42"
           style="font-variant:normal;font-weight:bold;font-size:18px;font-family:Arial;-inkscape-font-specification:Arial-BoldMT;writing-mode:lr-tb;fill:#000000;fill-opacity:1;fill-rule:nonzero;stroke:none"
           transform="matrix(1,0,0,-1,47.832,268.37)"><tspan
             id="tspan40"
             y="0"
             x="0">1</tspan></text>
</g></g><path
       id="path44"
       style="fill:none;stroke:#000000;stroke-width:1;stroke-linecap:butt;stroke-linejoin:round;stroke-miterlimit:10;stroke-dasharray:none;stroke-opacity:1"
       d="m 180.64,290.04 v -30.2" /><path
       id="path46"
       style="fill:none;stroke:#000000;stroke-width:1;stroke-linecap:butt;stroke-linejoin:round;stroke-miterlimit:10;stroke-dasharray:none;stroke-opacity:1"
       d="m 141.02,290.04 v -30.2" /><path
       id="path48"
       style="fill:none;stroke:#000000;stroke-width:1;stroke-linecap:butt;stroke-linejoin:round;stroke-miterlimit:10;stroke-dasharray:none;stroke-opacity:1"
       d="m 220.27,290.04 v -30.2" /><path
       id="path50"
       style="fill:none;stroke:#000000;stroke-width:1;stroke-linecap:butt;stroke-linejoin:round;stroke-miterlimit:10;stroke-dasharray:none;stroke-opacity:1"
       d="m 140.52,289.54 h 80.25" /><path
       id="path52"
       style="fill:none;stroke:#000000;stroke-width:1;stroke-linecap:butt;stroke-linejoin:round;stroke-miterlimit:10;stroke-dasharray:none;stroke-opacity:1"
       d="m 140.52,260.34 h 80.25" /><g
       id="g54"><g
         clip-path="url(#clipPath60)"
         id="g56"><text
           id="text64"
           style="font-variant:normal;font-weight:bold;font-size:18px;font-family:Arial;-inkscape-font-specification:Arial-BoldMT;writing-mode:lr-tb;fill:#000000;fill-opacity:1;fill-rule:nonzero;stroke:none"
           transform="matrix(1,0,0,-1,155.86,268.37)"><tspan
             id="tspan62"
             y="0"
             x="0">2</tspan></text>
</g></g><path
       id="path66"
       style="fill:#000000;fill-opacity:1;fill-rule:nonzero;stroke:none"
       d="m 93.721,273.92 h 4.417 l 2.172,0.01 2.1,0.01 2.05,0.01 1.96,0.01 1.85,0.02 1.74,0.01 1.59,0.03 1.43,0.02 v 0 h 0.66 l 0.61,0.01 0.57,0.02 h -0.01 l 0.52,0.01 0.46,0.01 h -0.01 l 0.41,0.01 0.35,0.01 0.3,0.01 h -0.01 l 0.25,0.01 0.18,0.01 h -0.01 l 0.17,0.02 0.11,0.04 0.04,0.02 -0.15,-0.04 0.1,0.01 0.17,0.01 h -0.03 l 0.24,0.01 0.3,0.02 h -0.02 0.35 l 0.41,0.02 h -0.01 l 0.46,0.01 0.51,0.01 v 0 l 0.56,0.01 0.61,0.01 v 0 l 0.65,0.01 1.44,0.02 v 0 l 1.59,0.02 1.73,0.02 v 0 l 1.85,0.01 1.96,0.02 v 0 l 2.04,0.01 2.11,0.01 v 0 h 1.58 v 1 h -1.58 l -2.12,-0.01 v 0 l -2.04,-0.01 -1.96,-0.02 -1.85,-0.01 -1.73,-0.02 v 0 l -1.59,-0.02 -1.45,-0.02 h 0.01 l -0.66,-0.01 -0.61,-0.01 h 0.01 l -0.57,-0.01 -0.51,-0.02 v 0 h -0.46 l -0.41,-0.02 h 0.01 l -0.36,-0.01 -0.3,-0.01 h 0.01 l -0.24,-0.01 -0.18,-0.01 v 0 l -0.17,-0.02 -0.11,-0.04 -0.04,-0.02 0.15,0.04 -0.1,-0.01 -0.17,-0.01 h 0.03 l -0.24,-0.01 -0.29,-0.02 h 0.01 -0.34 v 0 l -0.41,-0.01 -0.46,-0.02 h 0.01 -0.52 l -0.56,-0.02 h 0.01 l -0.61,-0.01 h -0.66 l -1.43,-0.03 -1.59,-0.02 v 0 l -1.73,-0.01 -1.86,-0.02 -1.95,-0.01 v 0 l -2.05,-0.01 -2.11,-0.01 -2.163,-0.01 h -4.418 z m 41.349,-2.01 6,3.01 -6.01,2.99 z" /><g
       id="g68"><g
         clip-path="url(#clipPath74)"
         id="g70"><text
           id="text78"
           style="font-variant:normal;font-weight:normal;font-size:9.96000004px;font-family:MalgunGothic;-inkscape-font-specification:MalgunGothic;writing-mode:lr-tb;fill:#000000;fill-opacity:1;fill-rule:nonzero;stroke:none"
           transform="matrix(1,0,0,-1,44.352,295.56)"><tspan
             id="tspan76"
             y="0"
             x="0 9.96 19.92">삭제할</tspan></text>
</g></g><g
       id="g80"><g
         clip-path="url(#clipPath86)"
         id="g82"><text
           id="text90"
           style="font-variant:normal;font-weight:normal;font-size:9.96000004px;font-family:ArialMT;-inkscape-font-specification:ArialMT;writing-mode:lr-tb;fill:#000000;fill-opacity:1;fill-rule:nonzero;stroke:none"
           transform="matrix(1,0,0,-1,77.112,295.56)"><tspan
             id="tspan88"
             y="0"
             x="0 7.1911201 12.72888 18.26664">Node</tspan></text>
</g></g><g
       id="g92"><g
         clip-path="url(#clipPath98)"
         id="g94"><text
           id="text102"
           style="font-variant:normal;font-weight:normal;font-size:12px;font-family:ArialMT;-inkscape-font-specification:ArialMT;writing-mode:lr-tb;fill:#000000;fill-opacity:1;fill-rule:nonzero;stroke:none"
           transform="matrix(1,0,0,-1,37.872,322.85)"><tspan
             id="tspan100"
             y="0"
             x="0 8.6639996 15.336 22.068001 28.775999">Head </tspan></text>
</g></g><g
       id="g104"><g
         clip-path="url(#clipPath110)"
         id="g106"><text
           id="text114"
           style="font-variant:normal;font-weight:normal;font-size:12px;font-family:MalgunGothic;-inkscape-font-specification:MalgunGothic;writing-mode:lr-tb;fill:#000000;fill-opacity:1;fill-rule:nonzero;stroke:none"
           transform="matrix(1,0,0,-1,69.792,322.85)"><tspan
             id="tspan112"
             y="0"
             x="0 12 24">포인터</tspan></text>
</g></g><g
       id="g116"><g
         clip-path="url(#clipPath122)"
         id="g118"><path
           id="path124"
           style="fill:#000000;fill-opacity:1;fill-rule:nonzero;stroke:none"
           d="m 72.691,316.26 -0.052,-0.4 -0.153,-0.44 -0.246,-0.42 -0.319,-0.4 -0.385,-0.37 -0.463,-0.37 -0.515,-0.35 -0.579,-0.34 -0.637,-0.34 -0.696,-0.32 -0.757,-0.31 -0.801,-0.32 -0.855,-0.29 -0.906,-0.29 -0.955,-0.28 -0.993,-0.27 -2.11,-0.5 -2.251,-0.45 -2.378,-0.4 -2.483,-0.33 -2.564,-0.28 -2.632,-0.2 -2.67,-0.12 -2.685,-0.04 -1.343,-0.03 h 0.02 l -1.335,-0.07 h 0.017 l -1.335,-0.12 h 0.017 l -1.32,-0.16 h 0.024 l -2.617,-0.46 0.032,0.01 -2.55,-0.62 h 0.03 l -2.468,-0.76 0.031,0.01 -2.362,-0.91 0.029,0.02 -2.235,-1.03 0.032,0.01 -2.093,-1.14 0.023,0.01 -0.983,-0.61 0.015,0.01 -0.945,-0.63 0.018,0.01 -0.893,-0.65 0.018,0.02 -0.84,-0.68 0.019,0.02 -0.788,-0.7 0.015,0.01 -0.743,-0.71 0.019,0.02 -0.675,-0.72 0.02,0.02 -0.615,-0.74 0.017,0.02 -0.555,-0.75 0.02,0.03 -0.488,-0.77 0.016,0.03 -0.428,-0.77 0.02,0.04 -0.345,-0.78 0.015,0.03 -0.278,-0.78 0.013,0.04 -0.202,-0.8 0.009,0.05 -0.12,-0.79 0.005,0.04 -0.045,-0.79 10e-4,0.04 0.022,-0.79 -0.002,0.03 0.082,-0.79 -0.003,0.03 0.127,-0.8 -0.005,0.03 0.172,-0.79 -0.006,0.03 0.217,-0.78 -0.009,0.03 0.27,-0.77 -0.013,0.03 0.652,-1.51 -0.022,0.04 0.817,-1.47 -0.024,0.04 0.96,-1.4 -0.027,0.03 1.095,-1.32 -0.027,0.03 1.208,-1.25 -0.031,0.03 1.312,-1.14 -0.032,0.03 1.41,-1.04 -0.036,0.02 1.493,-0.9 -0.039,0.02 1.553,-0.77 -0.087,0.04 1.706,-0.48 -0.27,-0.96 -1.75,0.49 -1.614,0.79 -1.53,0.93 -1.444,1.06 -1.344,1.17 -1.236,1.27 -1.122,1.36 -0.986,1.44 -0.841,1.52 -0.67,1.55 -0.281,0.81 -0.225,0.8 -0.179,0.82 -0.132,0.82 -0.086,0.83 -0.023,0.83 0.047,0.84 0.127,0.85 0.215,0.84 0.291,0.82 0.362,0.82 0.446,0.81 0.505,0.79 0.573,0.78 0.634,0.76 0.694,0.74 0.76,0.73 0.803,0.71 0.859,0.69 0.91,0.67 0.961,0.64 1.001,0.62 2.12,1.16 2.265,1.04 2.393,0.92 2.498,0.77 2.581,0.63 2.646,0.47 1.341,0.16 1.352,0.13 1.353,0.07 1.352,0.02 2.678,0.05 h -0.015 l 2.655,0.12 h -0.016 l 2.618,0.2 h -0.014 l 2.55,0.27 h -0.014 l 2.468,0.33 h -0.017 l 2.363,0.39 h -0.016 l 2.235,0.45 h -0.017 l 2.093,0.49 h -0.017 l 0.982,0.27 H 64.1 l 0.945,0.27 -0.015,-0.01 0.893,0.29 -0.012,-0.01 0.84,0.29 h -0.018 l 0.788,0.31 -0.01,-0.01 0.743,0.31 -0.02,-0.01 0.675,0.32 -0.021,-0.01 0.615,0.32 -0.024,-0.02 0.555,0.33 -0.024,-0.01 0.487,0.33 -0.029,-0.02 0.427,0.33 -0.04,-0.03 0.345,0.34 -0.04,-0.05 0.278,0.35 -0.042,-0.06 0.203,0.34 -0.041,-0.09 0.12,0.35 -0.024,-0.1 0.045,0.34 z M 27.708,279.07 33,274.94 26.527,273.18 Z" /></g></g><path
       id="path126"
       style="fill:none;stroke:#000000;stroke-width:1;stroke-linecap:butt;stroke-linejoin:round;stroke-miterlimit:10;stroke-dasharray:none;stroke-opacity:1"
       d="m 380.28,290.04 v -30.2" /><path
       id="path128"
       style="fill:none;stroke:#000000;stroke-width:1;stroke-linecap:butt;stroke-linejoin:round;stroke-miterlimit:10;stroke-dasharray:none;stroke-opacity:1"
       d="m 340.65,290.04 v -30.2" /><path
       id="path130"
       style="fill:none;stroke:#000000;stroke-width:1;stroke-linecap:butt;stroke-linejoin:round;stroke-miterlimit:10;stroke-dasharray:none;stroke-opacity:1"
       d="m 419.9,290.04 v -30.2" /><path
       id="path132"
       style="fill:none;stroke:#000000;stroke-width:1;stroke-linecap:butt;stroke-linejoin:round;stroke-miterlimit:10;stroke-dasharray:none;stroke-opacity:1"
       d="M 340.15,289.54 H 420.4" /><path
       id="path134"
       style="fill:none;stroke:#000000;stroke-width:1;stroke-linecap:butt;stroke-linejoin:round;stroke-miterlimit:10;stroke-dasharray:none;stroke-opacity:1"
       d="M 340.15,260.34 H 420.4" /><g
       id="g136"><g
         clip-path="url(#clipPath142)"
         id="g138"><text
           id="text146"
           style="font-variant:normal;font-weight:bold;font-size:18px;font-family:Arial;-inkscape-font-specification:Arial-BoldMT;writing-mode:lr-tb;fill:#000000;fill-opacity:1;fill-rule:nonzero;stroke:none"
           transform="matrix(1,0,0,-1,355.51,268.37)"><tspan
             id="tspan144"
             y="0"
             x="0">2</tspan></text>
</g></g><g
       id="g148"><g
         clip-path="url(#clipPath154)"
         id="g150"><text
           id="text158"
           style="font-variant:normal;font-weight:normal;font-size:12px;font-family:ArialMT;-inkscape-font-specification:ArialMT;writing-mode:lr-tb;fill:#000000;fill-opacity:1;fill-rule:nonzero;stroke:none"
           transform="matrix(1,0,0,-1,264.48,322.85)"><tspan
             id="tspan156"
             y="0"
             x="0 8.6639996 15.336 22.068001 28.775999">Head </tspan></text>
</g></g><g
       id="g160"><g
         clip-path="url(#clipPath166)"
         id="g162"><text
           id="text170"
           style="font-variant:normal;font-weight:normal;font-size:12px;font-family:MalgunGothic;-inkscape-font-specification:MalgunGothic;writing-mode:lr-tb;fill:#000000;fill-opacity:1;fill-rule:nonzero;stroke:none"
           transform="matrix(1,0,0,-1,296.42,322.85)"><tspan
             id="tspan168"
             y="0"
             x="0 12 24">포인터</tspan></text>
</g></g><g
       id="g172"><g
         clip-path="url(#clipPath178)"
         id="g174"><path
           id="path180"
           style="fill:#000000;fill-opacity:1;fill-rule:nonzero;stroke:none"
           d="m 299.34,316.29 -0.03,-0.6 -0.11,-0.62 -0.18,-0.61 -0.23,-0.6 -0.3,-0.6 -0.35,-0.58 -0.41,-0.58 -0.46,-0.56 -0.51,-0.55 -0.56,-0.54 -0.6,-0.52 -0.64,-0.51 -1.4,-0.97 -1.56,-0.9 -1.69,-0.84 -1.79,-0.74 -1.9,-0.66 -1.99,-0.55 -2.04,-0.45 -2.1,-0.34 -2.14,-0.2 -2.13,-0.07 v 0 l -2.12,-0.07 h 0.03 l -2.1,-0.23 0.04,0.01 -2.07,-0.36 h 0.03 l -2.02,-0.48 h 0.03 l -1.96,-0.6 0.03,0.02 -1.86,-0.72 0.02,0.02 -1.77,-0.81 0.03,0.01 -1.65,-0.89 0.03,0.02 -1.52,-0.98 0.03,0.02 -1.38,-1.05 0.03,0.02 -0.63,-0.54 0.02,0.02 -0.59,-0.56 0.03,0.03 -0.54,-0.57 0.02,0.02 -0.49,-0.59 0.02,0.02 -0.44,-0.58 0.02,0.03 -0.39,-0.6 0.02,0.03 -0.33,-0.61 0.01,0.03 -0.27,-0.61 0.01,0.04 -0.22,-0.62 0.02,0.04 -0.17,-0.62 0.01,0.05 -0.1,-0.62 0.01,0.05 -0.03,-0.62 v 0.04 l 0.02,-0.62 v 0.05 l 0.08,-0.63 -0.01,0.04 0.13,-0.62 -0.01,0.03 0.18,-0.62 -0.01,0.03 0.21,-0.61 -0.01,0.04 0.27,-0.61 -0.02,0.04 0.65,-1.19 -0.03,0.05 0.82,-1.15 -0.03,0.04 0.96,-1.11 -0.03,0.04 1.09,-1.05 -0.03,0.03 1.21,-0.97 -0.03,0.02 1.31,-0.9 -0.03,0.02 1.41,-0.81 -0.04,0.02 1.5,-0.71 -0.04,0.01 1.55,-0.6 -0.07,0.02 1.67,-0.36 -0.21,-0.98 -1.71,0.37 -1.61,0.63 -1.53,0.72 -1.44,0.83 -1.34,0.93 -1.24,1 -1.13,1.07 -0.99,1.14 -0.85,1.19 -0.68,1.24 -0.28,0.64 -0.23,0.64 -0.18,0.66 -0.14,0.65 -0.09,0.67 -0.02,0.67 0.03,0.67 0.11,0.67 0.17,0.67 0.24,0.65 0.29,0.65 0.35,0.64 0.41,0.63 0.46,0.61 0.5,0.61 0.55,0.59 0.61,0.57 0.64,0.56 1.41,1.07 1.56,1 1.68,0.91 1.8,0.82 1.9,0.73 1.99,0.6 2.05,0.5 2.1,0.37 2.13,0.22 2.15,0.08 2.11,0.07 h -0.03 l 2.11,0.2 -0.03,-0.01 2.07,0.33 h -0.03 l 2.02,0.44 -0.03,-0.01 1.96,0.55 -0.03,-0.01 1.86,0.65 -0.02,-0.01 1.77,0.73 -0.03,-0.01 1.65,0.82 -0.03,-0.02 1.53,0.88 -0.04,-0.02 1.37,0.96 -0.02,-0.02 0.62,0.49 -0.01,-0.01 0.58,0.5 -0.02,-0.02 0.53,0.52 -0.02,-0.02 0.5,0.53 -0.02,-0.02 0.43,0.53 -0.02,-0.02 0.39,0.54 -0.02,-0.03 0.33,0.55 -0.02,-0.04 0.28,0.56 -0.02,-0.04 0.22,0.56 -0.02,-0.04 0.17,0.57 -0.01,-0.06 0.09,0.57 v -0.06 l 0.03,0.57 z m -33.24,-34.85 5.46,-3.9 -6.4,-2.02 z" /></g></g><g
       id="g182"><g
         clip-path="url(#clipPath188)"
         id="g184"><text
           id="text192"
           style="font-variant:normal;font-weight:normal;font-size:18px;font-family:ArialMT;-inkscape-font-specification:ArialMT;writing-mode:lr-tb;fill:#000000;fill-opacity:1;fill-rule:nonzero;stroke:none"
           transform="matrix(1,0,0,-1,278.76,270.91)"><tspan
             id="tspan190"
             y="0"
             x="0 9.96 19.92">???</tspan></text>
</g></g><path
       id="path194"
       style="fill:none;stroke:#000000;stroke-width:1;stroke-linecap:butt;stroke-linejoin:round;stroke-miterlimit:10;stroke-dasharray:none;stroke-opacity:1"
       d="m 514.84,290.04 v -30.2" /><path
       id="path196"
       style="fill:none;stroke:#000000;stroke-width:1;stroke-linecap:butt;stroke-linejoin:round;stroke-miterlimit:10;stroke-dasharray:none;stroke-opacity:1"
       d="m 475.22,290.04 v -30.2" /><path
       id="path198"
       style="fill:none;stroke:#000000;stroke-width:1;stroke-linecap:butt;stroke-linejoin:round;stroke-miterlimit:10;stroke-dasharray:none;stroke-opacity:1"
       d="m 554.47,290.04 v -30.2" /><path
       id="path200"
       style="fill:none;stroke:#000000;stroke-width:1;stroke-linecap:butt;stroke-linejoin:round;stroke-miterlimit:10;stroke-dasharray:none;stroke-opacity:1"
       d="m 474.72,289.54 h 80.25" /><path
       id="path202"
       style="fill:none;stroke:#000000;stroke-width:1;stroke-linecap:butt;stroke-linejoin:round;stroke-miterlimit:10;stroke-dasharray:none;stroke-opacity:1"
       d="m 474.72,260.34 h 80.25" /><g
       id="g204"><g
         clip-path="url(#clipPath210)"
         id="g206"><text
           id="text214"
           style="font-variant:normal;font-weight:bold;font-size:18px;font-family:Arial;-inkscape-font-specification:Arial-BoldMT;writing-mode:lr-tb;fill:#000000;fill-opacity:1;fill-rule:nonzero;stroke:none"
           transform="matrix(1,0,0,-1,490.1,268.37)"><tspan
             id="tspan212"
             y="0"
             x="0">2</tspan></text>
</g></g><g
       id="g216"><g
         clip-path="url(#clipPath222)"
         id="g218"><text
           id="text226"
           style="font-variant:normal;font-weight:normal;font-size:12px;font-family:ArialMT;-inkscape-font-specification:ArialMT;writing-mode:lr-tb;fill:#000000;fill-opacity:1;fill-rule:nonzero;stroke:none"
           transform="matrix(1,0,0,-1,482.47,322.85)"><tspan
             id="tspan224"
             y="0"
             x="0 8.6639996 15.336 22.068001 28.775999">Head </tspan></text>
</g></g><g
       id="g228"><g
         clip-path="url(#clipPath234)"
         id="g230"><text
           id="text238"
           style="font-variant:normal;font-weight:normal;font-size:12px;font-family:MalgunGothic;-inkscape-font-specification:MalgunGothic;writing-mode:lr-tb;fill:#000000;fill-opacity:1;fill-rule:nonzero;stroke:none"
           transform="matrix(1,0,0,-1,514.42,322.85)"><tspan
             id="tspan236"
             y="0"
             x="0 12 24">포인터</tspan></text>
</g></g><g
       id="g240"><g
         clip-path="url(#clipPath246)"
         id="g242"><path
           id="path248"
           style="fill:#000000;fill-opacity:1;fill-rule:nonzero;stroke:none"
           d="m 517.24,316.28 -0.05,-0.66 -0.14,-0.68 -0.22,-0.68 -0.31,-0.67 -0.39,-0.66 -0.46,-0.64 -0.54,-0.63 -0.6,-0.62 -0.66,-0.6 -0.73,-0.59 -0.78,-0.58 -0.85,-0.56 -0.89,-0.53 -0.95,-0.53 -0.99,-0.51 -1.04,-0.49 -2.2,-0.91 -2.35,-0.82 -2.49,-0.72 -2.59,-0.61 -2.68,-0.5 -2.75,-0.36 -2.79,-0.22 -2.8,-0.08 -2.79,-0.09 h 0.03 l -2.76,-0.23 h 0.02 l -2.72,-0.37 h 0.03 l -2.67,-0.51 0.03,0.01 -2.56,-0.64 0.02,0.01 -2.46,-0.74 0.03,0.01 -2.34,-0.86 0.03,0.01 -2.17,-0.94 0.02,0.01 -1.03,-0.5 0.01,0.01 -0.97,-0.52 0.02,0.01 -0.93,-0.54 0.01,0.01 -0.88,-0.56 0.02,0.02 -0.82,-0.57 0.02,0.01 -0.77,-0.58 0.02,0.01 -0.7,-0.6 0.02,0.02 -0.65,-0.61 0.02,0.02 -0.57,-0.62 0.02,0.03 -0.51,-0.63 0.02,0.03 -0.43,-0.64 0.02,0.04 -0.37,-0.64 0.03,0.05 -0.29,-0.66 0.02,0.05 -0.21,-0.64 0.01,0.06 -0.12,-0.66 v 0.06 l -0.04,-0.66 v 0.05 l 0.02,-0.65 v 0.05 l 0.08,-0.66 v 0.03 l 0.12,-0.65 v 0.03 l 0.17,-0.64 -0.01,0.03 0.22,-0.65 -0.02,0.04 0.27,-0.64 -0.01,0.04 0.65,-1.25 -0.03,0.05 0.82,-1.21 -0.03,0.04 0.96,-1.15 -0.03,0.03 1.09,-1.09 -0.03,0.02 1.21,-1.02 -0.03,0.02 1.31,-0.94 -0.03,0.03 1.41,-0.86 -0.04,0.02 1.49,-0.74 -0.03,0.01 1.55,-0.63 -0.08,0.02 1.68,-0.38 -0.22,-0.98 -1.72,0.39 -1.61,0.66 -1.52,0.76 -1.45,0.88 -1.34,0.96 -1.24,1.05 -1.13,1.13 -0.99,1.19 -0.84,1.25 -0.68,1.29 -0.29,0.67 -0.22,0.68 -0.18,0.68 -0.14,0.69 -0.09,0.7 -0.02,0.7 0.05,0.7 0.14,0.73 0.22,0.69 0.31,0.7 0.39,0.68 0.46,0.67 0.53,0.66 0.6,0.65 0.67,0.63 0.72,0.61 0.79,0.6 0.84,0.58 0.9,0.57 0.94,0.55 0.99,0.53 1.05,0.51 2.2,0.94 2.36,0.87 2.48,0.75 2.59,0.64 2.69,0.52 2.75,0.38 2.79,0.23 2.8,0.08 2.79,0.09 h -0.02 l 2.76,0.21 h -0.03 l 2.72,0.36 h -0.02 l 2.65,0.49 h -0.02 l 2.57,0.6 -0.03,-0.01 2.46,0.72 -0.02,-0.01 2.33,0.81 -0.03,-0.01 2.17,0.9 -0.02,-0.01 1.03,0.48 -0.02,-0.01 0.98,0.51 -0.02,-0.01 0.93,0.52 -0.01,-0.01 0.88,0.52 -0.02,-0.01 0.82,0.55 -0.02,-0.01 0.77,0.56 -0.02,-0.02 0.71,0.57 -0.03,-0.01 0.65,0.58 -0.02,-0.02 0.57,0.59 -0.02,-0.03 0.51,0.61 -0.02,-0.03 0.43,0.61 -0.02,-0.04 0.37,0.62 -0.03,-0.05 0.29,0.62 -0.02,-0.05 0.21,0.63 -0.02,-0.06 0.13,0.62 -0.01,-0.06 0.04,0.63 z m -47.47,-37.4 5.43,-3.94 -6.41,-1.98 z" /></g></g></g></svg>