<?xml version="1.0" encoding="UTF-8" standalone="no"?>
<svg
   xmlns:dc="http://purl.org/dc/elements/1.1/"
   xmlns:cc="http://creativecommons.org/ns#"
   xmlns:rdf="http://www.w3.org/1999/02/22-rdf-syntax-ns#"
   xmlns:svg="http://www.w3.org/2000/svg"
   xmlns="http://www.w3.org/2000/svg"
   viewBox="83 230 854 158"
   height="158"
   width="854"
   xml:space="preserve"
   id="svg2"
   version="1.1"><metadata
     id="metadata8"><rdf:RDF><cc:Work
         rdf:about=""><dc:format>image/svg+xml</dc:format><dc:type
           rdf:resource="http://purl.org/dc/dcmitype/StillImage" /></cc:Work></rdf:RDF></metadata><defs
     id="defs6"><clipPath
       id="clipPath18"
       clipPathUnits="userSpaceOnUse"><path
         style="clip-rule:evenodd"
         id="path16"
         d="M 0,1.2207e-4 H 960 V 540.00012 H 0 Z" /></clipPath><clipPath
       id="clipPath38"
       clipPathUnits="userSpaceOnUse"><path
         style="clip-rule:evenodd"
         id="path36"
         d="M 1.4305e-5,0 H 960.00001 V 540 H 1.4305e-5 Z" /></clipPath><clipPath
       id="clipPath60"
       clipPathUnits="userSpaceOnUse"><path
         style="clip-rule:evenodd"
         id="path58"
         d="M 1.4305e-5,0 H 960.00001 V 540 H 1.4305e-5 Z" /></clipPath><clipPath
       id="clipPath82"
       clipPathUnits="userSpaceOnUse"><path
         style="clip-rule:evenodd"
         id="path80"
         d="M 1.4305e-5,0 H 960.00001 V 540 H 1.4305e-5 Z" /></clipPath><clipPath
       id="clipPath94"
       clipPathUnits="userSpaceOnUse"><path
         style="clip-rule:evenodd"
         id="path92"
         d="M 1.4305e-5,0 H 960.00001 V 540 H 1.4305e-5 Z" /></clipPath><clipPath
       id="clipPath118"
       clipPathUnits="userSpaceOnUse"><path
         style="clip-rule:evenodd"
         id="path116"
         d="M 1.4305e-5,0 H 960.00001 V 540 H 1.4305e-5 Z" /></clipPath><clipPath
       id="clipPath140"
       clipPathUnits="userSpaceOnUse"><path
         style="clip-rule:evenodd"
         id="path138"
         d="M 1.4305e-5,0 H 960.00001 V 540 H 1.4305e-5 Z" /></clipPath><clipPath
       id="clipPath162"
       clipPathUnits="userSpaceOnUse"><path
         style="clip-rule:evenodd"
         id="path160"
         d="M 1.4305e-5,0 H 960.00001 V 540 H 1.4305e-5 Z" /></clipPath><clipPath
       id="clipPath174"
       clipPathUnits="userSpaceOnUse"><path
         style="clip-rule:evenodd"
         id="path172"
         d="M 1.4305e-5,0 H 960.00001 V 540 H 1.4305e-5 Z" /></clipPath><clipPath
       id="clipPath188"
       clipPathUnits="userSpaceOnUse"><path
         style="clip-rule:evenodd"
         id="path186"
         d="M 6.1035e-5,540 H 960 V 1.8311e-4 H 9.1553e-5" /></clipPath><clipPath
       id="clipPath208"
       clipPathUnits="userSpaceOnUse"><path
         style="clip-rule:evenodd"
         id="path206"
         d="M 1.4305e-5,0 H 960.00001 V 540 H 1.4305e-5 Z" /></clipPath><clipPath
       id="clipPath230"
       clipPathUnits="userSpaceOnUse"><path
         style="clip-rule:evenodd"
         id="path228"
         d="M 1.4305e-5,0 H 960.00001 V 540 H 1.4305e-5 Z" /></clipPath><clipPath
       id="clipPath252"
       clipPathUnits="userSpaceOnUse"><path
         style="clip-rule:evenodd"
         id="path250"
         d="M 1.4305e-5,0 H 960.00001 V 540 H 1.4305e-5 Z" /></clipPath><clipPath
       id="clipPath264"
       clipPathUnits="userSpaceOnUse"><path
         style="clip-rule:evenodd"
         id="path262"
         d="M 1.4305e-5,0 H 960.00001 V 540 H 1.4305e-5 Z" /></clipPath><clipPath
       id="clipPath276"
       clipPathUnits="userSpaceOnUse"><path
         style="clip-rule:evenodd"
         id="path274"
         d="M -1.8311e-4,540 H 960 V 6.1035e-5 H -1.2207e-4" /></clipPath><clipPath
       id="clipPath286"
       clipPathUnits="userSpaceOnUse"><path
         style="clip-rule:evenodd"
         id="path284"
         d="M 0,540 H 960 V 1.8311e-4 H 6.1035e-5" /></clipPath><clipPath
       id="clipPath296"
       clipPathUnits="userSpaceOnUse"><path
         style="clip-rule:evenodd"
         id="path294"
         d="M 1.4305e-5,0 H 960.00001 V 540 H 1.4305e-5 Z" /></clipPath><clipPath
       id="clipPath308"
       clipPathUnits="userSpaceOnUse"><path
         style="clip-rule:evenodd"
         id="path306"
         d="M 1.4305e-5,0 H 960.00001 V 540 H 1.4305e-5 Z" /></clipPath><clipPath
       id="clipPath320"
       clipPathUnits="userSpaceOnUse"><path
         style="clip-rule:evenodd"
         id="path318"
         d="M 1.4305e-5,0 H 960.00001 V 540 H 1.4305e-5 Z" /></clipPath><clipPath
       id="clipPath332"
       clipPathUnits="userSpaceOnUse"><path
         style="clip-rule:evenodd"
         id="path330"
         d="M 1.4305e-5,0 H 960.00001 V 540 H 1.4305e-5 Z" /></clipPath><clipPath
       id="clipPath344"
       clipPathUnits="userSpaceOnUse"><path
         style="clip-rule:evenodd"
         id="path342"
         d="M 1.4305e-5,0 H 960.00001 V 540 H 1.4305e-5 Z" /></clipPath><clipPath
       id="clipPath356"
       clipPathUnits="userSpaceOnUse"><path
         style="clip-rule:evenodd"
         id="path354"
         d="M 1.4305e-5,0 H 960.00001 V 540 H 1.4305e-5 Z" /></clipPath></defs><g
     transform="matrix(1.3333333,0,0,-1.3333333,0,720)"
     id="g10"><g
       id="g12"><g
         clip-path="url(#clipPath18)"
         id="g14"><path
           id="path20"
           style="fill:#ffffff;fill-opacity:1;fill-rule:evenodd;stroke:none"
           d="M 0,6.1035e-5 H 960 V 540.00006 H 0 Z" /></g></g><path
       id="path22"
       style="fill:none;stroke:#000000;stroke-width:1;stroke-linecap:butt;stroke-linejoin:round;stroke-miterlimit:10;stroke-dasharray:none;stroke-opacity:1"
       d="M 115.63,285.1 V 254.9" /><path
       id="path24"
       style="fill:none;stroke:#000000;stroke-width:1;stroke-linecap:butt;stroke-linejoin:round;stroke-miterlimit:10;stroke-dasharray:none;stroke-opacity:1"
       d="M 76,285.1 V 254.9" /><path
       id="path26"
       style="fill:none;stroke:#000000;stroke-width:1;stroke-linecap:butt;stroke-linejoin:round;stroke-miterlimit:10;stroke-dasharray:none;stroke-opacity:1"
       d="M 155.25,285.1 V 254.9" /><path
       id="path28"
       style="fill:none;stroke:#000000;stroke-width:1;stroke-linecap:butt;stroke-linejoin:round;stroke-miterlimit:10;stroke-dasharray:none;stroke-opacity:1"
       d="m 75.5,284.6 h 80.25" /><path
       id="path30"
       style="fill:none;stroke:#000000;stroke-width:1;stroke-linecap:butt;stroke-linejoin:round;stroke-miterlimit:10;stroke-dasharray:none;stroke-opacity:1"
       d="m 75.5,255.4 h 80.25" /><g
       id="g32"><g
         clip-path="url(#clipPath38)"
         id="g34"><text
           id="text42"
           style="font-variant:normal;font-weight:bold;font-size:18px;font-family:Arial;-inkscape-font-specification:Arial-BoldMT;writing-mode:lr-tb;fill:#000000;fill-opacity:1;fill-rule:nonzero;stroke:none"
           transform="matrix(1,0,0,-1,90.816,263.42)"><tspan
             id="tspan40"
             y="0"
             x="0">1</tspan></text>
</g></g><path
       id="path44"
       style="fill:none;stroke:#000000;stroke-width:1;stroke-linecap:butt;stroke-linejoin:round;stroke-miterlimit:10;stroke-dasharray:none;stroke-opacity:1"
       d="M 222.88,285.1 V 254.9" /><path
       id="path46"
       style="fill:none;stroke:#000000;stroke-width:1;stroke-linecap:butt;stroke-linejoin:round;stroke-miterlimit:10;stroke-dasharray:none;stroke-opacity:1"
       d="M 183.25,285.1 V 254.9" /><path
       id="path48"
       style="fill:none;stroke:#000000;stroke-width:1;stroke-linecap:butt;stroke-linejoin:round;stroke-miterlimit:10;stroke-dasharray:none;stroke-opacity:1"
       d="M 262.5,285.1 V 254.9" /><path
       id="path50"
       style="fill:none;stroke:#000000;stroke-width:1;stroke-linecap:butt;stroke-linejoin:round;stroke-miterlimit:10;stroke-dasharray:none;stroke-opacity:1"
       d="M 182.75,284.6 H 263" /><path
       id="path52"
       style="fill:none;stroke:#000000;stroke-width:1;stroke-linecap:butt;stroke-linejoin:round;stroke-miterlimit:10;stroke-dasharray:none;stroke-opacity:1"
       d="M 182.75,255.4 H 263" /><g
       id="g54"><g
         clip-path="url(#clipPath60)"
         id="g56"><text
           id="text64"
           style="font-variant:normal;font-weight:bold;font-size:18px;font-family:Arial;-inkscape-font-specification:Arial-BoldMT;writing-mode:lr-tb;fill:#000000;fill-opacity:1;fill-rule:nonzero;stroke:none"
           transform="matrix(1,0,0,-1,198.1,263.42)"><tspan
             id="tspan62"
             y="0"
             x="0">2</tspan></text>
</g></g><path
       id="path66"
       style="fill:none;stroke:#000000;stroke-width:1;stroke-linecap:butt;stroke-linejoin:round;stroke-miterlimit:10;stroke-dasharray:none;stroke-opacity:1"
       d="m 168.65,344.41 v -30.2" /><path
       id="path68"
       style="fill:none;stroke:#000000;stroke-width:1;stroke-linecap:butt;stroke-linejoin:round;stroke-miterlimit:10;stroke-dasharray:none;stroke-opacity:1"
       d="m 129.02,344.41 v -30.2" /><path
       id="path70"
       style="fill:none;stroke:#000000;stroke-width:1;stroke-linecap:butt;stroke-linejoin:round;stroke-miterlimit:10;stroke-dasharray:none;stroke-opacity:1"
       d="m 208.27,344.41 v -30.2" /><path
       id="path72"
       style="fill:none;stroke:#000000;stroke-width:1;stroke-linecap:butt;stroke-linejoin:round;stroke-miterlimit:10;stroke-dasharray:none;stroke-opacity:1"
       d="m 128.52,343.91 h 80.25" /><path
       id="path74"
       style="fill:none;stroke:#000000;stroke-width:1;stroke-linecap:butt;stroke-linejoin:round;stroke-miterlimit:10;stroke-dasharray:none;stroke-opacity:1"
       d="m 128.52,314.71 h 80.25" /><g
       id="g76"><g
         clip-path="url(#clipPath82)"
         id="g78"><text
           id="text86"
           style="font-variant:normal;font-weight:bold;font-size:9.96000004px;font-family:MalgunGothicBold;-inkscape-font-specification:MalgunGothicBold;writing-mode:lr-tb;fill:#000000;fill-opacity:1;fill-rule:nonzero;stroke:none"
           transform="matrix(1,0,0,-1,137.5,330.55)"><tspan
             id="tspan84"
             y="0"
             x="0">새</tspan></text>
</g></g><g
       id="g88"><g
         clip-path="url(#clipPath94)"
         id="g90"><text
           id="text98"
           style="font-variant:normal;font-weight:bold;font-size:9.96000004px;font-family:MalgunGothicBold;-inkscape-font-specification:MalgunGothicBold;writing-mode:lr-tb;fill:#000000;fill-opacity:1;fill-rule:nonzero;stroke:none"
           transform="matrix(1,0,0,-1,150.22,330.55)"><tspan
             id="tspan96"
             y="0"
             x="0">값</tspan></text>
</g></g><path
       id="path100"
       style="fill:#000000;fill-opacity:1;fill-rule:nonzero;stroke:none"
       d="m 137.4,270.5 4.28,-0.02 h 2.1 l 2.05,-0.03 1.98,-0.02 1.89,-0.02 1.8,-0.04 1.68,-0.03 1.53,-0.04 1.4,-0.03 0.64,-0.03 0.59,-0.02 0.54,-0.02 0.5,-0.02 0.45,-0.03 0.4,-0.02 0.34,-0.02 0.29,-0.02 0.24,-0.03 0.18,-0.02 0.23,-0.05 0.12,-0.09 0.03,-0.02 -0.2,0.08 0.11,-0.02 -0.04,0.01 0.16,-0.03 -0.02,0.01 0.22,-0.02 v 0 l 0.27,-0.03 v 0 l 0.33,-0.02 v 0 l 0.39,-0.02 h -0.01 l 0.45,-0.02 v 0 l 0.5,-0.03 v 0 l 0.54,-0.02 h -0.01 l 0.6,-0.02 0.63,-0.02 h -0.01 l 1.39,-0.04 1.54,-0.04 v 0 l 1.67,-0.03 1.8,-0.03 1.89,-0.03 v 0 l 1.98,-0.02 v 0 l 2.04,-0.02 h 1.37 l -0.01,-1 h -1.36 l -2.05,0.02 -1.98,0.02 -1.9,0.03 -1.8,0.03 -1.67,0.03 -1.55,0.04 -1.39,0.04 -0.63,0.02 -0.59,0.02 -0.55,0.03 -0.49,0.02 -0.46,0.02 -0.39,0.02 -0.34,0.03 -0.29,0.02 -0.24,0.02 -0.19,0.03 -0.22,0.05 -0.12,0.09 -0.03,0.02 0.19,-0.09 -0.1,0.02 h 0.03 l -0.16,0.02 h 0.03 l -0.23,0.02 h 0.01 l -0.28,0.02 h 0.01 l -0.34,0.02 h 0.01 l -0.39,0.03 v 0 l -0.45,0.02 v 0 l -0.49,0.02 v 0 l -0.54,0.02 v 0 l -0.59,0.03 -0.63,0.02 v 0 l -1.39,0.04 -1.54,0.03 h 0.01 l -1.69,0.03 -1.79,0.04 h 0.01 l -1.89,0.02 -1.98,0.03 -2.05,0.02 v 0 l -2.1,0.01 -4.27,0.01 z m 39.86,1.52 5.99,-3.02 -6.02,-2.98 z" /><path
       id="path102"
       style="fill:none;stroke:#000000;stroke-width:1;stroke-linecap:butt;stroke-linejoin:round;stroke-miterlimit:10;stroke-dasharray:none;stroke-opacity:1"
       d="M 332.15,285.1 V 254.9" /><path
       id="path104"
       style="fill:none;stroke:#000000;stroke-width:1;stroke-linecap:butt;stroke-linejoin:round;stroke-miterlimit:10;stroke-dasharray:none;stroke-opacity:1"
       d="M 292.52,285.1 V 254.9" /><path
       id="path106"
       style="fill:none;stroke:#000000;stroke-width:1;stroke-linecap:butt;stroke-linejoin:round;stroke-miterlimit:10;stroke-dasharray:none;stroke-opacity:1"
       d="M 371.77,285.1 V 254.9" /><path
       id="path108"
       style="fill:none;stroke:#000000;stroke-width:1;stroke-linecap:butt;stroke-linejoin:round;stroke-miterlimit:10;stroke-dasharray:none;stroke-opacity:1"
       d="m 292.02,284.6 h 80.25" /><path
       id="path110"
       style="fill:none;stroke:#000000;stroke-width:1;stroke-linecap:butt;stroke-linejoin:round;stroke-miterlimit:10;stroke-dasharray:none;stroke-opacity:1"
       d="m 292.02,255.4 h 80.25" /><g
       id="g112"><g
         clip-path="url(#clipPath118)"
         id="g114"><text
           id="text122"
           style="font-variant:normal;font-weight:bold;font-size:18px;font-family:Arial;-inkscape-font-specification:Arial-BoldMT;writing-mode:lr-tb;fill:#000000;fill-opacity:1;fill-rule:nonzero;stroke:none"
           transform="matrix(1,0,0,-1,307.37,263.42)"><tspan
             id="tspan120"
             y="0"
             x="0">1</tspan></text>
</g></g><path
       id="path124"
       style="fill:none;stroke:#000000;stroke-width:1;stroke-linecap:butt;stroke-linejoin:round;stroke-miterlimit:10;stroke-dasharray:none;stroke-opacity:1"
       d="M 439.4,285.1 V 254.9" /><path
       id="path126"
       style="fill:none;stroke:#000000;stroke-width:1;stroke-linecap:butt;stroke-linejoin:round;stroke-miterlimit:10;stroke-dasharray:none;stroke-opacity:1"
       d="M 399.77,285.1 V 254.9" /><path
       id="path128"
       style="fill:none;stroke:#000000;stroke-width:1;stroke-linecap:butt;stroke-linejoin:round;stroke-miterlimit:10;stroke-dasharray:none;stroke-opacity:1"
       d="M 479.02,285.1 V 254.9" /><path
       id="path130"
       style="fill:none;stroke:#000000;stroke-width:1;stroke-linecap:butt;stroke-linejoin:round;stroke-miterlimit:10;stroke-dasharray:none;stroke-opacity:1"
       d="m 399.27,284.6 h 80.25" /><path
       id="path132"
       style="fill:none;stroke:#000000;stroke-width:1;stroke-linecap:butt;stroke-linejoin:round;stroke-miterlimit:10;stroke-dasharray:none;stroke-opacity:1"
       d="m 399.27,255.4 h 80.25" /><g
       id="g134"><g
         clip-path="url(#clipPath140)"
         id="g136"><text
           id="text144"
           style="font-variant:normal;font-weight:bold;font-size:18px;font-family:Arial;-inkscape-font-specification:Arial-BoldMT;writing-mode:lr-tb;fill:#000000;fill-opacity:1;fill-rule:nonzero;stroke:none"
           transform="matrix(1,0,0,-1,414.65,263.42)"><tspan
             id="tspan142"
             y="0"
             x="0">2</tspan></text>
</g></g><path
       id="path146"
       style="fill:none;stroke:#000000;stroke-width:1;stroke-linecap:butt;stroke-linejoin:round;stroke-miterlimit:10;stroke-dasharray:none;stroke-opacity:1"
       d="m 385.17,344.41 v -30.2" /><path
       id="path148"
       style="fill:none;stroke:#000000;stroke-width:1;stroke-linecap:butt;stroke-linejoin:round;stroke-miterlimit:10;stroke-dasharray:none;stroke-opacity:1"
       d="m 345.54,344.41 v -30.2" /><path
       id="path150"
       style="fill:none;stroke:#000000;stroke-width:1;stroke-linecap:butt;stroke-linejoin:round;stroke-miterlimit:10;stroke-dasharray:none;stroke-opacity:1"
       d="m 424.79,344.41 v -30.2" /><path
       id="path152"
       style="fill:none;stroke:#000000;stroke-width:1;stroke-linecap:butt;stroke-linejoin:round;stroke-miterlimit:10;stroke-dasharray:none;stroke-opacity:1"
       d="m 345.04,343.91 h 80.25" /><path
       id="path154"
       style="fill:none;stroke:#000000;stroke-width:1;stroke-linecap:butt;stroke-linejoin:round;stroke-miterlimit:10;stroke-dasharray:none;stroke-opacity:1"
       d="m 345.04,314.71 h 80.25" /><g
       id="g156"><g
         clip-path="url(#clipPath162)"
         id="g158"><text
           id="text166"
           style="font-variant:normal;font-weight:bold;font-size:9.96000004px;font-family:MalgunGothicBold;-inkscape-font-specification:MalgunGothicBold;writing-mode:lr-tb;fill:#000000;fill-opacity:1;fill-rule:nonzero;stroke:none"
           transform="matrix(1,0,0,-1,354.05,330.55)"><tspan
             id="tspan164"
             y="0"
             x="0">새</tspan></text>
</g></g><g
       id="g168"><g
         clip-path="url(#clipPath174)"
         id="g170"><text
           id="text178"
           style="font-variant:normal;font-weight:bold;font-size:9.96000004px;font-family:MalgunGothicBold;-inkscape-font-specification:MalgunGothicBold;writing-mode:lr-tb;fill:#000000;fill-opacity:1;fill-rule:nonzero;stroke:none"
           transform="matrix(1,0,0,-1,366.77,330.55)"><tspan
             id="tspan176"
             y="0"
             x="0">값</tspan></text>
</g></g><path
       id="path180"
       style="fill:#000000;fill-opacity:1;fill-rule:nonzero;stroke:none"
       d="m 353.88,270.5 4.28,-0.02 h 2.1 l 2.05,-0.03 1.98,-0.02 1.89,-0.02 1.8,-0.04 1.68,-0.03 1.53,-0.04 1.4,-0.03 0.64,-0.03 0.59,-0.02 0.54,-0.02 0.5,-0.02 0.45,-0.03 0.4,-0.02 0.34,-0.02 0.29,-0.02 0.24,-0.03 0.18,-0.02 0.23,-0.05 0.12,-0.09 0.03,-0.02 -0.2,0.08 0.11,-0.02 -0.04,0.01 0.16,-0.03 -0.02,0.01 0.22,-0.02 v 0 l 0.27,-0.03 v 0 l 0.33,-0.02 v 0 l 0.39,-0.02 h -0.01 l 0.45,-0.02 v 0 l 0.5,-0.03 v 0 l 0.54,-0.02 h -0.01 l 0.6,-0.02 0.63,-0.02 h -0.01 l 1.39,-0.04 1.54,-0.04 v 0 l 1.67,-0.03 1.8,-0.03 1.89,-0.03 v 0 l 1.98,-0.02 v 0 l 2.04,-0.02 h 1.37 l -0.01,-1 h -1.36 l -2.05,0.02 -1.98,0.02 -1.9,0.03 -1.8,0.03 -1.67,0.03 -1.55,0.04 -1.39,0.04 -0.63,0.02 -0.59,0.02 -0.55,0.03 -0.49,0.02 -0.46,0.02 -0.39,0.02 -0.34,0.03 -0.29,0.02 -0.24,0.02 -0.19,0.03 -0.22,0.05 -0.12,0.09 -0.03,0.02 0.19,-0.09 -0.1,0.02 h 0.03 l -0.16,0.02 h 0.03 l -0.23,0.02 h 0.01 l -0.28,0.02 h 0.01 l -0.34,0.02 h 0.01 l -0.39,0.03 v 0 l -0.45,0.02 v 0 l -0.49,0.02 v 0 l -0.54,0.02 v 0 l -0.59,0.03 -0.63,0.02 v 0 l -1.39,0.04 -1.54,0.03 h 0.01 l -1.69,0.03 -1.79,0.04 h 0.01 l -1.89,0.02 -1.98,0.03 -2.05,0.02 v 0 l -2.1,0.01 -4.27,0.01 z m 39.86,1.52 5.99,-3.02 -6.02,-2.98 z" /><g
       id="g182"><g
         clip-path="url(#clipPath188)"
         id="g184"><path
           id="path190"
           style="fill:#000000;fill-opacity:1;fill-rule:nonzero;stroke:none"
           d="m 402.32,328.19 -0.06,-2.06 -0.17,-2.05 -0.27,-2.02 -0.37,-1.98 -0.47,-1.9 -0.54,-1.83 -0.62,-1.73 -0.69,-1.62 -0.75,-1.5 -0.81,-1.36 -0.84,-1.19 -0.46,-0.54 -0.45,-0.5 -0.47,-0.44 -0.49,-0.4 -0.49,-0.34 -0.49,-0.3 -0.52,-0.23 -0.53,-0.17 -0.52,-0.11 -0.51,-0.03 -0.47,-0.03 0.05,0.01 -0.47,-0.08 0.05,0.01 -0.47,-0.13 0.04,0.02 -0.46,-0.17 0.04,0.01 -0.46,-0.22 0.04,0.02 -0.45,-0.27 0.04,0.03 -0.9,-0.66 0.04,0.04 -0.87,-0.83 0.04,0.04 -0.82,-0.97 0.02,0.03 -0.79,-1.1 0.03,0.03 -0.74,-1.22 0.02,0.03 -0.68,-1.34 0.02,0.03 -0.62,-1.42 0.01,0.03 -0.53,-1.5 0.01,0.03 -0.46,-1.58 0.01,0.03 -0.37,-1.62 0.01,0.03 -0.27,-1.67 v 0.04 l -0.16,-1.7 v 0.03 l -0.06,-1.7 v 0.03 l 0.02,-0.85 v 0.03 l 0.08,-0.85 v 0.03 l 0.13,-0.85 -0.01,0.03 0.18,-0.85 -0.01,0.03 0.22,-0.84 -0.01,0.03 0.27,-0.83 -0.01,0.03 0.65,-1.62 -0.02,0.05 0.82,-1.58 -0.03,0.04 0.96,-1.5 -0.02,0.03 1.09,-1.42 -0.02,0.03 1.21,-1.33 -0.03,0.03 1.31,-1.23 -0.03,0.03 1.41,-1.1 -0.04,0.02 1.49,-0.97 -0.04,0.02 1.56,-0.82 -0.09,0.04 1.72,-0.52 -0.29,-0.95 -1.77,0.53 -1.61,0.85 -1.53,1 -1.45,1.13 -1.34,1.25 -1.24,1.36 -1.12,1.46 -0.98,1.54 -0.84,1.62 -0.67,1.65 -0.28,0.87 -0.22,0.86 -0.18,0.87 -0.13,0.87 -0.09,0.88 -0.02,0.89 0.06,1.73 0.17,1.73 0.27,1.7 0.38,1.65 0.46,1.6 0.55,1.53 0.62,1.45 0.69,1.37 0.76,1.25 0.81,1.14 0.86,1.01 0.91,0.86 0.94,0.7 0.49,0.29 0.51,0.25 0.51,0.18 0.52,0.14 0.51,0.09 0.5,0.03 0.47,0.03 -0.07,-0.01 0.46,0.1 -0.04,-0.02 0.47,0.15 -0.06,-0.02 0.47,0.21 -0.05,-0.02 0.46,0.27 -0.04,-0.02 0.46,0.32 -0.03,-0.02 0.46,0.37 -0.03,-0.02 0.45,0.42 -0.03,-0.03 0.44,0.48 -0.02,-0.02 0.44,0.52 -0.03,-0.04 0.83,1.17 -0.02,-0.04 0.78,1.32 -0.01,-0.03 0.73,1.47 -0.01,-0.03 0.67,1.59 -0.01,-0.02 0.62,1.71 -0.01,-0.03 0.53,1.8 -0.01,-0.02 0.46,1.88 v -0.03 l 0.36,1.95 v -0.02 l 0.27,1.99 v -0.02 l 0.16,2.02 v -0.03 l 0.06,2.04 z m -7.84,-54.01 5.24,-4.19 -6.5,-1.68 z" /></g></g><path
       id="path192"
       style="fill:none;stroke:#000000;stroke-width:1;stroke-linecap:butt;stroke-linejoin:round;stroke-miterlimit:10;stroke-dasharray:none;stroke-opacity:1"
       d="M 548.6,285.1 V 254.9" /><path
       id="path194"
       style="fill:none;stroke:#000000;stroke-width:1;stroke-linecap:butt;stroke-linejoin:round;stroke-miterlimit:10;stroke-dasharray:none;stroke-opacity:1"
       d="M 508.98,285.1 V 254.9" /><path
       id="path196"
       style="fill:none;stroke:#000000;stroke-width:1;stroke-linecap:butt;stroke-linejoin:round;stroke-miterlimit:10;stroke-dasharray:none;stroke-opacity:1"
       d="M 588.23,285.1 V 254.9" /><path
       id="path198"
       style="fill:none;stroke:#000000;stroke-width:1;stroke-linecap:butt;stroke-linejoin:round;stroke-miterlimit:10;stroke-dasharray:none;stroke-opacity:1"
       d="m 508.48,284.6 h 80.25" /><path
       id="path200"
       style="fill:none;stroke:#000000;stroke-width:1;stroke-linecap:butt;stroke-linejoin:round;stroke-miterlimit:10;stroke-dasharray:none;stroke-opacity:1"
       d="m 508.48,255.4 h 80.25" /><g
       id="g202"><g
         clip-path="url(#clipPath208)"
         id="g204"><text
           id="text212"
           style="font-variant:normal;font-weight:bold;font-size:18px;font-family:Arial;-inkscape-font-specification:Arial-BoldMT;writing-mode:lr-tb;fill:#000000;fill-opacity:1;fill-rule:nonzero;stroke:none"
           transform="matrix(1,0,0,-1,523.85,263.42)"><tspan
             id="tspan210"
             y="0"
             x="0">1</tspan></text>
</g></g><path
       id="path214"
       style="fill:none;stroke:#000000;stroke-width:1;stroke-linecap:butt;stroke-linejoin:round;stroke-miterlimit:10;stroke-dasharray:none;stroke-opacity:1"
       d="M 655.85,285.1 V 254.9" /><path
       id="path216"
       style="fill:none;stroke:#000000;stroke-width:1;stroke-linecap:butt;stroke-linejoin:round;stroke-miterlimit:10;stroke-dasharray:none;stroke-opacity:1"
       d="M 616.23,285.1 V 254.9" /><path
       id="path218"
       style="fill:none;stroke:#000000;stroke-width:1;stroke-linecap:butt;stroke-linejoin:round;stroke-miterlimit:10;stroke-dasharray:none;stroke-opacity:1"
       d="M 695.48,285.1 V 254.9" /><path
       id="path220"
       style="fill:none;stroke:#000000;stroke-width:1;stroke-linecap:butt;stroke-linejoin:round;stroke-miterlimit:10;stroke-dasharray:none;stroke-opacity:1"
       d="m 615.73,284.6 h 80.25" /><path
       id="path222"
       style="fill:none;stroke:#000000;stroke-width:1;stroke-linecap:butt;stroke-linejoin:round;stroke-miterlimit:10;stroke-dasharray:none;stroke-opacity:1"
       d="m 615.73,255.4 h 80.25" /><g
       id="g224"><g
         clip-path="url(#clipPath230)"
         id="g226"><text
           id="text234"
           style="font-variant:normal;font-weight:bold;font-size:18px;font-family:Arial;-inkscape-font-specification:Arial-BoldMT;writing-mode:lr-tb;fill:#000000;fill-opacity:1;fill-rule:nonzero;stroke:none"
           transform="matrix(1,0,0,-1,631.13,263.42)"><tspan
             id="tspan232"
             y="0"
             x="0">2</tspan></text>
</g></g><path
       id="path236"
       style="fill:none;stroke:#000000;stroke-width:1;stroke-linecap:butt;stroke-linejoin:round;stroke-miterlimit:10;stroke-dasharray:none;stroke-opacity:1"
       d="m 601.62,344.41 v -30.2" /><path
       id="path238"
       style="fill:none;stroke:#000000;stroke-width:1;stroke-linecap:butt;stroke-linejoin:round;stroke-miterlimit:10;stroke-dasharray:none;stroke-opacity:1"
       d="m 562,344.41 v -30.2" /><path
       id="path240"
       style="fill:none;stroke:#000000;stroke-width:1;stroke-linecap:butt;stroke-linejoin:round;stroke-miterlimit:10;stroke-dasharray:none;stroke-opacity:1"
       d="m 641.25,344.41 v -30.2" /><path
       id="path242"
       style="fill:none;stroke:#000000;stroke-width:1;stroke-linecap:butt;stroke-linejoin:round;stroke-miterlimit:10;stroke-dasharray:none;stroke-opacity:1"
       d="m 561.5,343.91 h 80.25" /><path
       id="path244"
       style="fill:none;stroke:#000000;stroke-width:1;stroke-linecap:butt;stroke-linejoin:round;stroke-miterlimit:10;stroke-dasharray:none;stroke-opacity:1"
       d="m 561.5,314.71 h 80.25" /><g
       id="g246"><g
         clip-path="url(#clipPath252)"
         id="g248"><text
           id="text256"
           style="font-variant:normal;font-weight:bold;font-size:9.96000004px;font-family:MalgunGothicBold;-inkscape-font-specification:MalgunGothicBold;writing-mode:lr-tb;fill:#000000;fill-opacity:1;fill-rule:nonzero;stroke:none"
           transform="matrix(1,0,0,-1,570.53,330.55)"><tspan
             id="tspan254"
             y="0"
             x="0">새</tspan></text>
</g></g><g
       id="g258"><g
         clip-path="url(#clipPath264)"
         id="g260"><text
           id="text268"
           style="font-variant:normal;font-weight:bold;font-size:9.96000004px;font-family:MalgunGothicBold;-inkscape-font-specification:MalgunGothicBold;writing-mode:lr-tb;fill:#000000;fill-opacity:1;fill-rule:nonzero;stroke:none"
           transform="matrix(1,0,0,-1,583.25,330.55)"><tspan
             id="tspan266"
             y="0"
             x="0">값</tspan></text>
</g></g><g
       id="g270"><g
         clip-path="url(#clipPath276)"
         id="g272"><path
           id="path278"
           style="fill:#000000;fill-opacity:1;fill-rule:nonzero;stroke:none"
           d="m 570.84,269.98 -0.07,2.11 -0.22,2.11 -0.37,2.08 -0.49,2.03 -0.6,1.96 -0.72,1.87 -0.81,1.79 -0.91,1.66 -0.98,1.53 -1.06,1.39 -0.56,0.64 -0.56,0.59 -0.58,0.55 -0.6,0.5 -0.61,0.46 -0.62,0.4 -0.64,0.35 -0.64,0.28 -0.65,0.23 -0.66,0.17 -0.67,0.11 -0.64,0.03 -0.62,0.03 h 0.04 l -0.63,0.07 0.05,-0.01 -0.62,0.13 0.04,-0.01 -0.61,0.18 0.04,-0.01 -0.61,0.23 0.03,-0.01 -0.6,0.27 0.04,-0.02 -1.17,0.67 0.04,-0.03 -1.13,0.84 0.04,-0.04 -1.09,0.99 0.03,-0.03 -1.04,1.12 0.03,-0.03 -0.96,1.24 0.02,-0.03 -0.89,1.35 0.02,-0.03 -0.79,1.44 0.01,-0.03 -0.7,1.53 0.01,-0.03 -0.6,1.59 0.01,-0.04 -0.48,1.65 0.01,-0.03 -0.36,1.68 0.01,-0.04 -0.22,1.72 v -0.04 l -0.07,1.73 v -0.03 l 0.02,0.86 v -0.03 l 0.08,0.87 v -0.03 l 0.13,0.85 -0.01,-0.02 0.18,0.86 -0.01,-0.02 0.22,0.84 -0.01,-0.03 0.27,0.84 -0.01,-0.03 0.65,1.65 -0.02,-0.04 0.82,1.59 -0.02,-0.04 0.96,1.53 -0.03,-0.03 1.1,1.44 -0.03,-0.03 1.21,1.35 -0.03,-0.03 1.31,1.25 -0.03,-0.03 1.41,1.12 -0.04,-0.03 1.5,0.99 -0.04,-0.02 1.55,0.83 -0.09,-0.04 1.72,0.53 -0.29,0.95 -1.77,-0.54 -1.62,-0.86 -1.53,-1.02 -1.44,-1.14 -1.34,-1.28 -1.24,-1.38 -1.12,-1.48 -0.98,-1.56 -0.84,-1.64 -0.67,-1.68 -0.28,-0.87 -0.22,-0.88 -0.18,-0.89 -0.13,-0.88 -0.09,-0.9 -0.02,-0.89 0.08,-1.77 0.22,-1.76 0.37,-1.73 0.49,-1.69 0.61,-1.62 0.72,-1.56 0.81,-1.48 0.92,-1.39 0.98,-1.27 1.07,-1.15 1.13,-1.03 1.17,-0.86 1.23,-0.7 0.63,-0.29 0.64,-0.24 0.65,-0.19 0.65,-0.14 0.67,-0.08 0.63,-0.03 0.61,-0.03 -0.05,0.01 0.62,-0.1 -0.04,0.01 0.61,-0.16 -0.04,0.01 0.6,-0.21 -0.03,0.01 0.61,-0.27 -0.04,0.02 0.6,-0.33 -0.03,0.02 0.59,-0.39 -0.03,0.02 0.59,-0.43 -0.02,0.02 0.58,-0.48 -0.03,0.02 0.56,-0.54 -0.02,0.02 0.55,-0.57 -0.01,0.01 0.54,-0.61 -0.02,0.02 1.03,-1.36 -0.02,0.04 0.96,-1.5 -0.02,0.03 0.89,-1.64 -0.01,0.04 0.79,-1.76 -0.01,0.03 0.71,-1.85 -0.01,0.03 0.6,-1.92 -0.01,0.03 0.48,-2 -0.01,0.03 0.36,-2.04 v 0.03 l 0.21,-2.08 v 0.04 l 0.08,-2.1 z m -14.1,55.09 5.22,4.21 -6.5,1.65 z" /></g></g><g
       id="g280"><g
         clip-path="url(#clipPath286)"
         id="g282"><path
           id="path288"
           style="fill:#000000;fill-opacity:1;fill-rule:nonzero;stroke:none"
           d="m 618.8,328.19 -0.06,-2.06 -0.17,-2.05 -0.27,-2.02 -0.37,-1.98 -0.47,-1.9 -0.54,-1.83 -0.62,-1.73 -0.69,-1.62 -0.75,-1.5 -0.81,-1.36 -0.84,-1.19 -0.46,-0.54 -0.45,-0.5 -0.47,-0.44 -0.49,-0.4 -0.49,-0.34 -0.49,-0.3 -0.52,-0.23 -0.53,-0.17 -0.52,-0.11 -0.51,-0.03 -0.47,-0.03 0.05,0.01 -0.47,-0.08 0.05,0.01 -0.47,-0.13 0.04,0.02 -0.46,-0.17 0.04,0.01 -0.46,-0.22 0.04,0.02 -0.45,-0.27 0.04,0.03 -0.9,-0.66 0.04,0.04 -0.87,-0.83 0.04,0.04 -0.82,-0.97 0.02,0.03 -0.79,-1.1 0.03,0.03 -0.74,-1.22 0.02,0.03 -0.68,-1.34 0.02,0.03 -0.62,-1.42 0.01,0.03 -0.53,-1.5 0.01,0.03 -0.46,-1.58 0.01,0.03 -0.37,-1.62 0.01,0.03 -0.27,-1.67 v 0.04 l -0.16,-1.7 v 0.03 l -0.06,-1.7 v 0.03 l 0.02,-0.85 v 0.03 l 0.08,-0.85 v 0.03 l 0.13,-0.85 -0.01,0.03 0.18,-0.85 -0.01,0.03 0.22,-0.84 -0.01,0.03 0.27,-0.83 -0.01,0.03 0.65,-1.62 -0.02,0.05 0.82,-1.58 -0.03,0.04 0.96,-1.5 -0.02,0.03 1.09,-1.42 -0.02,0.03 1.21,-1.33 -0.03,0.03 1.31,-1.23 -0.03,0.03 1.41,-1.1 -0.04,0.02 1.49,-0.97 -0.04,0.02 1.56,-0.82 -0.09,0.04 1.72,-0.52 -0.29,-0.95 -1.77,0.53 -1.61,0.85 -1.53,1 -1.45,1.13 -1.34,1.25 -1.24,1.36 -1.12,1.46 -0.98,1.54 -0.84,1.62 -0.67,1.65 -0.28,0.87 -0.22,0.86 -0.18,0.87 -0.13,0.87 -0.09,0.88 -0.02,0.89 0.06,1.73 0.17,1.73 0.27,1.7 0.38,1.65 0.46,1.6 0.55,1.53 0.62,1.45 0.69,1.37 0.76,1.25 0.81,1.14 0.86,1.01 0.91,0.86 0.94,0.7 0.49,0.29 0.51,0.25 0.51,0.18 0.52,0.14 0.51,0.09 0.5,0.03 0.47,0.03 -0.07,-0.01 0.46,0.1 -0.04,-0.02 0.47,0.15 -0.06,-0.02 0.47,0.21 -0.05,-0.02 0.46,0.27 -0.04,-0.02 0.46,0.32 -0.03,-0.02 0.46,0.37 -0.03,-0.02 0.45,0.42 -0.03,-0.03 0.44,0.48 -0.02,-0.02 0.44,0.52 -0.03,-0.04 0.83,1.17 -0.02,-0.04 0.78,1.32 -0.01,-0.03 0.73,1.47 -0.01,-0.03 0.67,1.59 -0.01,-0.02 0.62,1.71 -0.01,-0.03 0.53,1.8 -0.01,-0.02 0.46,1.88 v -0.03 l 0.36,1.95 v -0.02 l 0.27,1.99 v -0.02 l 0.16,2.02 v -0.03 l 0.06,2.04 z m -7.84,-54.01 5.24,-4.19 -6.5,-1.68 z" /></g></g><g
       id="g290"><g
         clip-path="url(#clipPath296)"
         id="g292"><text
           id="text300"
           style="font-variant:normal;font-weight:normal;font-size:11.03999996px;font-family:MalgunGothic;-inkscape-font-specification:MalgunGothic;writing-mode:lr-tb;fill:#000000;fill-opacity:1;fill-rule:nonzero;stroke:none"
           transform="matrix(1,0,0,-1,148.54,352.63)"><tspan
             id="tspan298"
             y="0"
             x="0">새</tspan></text>
</g></g><g
       id="g302"><g
         clip-path="url(#clipPath308)"
         id="g304"><text
           id="text312"
           style="font-variant:normal;font-weight:normal;font-size:11.03999996px;font-family:ArialMT;-inkscape-font-specification:ArialMT;writing-mode:lr-tb;fill:#000000;fill-opacity:1;fill-rule:nonzero;stroke:none"
           transform="matrix(1,0,0,-1,162.58,352.63)"><tspan
             id="tspan310"
             y="0"
             x="0 7.9156799 14.05392 20.15904">Node</tspan></text>
</g></g><g
       id="g314"><g
         clip-path="url(#clipPath320)"
         id="g316"><text
           id="text324"
           style="font-variant:normal;font-weight:normal;font-size:11.03999996px;font-family:MalgunGothic;-inkscape-font-specification:MalgunGothic;writing-mode:lr-tb;fill:#000000;fill-opacity:1;fill-rule:nonzero;stroke:none"
           transform="matrix(1,0,0,-1,365.09,352.63)"><tspan
             id="tspan322"
             y="0"
             x="0">새</tspan></text>
</g></g><g
       id="g326"><g
         clip-path="url(#clipPath332)"
         id="g328"><text
           id="text336"
           style="font-variant:normal;font-weight:normal;font-size:11.03999996px;font-family:ArialMT;-inkscape-font-specification:ArialMT;writing-mode:lr-tb;fill:#000000;fill-opacity:1;fill-rule:nonzero;stroke:none"
           transform="matrix(1,0,0,-1,379.13,352.63)"><tspan
             id="tspan334"
             y="0"
             x="0 7.9156799 14.05392 20.15904">Node</tspan></text>
</g></g><g
       id="g338"><g
         clip-path="url(#clipPath344)"
         id="g340"><text
           id="text348"
           style="font-variant:normal;font-weight:normal;font-size:11.03999996px;font-family:MalgunGothic;-inkscape-font-specification:MalgunGothic;writing-mode:lr-tb;fill:#000000;fill-opacity:1;fill-rule:nonzero;stroke:none"
           transform="matrix(1,0,0,-1,581.57,352.63)"><tspan
             id="tspan346"
             y="0"
             x="0">새</tspan></text>
</g></g><g
       id="g350"><g
         clip-path="url(#clipPath356)"
         id="g352"><text
           id="text360"
           style="font-variant:normal;font-weight:normal;font-size:11.03999996px;font-family:ArialMT;-inkscape-font-specification:ArialMT;writing-mode:lr-tb;fill:#000000;fill-opacity:1;fill-rule:nonzero;stroke:none"
           transform="matrix(1,0,0,-1,595.61,352.63)"><tspan
             id="tspan358"
             y="0"
             x="0 7.9156799 14.05392 20.15904">Node</tspan></text>
</g></g></g></svg>