<?xml version="1.0" encoding="UTF-8" standalone="no"?>
<svg
   xmlns:dc="http://purl.org/dc/elements/1.1/"
   xmlns:cc="http://creativecommons.org/ns#"
   xmlns:rdf="http://www.w3.org/1999/02/22-rdf-syntax-ns#"
   xmlns:svg="http://www.w3.org/2000/svg"
   xmlns="http://www.w3.org/2000/svg"
   viewBox="36 250 1186 132"
   height="132"
   width="1186"
   xml:space="preserve"
   id="svg2"
   version="1.1"><metadata
     id="metadata8"><rdf:RDF><cc:Work
         rdf:about=""><dc:format>image/svg+xml</dc:format><dc:type
           rdf:resource="http://purl.org/dc/dcmitype/StillImage" /></cc:Work></rdf:RDF></metadata><defs
     id="defs6"><clipPath
       id="clipPath18"
       clipPathUnits="userSpaceOnUse"><path
         style="clip-rule:evenodd"
         id="path16"
         d="M 0,1.2207e-4 H 960 V 540.00012 H 0 Z" /></clipPath><clipPath
       id="clipPath38"
       clipPathUnits="userSpaceOnUse"><path
         style="clip-rule:evenodd"
         id="path36"
         d="M 1.4305e-5,0 H 960.00001 V 540 H 1.4305e-5 Z" /></clipPath><clipPath
       id="clipPath60"
       clipPathUnits="userSpaceOnUse"><path
         style="clip-rule:evenodd"
         id="path58"
         d="M 1.4305e-5,0 H 960.00001 V 540 H 1.4305e-5 Z" /></clipPath><clipPath
       id="clipPath84"
       clipPathUnits="userSpaceOnUse"><path
         style="clip-rule:evenodd"
         id="path82"
         d="M 1.4305e-5,0 H 960.00001 V 540 H 1.4305e-5 Z" /></clipPath><clipPath
       id="clipPath96"
       clipPathUnits="userSpaceOnUse"><path
         style="clip-rule:evenodd"
         id="path94"
         d="M 1.4305e-5,0 H 960.00001 V 540 H 1.4305e-5 Z" /></clipPath><clipPath
       id="clipPath108"
       clipPathUnits="userSpaceOnUse"><path
         style="clip-rule:evenodd"
         id="path106"
         d="M 1.4305e-5,0 H 960.00001 V 540 H 1.4305e-5 Z" /></clipPath><clipPath
       id="clipPath130"
       clipPathUnits="userSpaceOnUse"><path
         style="clip-rule:evenodd"
         id="path128"
         d="M 1.4305e-5,0 H 960.00001 V 540 H 1.4305e-5 Z" /></clipPath><clipPath
       id="clipPath152"
       clipPathUnits="userSpaceOnUse"><path
         style="clip-rule:evenodd"
         id="path150"
         d="M 1.4305e-5,0 H 960.00001 V 540 H 1.4305e-5 Z" /></clipPath><clipPath
       id="clipPath176"
       clipPathUnits="userSpaceOnUse"><path
         style="clip-rule:evenodd"
         id="path174"
         d="M 1.4305e-5,0 H 960.00001 V 540 H 1.4305e-5 Z" /></clipPath><clipPath
       id="clipPath188"
       clipPathUnits="userSpaceOnUse"><path
         style="clip-rule:evenodd"
         id="path186"
         d="M 1.4305e-5,0 H 960.00001 V 540 H 1.4305e-5 Z" /></clipPath><clipPath
       id="clipPath200"
       clipPathUnits="userSpaceOnUse"><path
         style="clip-rule:evenodd"
         id="path198"
         d="M 1.4305e-5,0 H 960.00001 V 540 H 1.4305e-5 Z" /></clipPath><clipPath
       id="clipPath226"
       clipPathUnits="userSpaceOnUse"><path
         style="clip-rule:evenodd"
         id="path224"
         d="M 1.4305e-5,0 H 960.00001 V 540 H 1.4305e-5 Z" /></clipPath><clipPath
       id="clipPath248"
       clipPathUnits="userSpaceOnUse"><path
         style="clip-rule:evenodd"
         id="path246"
         d="M 1.4305e-5,0 H 960.00001 V 540 H 1.4305e-5 Z" /></clipPath></defs><g
     transform="matrix(1.3333333,0,0,-1.3333333,0,720)"
     id="g10"><g
       id="g12"><g
         clip-path="url(#clipPath18)"
         id="g14"><path
           id="path20"
           style="fill:#ffffff;fill-opacity:1;fill-rule:evenodd;stroke:none"
           d="M 0,6.1035e-5 H 960 V 540.00006 H 0 Z" /></g></g><path
       id="path22"
       style="fill:none;stroke:#000000;stroke-width:1;stroke-linecap:butt;stroke-linejoin:round;stroke-miterlimit:10;stroke-dasharray:none;stroke-opacity:1"
       d="m 72.643,290.04 v -30.2" /><path
       id="path24"
       style="fill:none;stroke:#000000;stroke-width:1;stroke-linecap:butt;stroke-linejoin:round;stroke-miterlimit:10;stroke-dasharray:none;stroke-opacity:1"
       d="m 33.018,290.04 v -30.2" /><path
       id="path26"
       style="fill:none;stroke:#000000;stroke-width:1;stroke-linecap:butt;stroke-linejoin:round;stroke-miterlimit:10;stroke-dasharray:none;stroke-opacity:1"
       d="m 112.27,290.04 v -30.2" /><path
       id="path28"
       style="fill:none;stroke:#000000;stroke-width:1;stroke-linecap:butt;stroke-linejoin:round;stroke-miterlimit:10;stroke-dasharray:none;stroke-opacity:1"
       d="M 32.518,289.54 H 112.77" /><path
       id="path30"
       style="fill:none;stroke:#000000;stroke-width:1;stroke-linecap:butt;stroke-linejoin:round;stroke-miterlimit:10;stroke-dasharray:none;stroke-opacity:1"
       d="M 32.518,260.34 H 112.77" /><g
       id="g32"><g
         clip-path="url(#clipPath38)"
         id="g34"><text
           id="text42"
           style="font-variant:normal;font-weight:bold;font-size:18px;font-family:Arial;-inkscape-font-specification:Arial-BoldMT;writing-mode:lr-tb;fill:#000000;fill-opacity:1;fill-rule:nonzero;stroke:none"
           transform="matrix(1,0,0,-1,47.832,268.37)"><tspan
             id="tspan40"
             y="0"
             x="0">1</tspan></text>
</g></g><path
       id="path44"
       style="fill:none;stroke:#000000;stroke-width:1;stroke-linecap:butt;stroke-linejoin:round;stroke-miterlimit:10;stroke-dasharray:none;stroke-opacity:1"
       d="m 180.64,290.04 v -30.2" /><path
       id="path46"
       style="fill:none;stroke:#000000;stroke-width:1;stroke-linecap:butt;stroke-linejoin:round;stroke-miterlimit:10;stroke-dasharray:none;stroke-opacity:1"
       d="m 141.02,290.04 v -30.2" /><path
       id="path48"
       style="fill:none;stroke:#000000;stroke-width:1;stroke-linecap:butt;stroke-linejoin:round;stroke-miterlimit:10;stroke-dasharray:none;stroke-opacity:1"
       d="m 220.27,290.04 v -30.2" /><path
       id="path50"
       style="fill:none;stroke:#000000;stroke-width:1;stroke-linecap:butt;stroke-linejoin:round;stroke-miterlimit:10;stroke-dasharray:none;stroke-opacity:1"
       d="m 140.52,289.54 h 80.25" /><path
       id="path52"
       style="fill:none;stroke:#000000;stroke-width:1;stroke-linecap:butt;stroke-linejoin:round;stroke-miterlimit:10;stroke-dasharray:none;stroke-opacity:1"
       d="m 140.52,260.34 h 80.25" /><g
       id="g54"><g
         clip-path="url(#clipPath60)"
         id="g56"><text
           id="text64"
           style="font-variant:normal;font-weight:bold;font-size:18px;font-family:Arial;-inkscape-font-specification:Arial-BoldMT;writing-mode:lr-tb;fill:#000000;fill-opacity:1;fill-rule:nonzero;stroke:none"
           transform="matrix(1,0,0,-1,155.86,268.37)"><tspan
             id="tspan62"
             y="0"
             x="0">2</tspan></text>
</g></g><path
       id="path66"
       style="fill:#000000;fill-opacity:1;fill-rule:nonzero;stroke:none"
       d="m 93.721,273.92 h 4.417 l 2.172,0.01 2.1,0.01 2.05,0.01 1.96,0.01 1.85,0.02 1.74,0.01 1.59,0.03 1.43,0.02 v 0 h 0.66 l 0.61,0.01 0.57,0.02 h -0.01 l 0.52,0.01 0.46,0.01 h -0.01 l 0.41,0.01 0.35,0.01 0.3,0.01 h -0.01 l 0.25,0.01 0.18,0.01 h -0.01 l 0.17,0.02 0.11,0.04 0.04,0.02 -0.15,-0.04 0.1,0.01 0.17,0.01 h -0.03 l 0.24,0.01 0.3,0.02 h -0.02 0.35 l 0.41,0.02 h -0.01 l 0.46,0.01 0.51,0.01 v 0 l 0.56,0.01 0.61,0.01 v 0 l 0.65,0.01 1.44,0.02 v 0 l 1.59,0.02 1.73,0.02 v 0 l 1.85,0.01 1.96,0.02 v 0 l 2.04,0.01 2.11,0.01 v 0 h 1.58 v 1 h -1.58 l -2.12,-0.01 v 0 l -2.04,-0.01 -1.96,-0.02 -1.85,-0.01 -1.73,-0.02 v 0 l -1.59,-0.02 -1.45,-0.02 h 0.01 l -0.66,-0.01 -0.61,-0.01 h 0.01 l -0.57,-0.01 -0.51,-0.02 v 0 h -0.46 l -0.41,-0.02 h 0.01 l -0.36,-0.01 -0.3,-0.01 h 0.01 l -0.24,-0.01 -0.18,-0.01 v 0 l -0.17,-0.02 -0.11,-0.04 -0.04,-0.02 0.15,0.04 -0.1,-0.01 -0.17,-0.01 h 0.03 l -0.24,-0.01 -0.29,-0.02 h 0.01 -0.34 v 0 l -0.41,-0.01 -0.46,-0.02 h 0.01 -0.52 l -0.56,-0.02 h 0.01 l -0.61,-0.01 h -0.66 l -1.43,-0.03 -1.59,-0.02 v 0 l -1.73,-0.01 -1.86,-0.02 -1.95,-0.01 v 0 l -2.05,-0.01 -2.11,-0.01 -2.163,-0.01 h -4.418 z m 41.349,-2.01 6,3.01 -6.01,2.99 z" /><path
       id="path68"
       style="fill:none;stroke:#000000;stroke-width:1;stroke-linecap:butt;stroke-linejoin:round;stroke-miterlimit:10;stroke-dasharray:none;stroke-opacity:1"
       d="m 288.64,289.54 v -30.2" /><path
       id="path70"
       style="fill:none;stroke:#000000;stroke-width:1;stroke-linecap:butt;stroke-linejoin:round;stroke-miterlimit:10;stroke-dasharray:none;stroke-opacity:1"
       d="m 249.02,289.54 v -30.2" /><path
       id="path72"
       style="fill:none;stroke:#000000;stroke-width:1;stroke-linecap:butt;stroke-linejoin:round;stroke-miterlimit:10;stroke-dasharray:none;stroke-opacity:1"
       d="m 328.27,289.54 v -30.2" /><path
       id="path74"
       style="fill:none;stroke:#000000;stroke-width:1;stroke-linecap:butt;stroke-linejoin:round;stroke-miterlimit:10;stroke-dasharray:none;stroke-opacity:1"
       d="m 248.52,289.04 h 80.25" /><path
       id="path76"
       style="fill:none;stroke:#000000;stroke-width:1;stroke-linecap:butt;stroke-linejoin:round;stroke-miterlimit:10;stroke-dasharray:none;stroke-opacity:1"
       d="m 248.52,259.84 h 80.25" /><g
       id="g78"><g
         clip-path="url(#clipPath84)"
         id="g80"><text
           id="text88"
           style="font-variant:normal;font-weight:bold;font-size:18px;font-family:Arial;-inkscape-font-specification:Arial-BoldMT;writing-mode:lr-tb;fill:#000000;fill-opacity:1;fill-rule:nonzero;stroke:none"
           transform="matrix(1,0,0,-1,263.86,267.86)"><tspan
             id="tspan86"
             y="0"
             x="0">3</tspan></text>
</g></g><g
       id="g90"><g
         clip-path="url(#clipPath96)"
         id="g92"><text
           id="text100"
           style="font-variant:normal;font-weight:normal;font-size:9.96000004px;font-family:MalgunGothic;-inkscape-font-specification:MalgunGothic;writing-mode:lr-tb;fill:#000000;fill-opacity:1;fill-rule:nonzero;stroke:none"
           transform="matrix(1,0,0,-1,152.38,295.73)"><tspan
             id="tspan98"
             y="0"
             x="0 9.96 19.92">삭제할</tspan></text>
</g></g><g
       id="g102"><g
         clip-path="url(#clipPath108)"
         id="g104"><text
           id="text112"
           style="font-variant:normal;font-weight:normal;font-size:9.96000004px;font-family:ArialMT;-inkscape-font-specification:ArialMT;writing-mode:lr-tb;fill:#000000;fill-opacity:1;fill-rule:nonzero;stroke:none"
           transform="matrix(1,0,0,-1,185.14,295.73)"><tspan
             id="tspan110"
             y="0"
             x="0 7.1911201 12.72888 18.26664">Node</tspan></text>
</g></g><path
       id="path114"
       style="fill:none;stroke:#000000;stroke-width:1;stroke-linecap:butt;stroke-linejoin:round;stroke-miterlimit:10;stroke-dasharray:none;stroke-opacity:1"
       d="m 417.93,290.04 v -30.2" /><path
       id="path116"
       style="fill:none;stroke:#000000;stroke-width:1;stroke-linecap:butt;stroke-linejoin:round;stroke-miterlimit:10;stroke-dasharray:none;stroke-opacity:1"
       d="m 378.3,290.04 v -30.2" /><path
       id="path118"
       style="fill:none;stroke:#000000;stroke-width:1;stroke-linecap:butt;stroke-linejoin:round;stroke-miterlimit:10;stroke-dasharray:none;stroke-opacity:1"
       d="m 457.55,290.04 v -30.2" /><path
       id="path120"
       style="fill:none;stroke:#000000;stroke-width:1;stroke-linecap:butt;stroke-linejoin:round;stroke-miterlimit:10;stroke-dasharray:none;stroke-opacity:1"
       d="m 377.8,289.54 h 80.25" /><path
       id="path122"
       style="fill:none;stroke:#000000;stroke-width:1;stroke-linecap:butt;stroke-linejoin:round;stroke-miterlimit:10;stroke-dasharray:none;stroke-opacity:1"
       d="m 377.8,260.34 h 80.25" /><g
       id="g124"><g
         clip-path="url(#clipPath130)"
         id="g126"><text
           id="text134"
           style="font-variant:normal;font-weight:bold;font-size:18px;font-family:Arial;-inkscape-font-specification:Arial-BoldMT;writing-mode:lr-tb;fill:#000000;fill-opacity:1;fill-rule:nonzero;stroke:none"
           transform="matrix(1,0,0,-1,393.17,268.37)"><tspan
             id="tspan132"
             y="0"
             x="0">1</tspan></text>
</g></g><path
       id="path136"
       style="fill:none;stroke:#000000;stroke-width:1;stroke-linecap:butt;stroke-linejoin:round;stroke-miterlimit:10;stroke-dasharray:none;stroke-opacity:1"
       d="m 525.93,328.03 v -30.2" /><path
       id="path138"
       style="fill:none;stroke:#000000;stroke-width:1;stroke-linecap:butt;stroke-linejoin:round;stroke-miterlimit:10;stroke-dasharray:none;stroke-opacity:1"
       d="m 486.3,328.03 v -30.2" /><path
       id="path140"
       style="fill:none;stroke:#000000;stroke-width:1;stroke-linecap:butt;stroke-linejoin:round;stroke-miterlimit:10;stroke-dasharray:none;stroke-opacity:1"
       d="m 565.55,328.03 v -30.2" /><path
       id="path142"
       style="fill:none;stroke:#000000;stroke-width:1;stroke-linecap:butt;stroke-linejoin:round;stroke-miterlimit:10;stroke-dasharray:none;stroke-opacity:1"
       d="m 485.8,327.53 h 80.25" /><path
       id="path144"
       style="fill:none;stroke:#000000;stroke-width:1;stroke-linecap:butt;stroke-linejoin:round;stroke-miterlimit:10;stroke-dasharray:none;stroke-opacity:1"
       d="m 485.8,298.33 h 80.25" /><g
       id="g146"><g
         clip-path="url(#clipPath152)"
         id="g148"><text
           id="text156"
           style="font-variant:normal;font-weight:bold;font-size:18px;font-family:Arial;-inkscape-font-specification:Arial-BoldMT;writing-mode:lr-tb;fill:#000000;fill-opacity:1;fill-rule:nonzero;stroke:none"
           transform="matrix(1,0,0,-1,501.17,306.36)"><tspan
             id="tspan154"
             y="0"
             x="0">2</tspan></text>
</g></g><path
       id="path158"
       style="fill:#000000;fill-opacity:1;fill-rule:nonzero;stroke:none"
       d="m 438.96,275.42 h 7.27 l 7.22,-0.01 h 7.1 3.49 l 3.44,-0.01 3.39,-0.01 h 3.32 l 3.25,-0.01 h 3.17 l 3.08,-0.01 2.99,-0.01 2.9,-0.01 2.79,-0.01 2.67,-0.01 2.55,-0.01 h 2.42 l 2.3,-0.02 2.14,-0.01 2,-0.01 v 0 l 1.83,-0.01 1.69,-0.01 1.5,-0.01 0.69,-0.01 h -0.01 0.65 l 0.6,-0.01 0.54,-0.01 h 0.51 l 0.45,-0.01 h -0.01 0.41 l 0.36,-0.01 0.3,-0.01 h 0.24 -0.01 0.21 l 0.16,-0.01 0.13,-0.01 0.07,-0.02 0.03,-0.01 -0.08,0.02 0.09,-0.01 h -0.05 0.15 l 0.2,-0.01 v 0 l 0.24,-0.01 v 0 h 0.3 -0.01 0.35 l 0.41,-0.01 0.45,-0.01 h -0.01 0.5 l 0.56,-0.01 h 0.59 l 0.65,-0.01 h -0.01 0.69 l 1.51,-0.01 h -0.01 l 1.69,-0.01 1.83,-0.02 v 0 h 2 l 2.14,-0.01 2.29,-0.02 v 0 l 2.43,-0.01 h 2.55 l 2.67,-0.01 2.79,-0.01 2.89,-0.01 h 2.99 l 3.09,-0.01 3.16,-0.01 h 3.25 l 3.32,-0.01 h 3.39 3.44 l 3.49,-0.01 h 7.1 7.21 2.27 v -1 h -2.27 -7.21 -7.11 l -3.48,0.01 h -3.45 l -3.38,0.01 h -3.32 -3.25 l -3.16,0.01 -3.09,0.01 -3,0.01 h -2.88 l -2.79,0.01 -2.67,0.01 -2.55,0.01 h -2.43 l -2.29,0.02 -2.15,0.01 h -1.99 l -1.84,0.02 v 0 l -1.68,0.01 -1.51,0.01 v 0 h -0.68 l -0.65,0.01 -0.59,0.01 h -0.56 0.01 -0.5 l -0.45,0.01 -0.41,0.01 h 0.01 -0.36 l -0.31,0.01 h -0.25 l -0.19,0.01 h 0.02 -0.16 l -0.15,0.01 -0.06,0.02 -0.03,0.01 0.07,-0.02 -0.08,0.01 h 0.02 l -0.14,0.01 h 0.02 -0.2 l -0.25,0.01 v 0 h -0.3 0.01 l -0.36,0.01 h 0.01 -0.4 l -0.46,0.01 -0.5,0.01 h -0.55 l -0.59,0.01 h 0.01 -0.65 l -0.68,0.01 -1.51,0.01 v 0 l -1.68,0.01 -1.84,0.01 -1.99,0.01 v 0 l -2.15,0.01 -2.29,0.02 v 0 h -2.42 l -2.55,0.01 -2.68,0.01 -2.78,0.01 -2.9,0.01 -2.99,0.01 -3.08,0.01 h -3.18 l -3.24,0.01 h -3.33 l -3.38,0.01 -3.44,0.01 h -3.49 -7.1 l -7.22,0.01 h -7.27 z m 149.34,2.02 6,-3 -6,-3 z" /><path
       id="path160"
       style="fill:none;stroke:#000000;stroke-width:1;stroke-linecap:butt;stroke-linejoin:round;stroke-miterlimit:10;stroke-dasharray:none;stroke-opacity:1"
       d="m 633.93,289.54 v -30.2" /><path
       id="path162"
       style="fill:none;stroke:#000000;stroke-width:1;stroke-linecap:butt;stroke-linejoin:round;stroke-miterlimit:10;stroke-dasharray:none;stroke-opacity:1"
       d="m 594.3,289.54 v -30.2" /><path
       id="path164"
       style="fill:none;stroke:#000000;stroke-width:1;stroke-linecap:butt;stroke-linejoin:round;stroke-miterlimit:10;stroke-dasharray:none;stroke-opacity:1"
       d="m 673.55,289.54 v -30.2" /><path
       id="path166"
       style="fill:none;stroke:#000000;stroke-width:1;stroke-linecap:butt;stroke-linejoin:round;stroke-miterlimit:10;stroke-dasharray:none;stroke-opacity:1"
       d="m 593.8,289.04 h 80.25" /><path
       id="path168"
       style="fill:none;stroke:#000000;stroke-width:1;stroke-linecap:butt;stroke-linejoin:round;stroke-miterlimit:10;stroke-dasharray:none;stroke-opacity:1"
       d="m 593.8,259.84 h 80.25" /><g
       id="g170"><g
         clip-path="url(#clipPath176)"
         id="g172"><text
           id="text180"
           style="font-variant:normal;font-weight:bold;font-size:18px;font-family:Arial;-inkscape-font-specification:Arial-BoldMT;writing-mode:lr-tb;fill:#000000;fill-opacity:1;fill-rule:nonzero;stroke:none"
           transform="matrix(1,0,0,-1,609.19,267.86)"><tspan
             id="tspan178"
             y="0"
             x="0">3</tspan></text>
</g></g><g
       id="g182"><g
         clip-path="url(#clipPath188)"
         id="g184"><text
           id="text192"
           style="font-variant:normal;font-weight:normal;font-size:9.96000004px;font-family:MalgunGothic;-inkscape-font-specification:MalgunGothic;writing-mode:lr-tb;fill:#000000;fill-opacity:1;fill-rule:nonzero;stroke:none"
           transform="matrix(1,0,0,-1,497.69,333.7)"><tspan
             id="tspan190"
             y="0"
             x="0 9.96 19.92">삭제할</tspan></text>
</g></g><g
       id="g194"><g
         clip-path="url(#clipPath200)"
         id="g196"><text
           id="text204"
           style="font-variant:normal;font-weight:normal;font-size:9.96000004px;font-family:ArialMT;-inkscape-font-specification:ArialMT;writing-mode:lr-tb;fill:#000000;fill-opacity:1;fill-rule:nonzero;stroke:none"
           transform="matrix(1,0,0,-1,530.45,333.7)"><tspan
             id="tspan202"
             y="0"
             x="0 7.21104 12.7488 18.246719">Node</tspan></text>
</g></g><path
       id="path206"
       style="fill:#000000;fill-opacity:1;fill-rule:nonzero;stroke:none"
       d="m 546.97,313.58 1.13,-0.03 1.13,-0.08 1.13,-0.14 1.11,-0.19 1.11,-0.24 1.1,-0.29 1.09,-0.34 1.07,-0.38 2.07,-0.89 2,-1.05 1.88,-1.2 1.77,-1.32 1.62,-1.44 1.46,-1.54 0.68,-0.81 0.62,-0.83 0.58,-0.84 0.52,-0.87 0.47,-0.88 0.42,-0.89 0.35,-0.91 0.31,-0.92 0.23,-0.92 0.18,-0.94 0.1,-0.94 0.04,-0.92 0.03,-0.91 v 0.04 l 0.1,-0.9 -0.01,0.03 0.17,-0.9 -0.01,0.04 0.23,-0.89 -0.01,0.03 0.3,-0.89 -0.01,0.03 0.34,-0.89 -0.01,0.03 0.41,-0.86 -0.02,0.02 0.46,-0.85 -0.01,0.02 0.51,-0.84 -0.02,0.02 0.57,-0.83 -0.02,0.02 0.61,-0.8 -0.02,0.02 0.66,-0.79 -0.03,0.02 1.44,-1.51 -0.03,0.03 1.59,-1.41 -0.03,0.03 1.73,-1.3 -0.03,0.02 1.86,-1.18 -0.04,0.02 1.96,-1.02 -0.04,0.01 2.04,-0.88 -0.03,0.02 1.05,-0.37 -0.02,0.01 1.07,-0.33 -0.06,0.01 1.62,-0.3 -0.18,-0.98 -1.65,0.3 -1.1,0.34 -1.08,0.38 -2.07,0.89 -1.99,1.05 -1.89,1.2 -1.76,1.32 -1.63,1.44 -1.46,1.54 -0.67,0.81 -0.62,0.82 -0.58,0.85 -0.52,0.86 -0.47,0.88 -0.42,0.89 -0.36,0.92 -0.3,0.91 -0.24,0.92 -0.17,0.94 -0.1,0.94 -0.04,0.92 -0.04,0.91 v -0.04 l -0.09,0.9 v -0.04 l -0.17,0.9 0.01,-0.02 -0.23,0.89 0.01,-0.04 -0.29,0.9 0.01,-0.03 -0.35,0.88 0.01,-0.03 -0.4,0.87 0.01,-0.03 -0.46,0.86 0.02,-0.02 -0.51,0.84 0.01,-0.03 -0.56,0.83 0.01,-0.02 -0.61,0.81 0.02,-0.02 -0.66,0.79 0.02,-0.03 -1.43,1.52 0.03,-0.03 -1.59,1.41 0.03,-0.03 -1.73,1.3 0.03,-0.02 -1.85,1.18 0.04,-0.03 -1.96,1.03 0.03,-0.01 -2.04,0.87 0.02,-0.01 -1.04,0.38 0.02,-0.01 -1.06,0.33 0.02,-0.01 -1.08,0.29 0.02,-0.01 -1.09,0.24 0.02,-0.01 -1.09,0.19 h 0.02 l -1.1,0.13 h 0.02 l -1.11,0.08 h 0.03 l -1.11,0.03 z m 41.79,-35.37 5.55,-3.76 -6.35,-2.18 z" /><path
       id="path208"
       style="fill:#000000;fill-opacity:1;fill-rule:nonzero;stroke:none"
       d="m 202.68,274.94 4.33,-0.01 2.12,-0.01 2.07,-0.03 2,-0.02 1.92,-0.02 1.81,-0.04 1.7,-0.03 1.56,-0.04 1.41,-0.03 0.64,-0.03 0.6,-0.02 0.55,-0.02 0.5,-0.02 0.45,-0.03 0.41,-0.02 0.35,-0.02 0.29,-0.02 0.24,-0.03 0.19,-0.02 0.22,-0.05 0.12,-0.09 0.03,-0.02 -0.19,0.08 0.1,-0.02 -0.03,0.01 0.16,-0.03 -0.03,0.01 0.23,-0.02 h -0.01 l 0.28,-0.03 v 0 l 0.34,-0.02 v 0 l 0.4,-0.02 h -0.01 l 0.45,-0.02 v 0 l 0.5,-0.03 h -0.01 l 0.55,-0.02 v 0 l 0.6,-0.02 0.64,-0.02 h -0.01 l 1.41,-0.04 1.56,-0.04 v 0 l 1.69,-0.03 1.81,-0.03 1.92,-0.03 v 0 l 1.99,-0.02 v 0 l 2.07,-0.01 1.44,-0.01 -0.01,-1 -1.44,0.01 -2.07,0.01 -2,0.02 -1.92,0.03 -1.81,0.03 -1.69,0.03 -1.57,0.04 -1.41,0.04 -0.64,0.02 -0.6,0.02 -0.55,0.03 -0.5,0.02 -0.45,0.02 -0.4,0.02 -0.35,0.03 -0.29,0.02 -0.25,0.02 -0.18,0.03 -0.23,0.05 -0.12,0.09 -0.03,0.02 0.2,-0.09 -0.11,0.02 h 0.04 l -0.16,0.02 h 0.02 l -0.22,0.02 h 0.01 l -0.29,0.02 h 0.01 l -0.35,0.02 h 0.01 l -0.4,0.03 v 0 l -0.45,0.02 v 0 l -0.49,0.02 v 0 l -0.55,0.02 -0.59,0.03 -0.64,0.02 v 0 l -1.4,0.04 -1.56,0.03 v 0 l -1.7,0.03 -1.81,0.04 v 0 l -1.91,0.02 -2,0.03 -2.07,0.02 v 0 l -2.11,0.01 -4.33,0.01 z m 40.37,1.52 5.99,-3.02 -6.02,-2.98 z" /><path
       id="path210"
       style="fill:none;stroke:#000000;stroke-width:1;stroke-linecap:butt;stroke-linejoin:round;stroke-miterlimit:10;stroke-dasharray:none;stroke-opacity:1"
       d="m 763.21,290.21 v -30.2" /><path
       id="path212"
       style="fill:none;stroke:#000000;stroke-width:1;stroke-linecap:butt;stroke-linejoin:round;stroke-miterlimit:10;stroke-dasharray:none;stroke-opacity:1"
       d="m 723.58,290.21 v -30.2" /><path
       id="path214"
       style="fill:none;stroke:#000000;stroke-width:1;stroke-linecap:butt;stroke-linejoin:round;stroke-miterlimit:10;stroke-dasharray:none;stroke-opacity:1"
       d="m 802.83,290.21 v -30.2" /><path
       id="path216"
       style="fill:none;stroke:#000000;stroke-width:1;stroke-linecap:butt;stroke-linejoin:round;stroke-miterlimit:10;stroke-dasharray:none;stroke-opacity:1"
       d="m 723.08,289.71 h 80.25" /><path
       id="path218"
       style="fill:none;stroke:#000000;stroke-width:1;stroke-linecap:butt;stroke-linejoin:round;stroke-miterlimit:10;stroke-dasharray:none;stroke-opacity:1"
       d="m 723.08,260.51 h 80.25" /><g
       id="g220"><g
         clip-path="url(#clipPath226)"
         id="g222"><text
           id="text230"
           style="font-variant:normal;font-weight:bold;font-size:18px;font-family:Arial;-inkscape-font-specification:Arial-BoldMT;writing-mode:lr-tb;fill:#000000;fill-opacity:1;fill-rule:nonzero;stroke:none"
           transform="matrix(1,0,0,-1,738.48,268.54)"><tspan
             id="tspan228"
             y="0"
             x="0">1</tspan></text>
</g></g><path
       id="path232"
       style="fill:none;stroke:#000000;stroke-width:1;stroke-linecap:butt;stroke-linejoin:round;stroke-miterlimit:10;stroke-dasharray:none;stroke-opacity:1"
       d="m 871.21,290.21 v -30.2" /><path
       id="path234"
       style="fill:none;stroke:#000000;stroke-width:1;stroke-linecap:butt;stroke-linejoin:round;stroke-miterlimit:10;stroke-dasharray:none;stroke-opacity:1"
       d="m 831.58,290.21 v -30.2" /><path
       id="path236"
       style="fill:none;stroke:#000000;stroke-width:1;stroke-linecap:butt;stroke-linejoin:round;stroke-miterlimit:10;stroke-dasharray:none;stroke-opacity:1"
       d="m 910.83,290.21 v -30.2" /><path
       id="path238"
       style="fill:none;stroke:#000000;stroke-width:1;stroke-linecap:butt;stroke-linejoin:round;stroke-miterlimit:10;stroke-dasharray:none;stroke-opacity:1"
       d="m 831.08,289.71 h 80.25" /><path
       id="path240"
       style="fill:none;stroke:#000000;stroke-width:1;stroke-linecap:butt;stroke-linejoin:round;stroke-miterlimit:10;stroke-dasharray:none;stroke-opacity:1"
       d="m 831.08,260.51 h 80.25" /><g
       id="g242"><g
         clip-path="url(#clipPath248)"
         id="g244"><text
           id="text252"
           style="font-variant:normal;font-weight:bold;font-size:18px;font-family:Arial;-inkscape-font-specification:Arial-BoldMT;writing-mode:lr-tb;fill:#000000;fill-opacity:1;fill-rule:nonzero;stroke:none"
           transform="matrix(1,0,0,-1,846.5,268.54)"><tspan
             id="tspan250"
             y="0"
             x="0">3</tspan></text>
</g></g><path
       id="path254"
       style="fill:#000000;fill-opacity:1;fill-rule:nonzero;stroke:none"
       d="m 783.12,275.66 4.53,-0.01 2.22,-0.01 2.17,-0.03 2.09,-0.02 2.01,-0.02 1.9,-0.04 1.77,-0.03 1.64,-0.04 1.47,-0.03 0.67,-0.03 0.63,-0.02 0.57,-0.02 0.53,-0.02 0.48,-0.03 0.41,-0.02 0.37,-0.02 0.3,-0.02 0.25,-0.03 0.2,-0.02 0.2,-0.05 0.11,-0.06 0.04,-0.03 -0.16,0.06 0.11,-0.02 -0.04,0.01 0.17,-0.02 h -0.02 l 0.24,-0.02 h -0.01 l 0.29,-0.03 h -0.01 l 0.36,-0.02 v 0 l 0.41,-0.02 v 0 l 0.47,-0.02 v 0 l 0.52,-0.03 v 0 l 0.57,-0.02 v 0 l 0.63,-0.02 0.67,-0.02 h -0.01 l 1.47,-0.04 1.64,-0.04 h -0.01 l 1.77,-0.03 1.9,-0.03 2.01,-0.03 v 0 l 2.09,-0.02 v 0 l 2.17,-0.01 1.74,-0.01 -0.01,-1 -1.74,0.01 -2.17,0.01 -2.09,0.02 -2.02,0.03 -1.89,0.03 -1.78,0.03 -1.63,0.04 -1.47,0.04 -0.68,0.02 -0.63,0.02 -0.57,0.03 -0.53,0.02 -0.47,0.02 -0.42,0.02 -0.36,0.03 -0.3,0.02 -0.26,0.02 -0.19,0.03 -0.21,0.04 -0.1,0.07 -0.04,0.02 0.15,-0.06 -0.1,0.02 h 0.03 l -0.16,0.02 h 0.02 l -0.24,0.02 h 0.01 l -0.3,0.02 h 0.01 l -0.36,0.02 h 0.01 l -0.42,0.03 h 0.01 l -0.48,0.02 h 0.01 l -0.53,0.02 v 0 l -0.57,0.02 v 0 l -0.62,0.03 -0.67,0.02 v 0 l -1.47,0.04 -1.63,0.03 v 0 l -1.77,0.03 -1.9,0.04 h 0.01 l -2.01,0.02 -2.1,0.03 -2.16,0.02 v 0 l -2.21,0.01 -4.53,0.01 z m 42.54,1.52 5.98,-3.02 -6.01,-2.98 z" /></g></svg>