<?xml version="1.0" encoding="UTF-8" standalone="no"?>
<svg
   xmlns:dc="http://purl.org/dc/elements/1.1/"
   xmlns:cc="http://creativecommons.org/ns#"
   xmlns:rdf="http://www.w3.org/1999/02/22-rdf-syntax-ns#"
   xmlns:svg="http://www.w3.org/2000/svg"
   xmlns="http://www.w3.org/2000/svg"
   viewBox="23 261 831 125"
   height="125"
   width="831"
   xml:space="preserve"
   id="svg2"
   version="1.1"><metadata
     id="metadata8"><rdf:RDF><cc:Work
         rdf:about=""><dc:format>image/svg+xml</dc:format><dc:type
           rdf:resource="http://purl.org/dc/dcmitype/StillImage" /></cc:Work></rdf:RDF></metadata><defs
     id="defs6"><clipPath
       id="clipPath18"
       clipPathUnits="userSpaceOnUse"><path
         style="clip-rule:evenodd"
         id="path16"
         d="M 0,1.2207e-4 H 960 V 540.00012 H 0 Z" /></clipPath><clipPath
       id="clipPath38"
       clipPathUnits="userSpaceOnUse"><path
         style="clip-rule:evenodd"
         id="path36"
         d="M 1.4305e-5,0 H 960.00001 V 540 H 1.4305e-5 Z" /></clipPath><clipPath
       id="clipPath60"
       clipPathUnits="userSpaceOnUse"><path
         style="clip-rule:evenodd"
         id="path58"
         d="M 1.4305e-5,0 H 960.00001 V 540 H 1.4305e-5 Z" /></clipPath><clipPath
       id="clipPath72"
       clipPathUnits="userSpaceOnUse"><path
         style="clip-rule:evenodd"
         id="path70"
         d="M 1.4305e-5,0 H 960.00001 V 540 H 1.4305e-5 Z" /></clipPath><clipPath
       id="clipPath84"
       clipPathUnits="userSpaceOnUse"><path
         style="clip-rule:evenodd"
         id="path82"
         d="M 1.4305e-5,0 H 960.00001 V 540 H 1.4305e-5 Z" /></clipPath><clipPath
       id="clipPath110"
       clipPathUnits="userSpaceOnUse"><path
         style="clip-rule:evenodd"
         id="path108"
         d="M 1.4305e-5,0 H 960.00001 V 540 H 1.4305e-5 Z" /></clipPath><clipPath
       id="clipPath132"
       clipPathUnits="userSpaceOnUse"><path
         style="clip-rule:evenodd"
         id="path130"
         d="M 1.4305e-5,0 H 960.00001 V 540 H 1.4305e-5 Z" /></clipPath><clipPath
       id="clipPath144"
       clipPathUnits="userSpaceOnUse"><path
         style="clip-rule:evenodd"
         id="path142"
         d="M 1.4305e-5,0 H 960.00001 V 540 H 1.4305e-5 Z" /></clipPath><clipPath
       id="clipPath156"
       clipPathUnits="userSpaceOnUse"><path
         style="clip-rule:evenodd"
         id="path154"
         d="M 1.4305e-5,0 H 960.00001 V 540 H 1.4305e-5 Z" /></clipPath><clipPath
       id="clipPath182"
       clipPathUnits="userSpaceOnUse"><path
         style="clip-rule:evenodd"
         id="path180"
         d="M 1.4305e-5,0 H 960.00001 V 540 H 1.4305e-5 Z" /></clipPath><clipPath
       id="clipPath194"
       clipPathUnits="userSpaceOnUse"><path
         style="clip-rule:evenodd"
         id="path192"
         d="M 1.4305e-5,0 H 960.00001 V 540 H 1.4305e-5 Z" /></clipPath><clipPath
       id="clipPath206"
       clipPathUnits="userSpaceOnUse"><path
         style="clip-rule:evenodd"
         id="path204"
         d="M 1.4305e-5,0 H 960.00001 V 540 H 1.4305e-5 Z" /></clipPath></defs><g
     transform="matrix(1.3333333,0,0,-1.3333333,0,720)"
     id="g10"><g
       id="g12"><g
         clip-path="url(#clipPath18)"
         id="g14"><path
           id="path20"
           style="fill:#ffffff;fill-opacity:1;fill-rule:evenodd;stroke:none"
           d="M 0,6.1035e-5 H 960 V 540.00006 H 0 Z" /></g></g><path
       id="path22"
       style="fill:none;stroke:#000000;stroke-width:1;stroke-linecap:butt;stroke-linejoin:round;stroke-miterlimit:10;stroke-dasharray:none;stroke-opacity:1"
       d="M 92.276,285.1 V 254.9" /><path
       id="path24"
       style="fill:none;stroke:#000000;stroke-width:1;stroke-linecap:butt;stroke-linejoin:round;stroke-miterlimit:10;stroke-dasharray:none;stroke-opacity:1"
       d="M 52.65,285.1 V 254.9" /><path
       id="path26"
       style="fill:none;stroke:#000000;stroke-width:1;stroke-linecap:butt;stroke-linejoin:round;stroke-miterlimit:10;stroke-dasharray:none;stroke-opacity:1"
       d="M 131.9,285.1 V 254.9" /><path
       id="path28"
       style="fill:none;stroke:#000000;stroke-width:1;stroke-linecap:butt;stroke-linejoin:round;stroke-miterlimit:10;stroke-dasharray:none;stroke-opacity:1"
       d="M 52.15,284.6 H 132.4" /><path
       id="path30"
       style="fill:none;stroke:#000000;stroke-width:1;stroke-linecap:butt;stroke-linejoin:round;stroke-miterlimit:10;stroke-dasharray:none;stroke-opacity:1"
       d="M 52.15,255.4 H 132.4" /><g
       id="g32"><g
         clip-path="url(#clipPath38)"
         id="g34"><text
           id="text42"
           style="font-variant:normal;font-weight:bold;font-size:18px;font-family:Arial;-inkscape-font-specification:Arial-BoldMT;writing-mode:lr-tb;fill:#000000;fill-opacity:1;fill-rule:nonzero;stroke:none"
           transform="matrix(1,0,0,-1,67.464,263.42)"><tspan
             id="tspan40"
             y="0"
             x="0">2</tspan></text>
</g></g><path
       id="path44"
       style="fill:none;stroke:#000000;stroke-width:1;stroke-linecap:butt;stroke-linejoin:round;stroke-miterlimit:10;stroke-dasharray:none;stroke-opacity:1"
       d="M 203,285.1 V 254.9" /><path
       id="path46"
       style="fill:none;stroke:#000000;stroke-width:1;stroke-linecap:butt;stroke-linejoin:round;stroke-miterlimit:10;stroke-dasharray:none;stroke-opacity:1"
       d="M 163.37,285.1 V 254.9" /><path
       id="path48"
       style="fill:none;stroke:#000000;stroke-width:1;stroke-linecap:butt;stroke-linejoin:round;stroke-miterlimit:10;stroke-dasharray:none;stroke-opacity:1"
       d="M 242.62,285.1 V 254.9" /><path
       id="path50"
       style="fill:none;stroke:#000000;stroke-width:1;stroke-linecap:butt;stroke-linejoin:round;stroke-miterlimit:10;stroke-dasharray:none;stroke-opacity:1"
       d="m 162.87,284.6 h 80.25" /><path
       id="path52"
       style="fill:none;stroke:#000000;stroke-width:1;stroke-linecap:butt;stroke-linejoin:round;stroke-miterlimit:10;stroke-dasharray:none;stroke-opacity:1"
       d="m 162.87,255.4 h 80.25" /><g
       id="g54"><g
         clip-path="url(#clipPath60)"
         id="g56"><text
           id="text64"
           style="font-variant:normal;font-weight:bold;font-size:18px;font-family:Arial;-inkscape-font-specification:Arial-BoldMT;writing-mode:lr-tb;fill:#000000;fill-opacity:1;fill-rule:nonzero;stroke:none"
           transform="matrix(1,0,0,-1,178.2,263.42)"><tspan
             id="tspan62"
             y="0"
             x="0">2</tspan></text>
</g></g><g
       id="g66"><g
         clip-path="url(#clipPath72)"
         id="g68"><text
           id="text76"
           style="font-variant:normal;font-weight:normal;font-size:12px;font-family:Consolas;-inkscape-font-specification:Consolas;writing-mode:lr-tb;fill:#000000;fill-opacity:1;fill-rule:nonzero;stroke:none"
           transform="matrix(1,0,0,-1,52.584,329.45)"><tspan
             id="tspan74"
             y="0"
             x="0 6.5999999 13.2 19.799999 26.4 33 39.599998 46.307999 52.908001 59.507999 66.108002 72.708">current_node</tspan></text>
</g></g><g
       id="g78"><g
         clip-path="url(#clipPath84)"
         id="g80"><text
           id="text88"
           style="font-variant:normal;font-weight:normal;font-size:12px;font-family:Consolas;-inkscape-font-specification:Consolas;writing-mode:lr-tb;fill:#000000;fill-opacity:1;fill-rule:nonzero;stroke:none"
           transform="matrix(1,0,0,-1,62.4,303.24)"><tspan
             id="tspan86"
             y="0"
             x="0 6.5999999 13.2 19.799999 26.4 33 39.599998 46.307999 52.908001">next_node</tspan></text>
</g></g><path
       id="path90"
       style="fill:#000000;fill-opacity:1;fill-rule:nonzero;stroke:none"
       d="m 44.907,332.98 -0.84,-0.04 h 0.052 l -0.848,-0.13 0.051,0.01 -0.84,-0.23 0.044,0.02 -0.833,-0.31 0.041,0.02 -0.825,-0.39 0.033,0.01 -0.817,-0.46 0.032,0.02 -0.81,-0.55 0.026,0.02 -0.795,-0.62 0.022,0.02 -0.788,-0.68 0.023,0.02 -0.765,-0.75 0.017,0.02 -0.758,-0.82 0.017,0.02 -0.735,-0.88 0.015,0.02 -0.713,-0.94 0.011,0.02 -0.698,-0.99 0.013,0.02 -0.668,-1.05 0.01,0.02 -0.645,-1.1 0.007,0.02 -0.622,-1.14 0.01,0.02 -0.585,-1.18 0.009,0.02 -1.095,-2.48 0.012,0.03 -0.96,-2.63 0.01,0.03 -0.818,-2.74 0.008,0.03 -0.652,-2.83 0.004,0.02 -0.27,-1.44 0.003,0.02 -0.217,-1.47 0.002,0.02 -0.173,-1.47 0.002,0.01 -0.128,-1.47 0.001,0.01 -0.082,-1.48 v 0.02 l -0.022,-1.49 v 0.02 l 0.037,-1.48 -0.001,0.02 0.113,-1.48 -0.003,0.02 0.18,-1.48 -0.003,0.03 0.248,-1.47 -0.005,0.02 0.315,-1.46 -0.005,0.02 0.382,-1.44 -0.005,0.02 0.442,-1.43 -0.006,0.02 0.495,-1.41 -0.008,0.02 0.562,-1.38 -0.007,0.02 0.608,-1.36 -0.01,0.02 0.668,-1.33 -0.009,0.02 0.713,-1.3 -0.01,0.02 0.758,-1.26 -0.011,0.02 0.802,-1.23 -0.012,0.02 0.848,-1.18 -0.011,0.02 0.885,-1.14 -0.014,0.02 0.93,-1.1 -0.013,0.02 0.96,-1.05 -0.014,0.02 0.99,-0.99 -0.018,0.02 1.027,-0.93 -0.015,0.01 1.05,-0.88 -0.019,0.02 1.08,-0.82 -0.02,0.01 1.102,-0.75 -0.02,0.02 1.117,-0.69 -0.022,0.02 1.147,-0.63 -0.026,0.02 1.155,-0.54 -0.028,0.01 1.177,-0.46 -0.088,0.02 1.073,-0.21 -0.191,-0.98 -1.118,0.22 -1.235,0.49 -1.182,0.55 -1.172,0.63 -1.139,0.7 -1.123,0.76 -1.1,0.84 -1.067,0.89 -1.044,0.94 -1.006,1.01 -0.974,1.06 -0.943,1.11 -0.898,1.15 -0.859,1.2 -0.813,1.24 -0.768,1.27 -0.722,1.32 -0.676,1.34 -0.616,1.38 -0.57,1.4 -0.502,1.43 -0.449,1.44 -0.388,1.46 -0.32,1.49 -0.251,1.49 -0.183,1.5 -0.114,1.51 -0.038,1.51 0.023,1.5 0.083,1.51 0.129,1.49 0.174,1.48 0.22,1.48 0.274,1.46 0.658,2.86 0.827,2.77 0.97,2.65 1.106,2.51 0.595,1.21 0.631,1.14 0.654,1.11 0.678,1.06 0.709,1.01 0.726,0.95 0.75,0.9 0.774,0.84 0.785,0.77 0.81,0.7 0.818,0.63 0.839,0.57 0.851,0.48 0.862,0.41 0.875,0.32 0.887,0.24 0.899,0.14 0.866,0.05 z m 2.391,-58.95 5.367,-4.02 -6.44,-1.88 z" /><path
       id="path92"
       style="fill:#000000;fill-opacity:1;fill-rule:nonzero;stroke:none"
       d="m 54.922,307.7 -0.965,-0.03 -0.972,-0.08 -0.973,-0.14 -0.96,-0.18 -0.955,-0.23 -0.952,-0.29 -1.844,-0.69 -1.788,-0.86 -1.709,-1.02 -1.616,-1.15 -1.517,-1.28 -1.387,-1.4 -1.258,-1.48 -1.106,-1.59 -0.943,-1.64 -0.405,-0.85 -0.354,-0.87 -0.309,-0.87 -0.256,-0.88 -0.201,-0.89 -0.155,-0.9 -0.086,-0.91 -0.031,-0.9 0.023,-0.9 0.085,-0.91 0.132,-0.89 0.177,-0.88 0.225,-0.89 0.279,-0.87 0.667,-1.71 0.839,-1.64 0.983,-1.58 1.12,-1.49 1.235,-1.4 1.343,-1.28 1.444,-1.16 1.53,-1.01 1.616,-0.89 1.771,-0.54 0.293,0.96 -1.723,0.53 0.093,-0.04 -1.552,0.84 0.036,-0.02 -1.492,0.99 0.037,-0.03 -1.41,1.14 0.032,-0.03 -1.313,1.25 0.03,-0.03 -1.208,1.37 0.025,-0.03 -1.095,1.45 0.025,-0.04 -0.96,1.55 0.021,-0.04 -0.817,1.61 0.02,-0.05 -0.653,1.67 0.011,-0.03 -0.27,0.84 0.008,-0.02 -0.217,0.85 0.005,-0.02 -0.172,0.86 0.004,-0.03 -0.127,0.87 0.003,-0.03 -0.083,0.88 0.002,-0.04 -0.022,0.87 v -0.03 l 0.03,0.87 -0.002,-0.03 0.082,0.88 -0.005,-0.04 0.15,0.86 -0.005,-0.02 0.195,0.86 -0.007,-0.03 0.247,0.86 -0.009,-0.03 0.3,0.85 -0.008,-0.02 0.345,0.84 -0.011,-0.03 0.39,0.83 -0.018,-0.04 0.922,1.61 -0.024,-0.04 1.08,1.54 -0.028,-0.03 1.23,1.45 -0.027,-0.03 1.358,1.37 -0.033,-0.03 1.485,1.25 -0.031,-0.02 1.582,1.13 -0.036,-0.03 1.673,0.99 -0.037,-0.01 1.748,0.84 -0.044,-0.02 1.808,0.68 -0.031,-0.01 0.923,0.28 -0.027,-0.01 0.93,0.22 h -0.023 l 0.937,0.18 h -0.023 l 0.945,0.13 H 53.08 l 0.945,0.07 h -0.024 l 0.952,0.03 z m -8.745,-39.41 6.503,1.65 -5.219,4.21 z" /><path
       id="path94"
       style="fill:none;stroke:#000000;stroke-width:1;stroke-linecap:butt;stroke-linejoin:round;stroke-miterlimit:10;stroke-dasharray:none;stroke-opacity:1"
       d="M 343.33,285.3 V 255.1" /><path
       id="path96"
       style="fill:none;stroke:#000000;stroke-width:1;stroke-linecap:butt;stroke-linejoin:round;stroke-miterlimit:10;stroke-dasharray:none;stroke-opacity:1"
       d="M 303.7,285.3 V 255.1" /><path
       id="path98"
       style="fill:none;stroke:#000000;stroke-width:1;stroke-linecap:butt;stroke-linejoin:round;stroke-miterlimit:10;stroke-dasharray:none;stroke-opacity:1"
       d="M 382.95,285.3 V 255.1" /><path
       id="path100"
       style="fill:none;stroke:#000000;stroke-width:1;stroke-linecap:butt;stroke-linejoin:round;stroke-miterlimit:10;stroke-dasharray:none;stroke-opacity:1"
       d="m 303.2,284.8 h 80.25" /><path
       id="path102"
       style="fill:none;stroke:#000000;stroke-width:1;stroke-linecap:butt;stroke-linejoin:round;stroke-miterlimit:10;stroke-dasharray:none;stroke-opacity:1"
       d="m 303.2,255.6 h 80.25" /><g
       id="g104"><g
         clip-path="url(#clipPath110)"
         id="g106"><text
           id="text114"
           style="font-variant:normal;font-weight:bold;font-size:18px;font-family:Arial;-inkscape-font-specification:Arial-BoldMT;writing-mode:lr-tb;fill:#000000;fill-opacity:1;fill-rule:nonzero;stroke:none"
           transform="matrix(1,0,0,-1,318.55,263.62)"><tspan
             id="tspan112"
             y="0"
             x="0">2</tspan></text>
</g></g><path
       id="path116"
       style="fill:none;stroke:#000000;stroke-width:1;stroke-linecap:butt;stroke-linejoin:round;stroke-miterlimit:10;stroke-dasharray:none;stroke-opacity:1"
       d="M 454.05,285.3 V 255.1" /><path
       id="path118"
       style="fill:none;stroke:#000000;stroke-width:1;stroke-linecap:butt;stroke-linejoin:round;stroke-miterlimit:10;stroke-dasharray:none;stroke-opacity:1"
       d="M 414.42,285.3 V 255.1" /><path
       id="path120"
       style="fill:none;stroke:#000000;stroke-width:1;stroke-linecap:butt;stroke-linejoin:round;stroke-miterlimit:10;stroke-dasharray:none;stroke-opacity:1"
       d="M 493.67,285.3 V 255.1" /><path
       id="path122"
       style="fill:none;stroke:#000000;stroke-width:1;stroke-linecap:butt;stroke-linejoin:round;stroke-miterlimit:10;stroke-dasharray:none;stroke-opacity:1"
       d="m 413.92,284.8 h 80.25" /><path
       id="path124"
       style="fill:none;stroke:#000000;stroke-width:1;stroke-linecap:butt;stroke-linejoin:round;stroke-miterlimit:10;stroke-dasharray:none;stroke-opacity:1"
       d="m 413.92,255.6 h 80.25" /><g
       id="g126"><g
         clip-path="url(#clipPath132)"
         id="g128"><text
           id="text136"
           style="font-variant:normal;font-weight:bold;font-size:18px;font-family:Arial;-inkscape-font-specification:Arial-BoldMT;writing-mode:lr-tb;fill:#000000;fill-opacity:1;fill-rule:nonzero;stroke:none"
           transform="matrix(1,0,0,-1,429.29,263.62)"><tspan
             id="tspan134"
             y="0"
             x="0">2</tspan></text>
</g></g><g
       id="g138"><g
         clip-path="url(#clipPath144)"
         id="g140"><text
           id="text148"
           style="font-variant:normal;font-weight:normal;font-size:12px;font-family:Consolas;-inkscape-font-specification:Consolas;writing-mode:lr-tb;fill:#000000;fill-opacity:1;fill-rule:nonzero;stroke:none"
           transform="matrix(1,0,0,-1,303.67,303.24)"><tspan
             id="tspan146"
             y="0"
             x="0 6.5999999 13.2 19.799999 26.4 33 39.599998 46.307999 52.908001 59.507999 66.108002 72.708">current_node</tspan></text>
</g></g><g
       id="g150"><g
         clip-path="url(#clipPath156)"
         id="g152"><text
           id="text160"
           style="font-variant:normal;font-weight:normal;font-size:12px;font-family:Consolas;-inkscape-font-specification:Consolas;writing-mode:lr-tb;fill:#000000;fill-opacity:1;fill-rule:nonzero;stroke:none"
           transform="matrix(1,0,0,-1,424.22,303.24)"><tspan
             id="tspan158"
             y="0"
             x="0 6.5999999 13.2 19.799999 26.4 33 39.599998 46.307999 52.908001">next_node</tspan></text>
</g></g><path
       id="path162"
       style="fill:#000000;fill-opacity:1;fill-rule:nonzero;stroke:none"
       d="m 295.94,306.7 -0.84,-0.03 h 0.02 l -0.84,-0.07 h 0.03 l -0.84,-0.13 h 0.03 l -0.83,-0.18 0.02,0.01 -0.82,-0.23 0.02,0.01 -0.82,-0.27 0.04,0.01 -1.6,-0.67 0.04,0.02 -1.55,-0.84 0.04,0.02 -1.5,-0.99 0.04,0.03 -1.41,-1.13 0.03,0.03 -1.31,-1.24 0.03,0.03 -1.21,-1.36 0.03,0.03 -1.1,-1.45 0.03,0.04 -0.96,-1.54 0.02,0.04 -0.82,-1.6 0.02,0.05 -0.65,-1.65 0.01,0.03 -0.27,-0.85 0.01,0.03 -0.22,-0.85 0.01,0.03 -0.18,-0.86 0.01,0.03 -0.13,-0.87 v 0.03 l -0.08,-0.87 v 0.03 l -0.02,-0.87 v 0.04 l 0.04,-0.87 -0.01,0.04 0.12,-0.86 -0.01,0.04 0.18,-0.87 -0.01,0.04 0.25,-0.86 -0.01,0.03 0.31,-0.84 -0.01,0.03 0.38,-0.85 -0.01,0.03 0.44,-0.83 -0.01,0.02 0.49,-0.82 -0.02,0.03 0.57,-0.81 -0.02,0.02 0.61,-0.79 -0.02,0.02 0.67,-0.78 -0.02,0.02 0.72,-0.76 -0.02,0.02 0.76,-0.74 -0.02,0.02 0.8,-0.71 -0.02,0.02 1.73,-1.36 -0.03,0.02 1.89,-1.24 -0.03,0.02 2.02,-1.13 -0.04,0.02 2.13,-0.99 -0.03,0.01 2.22,-0.83 -0.04,0.01 2.31,-0.68 -0.03,0.01 1.17,-0.27 -0.05,0.01 1.02,-0.11 -0.11,-1 -1.05,0.12 -1.22,0.28 -2.34,0.69 -2.25,0.84 -2.16,1.01 -2.05,1.14 -1.93,1.27 -1.76,1.38 -0.82,0.73 -0.77,0.75 -0.73,0.77 -0.69,0.8 -0.62,0.81 -0.58,0.83 -0.51,0.85 -0.45,0.85 -0.4,0.88 -0.33,0.88 -0.26,0.9 -0.18,0.9 -0.12,0.9 -0.04,0.91 0.02,0.91 0.09,0.9 0.13,0.89 0.18,0.88 0.22,0.87 0.28,0.88 0.67,1.69 0.84,1.63 0.98,1.58 1.12,1.48 1.24,1.39 1.34,1.27 1.44,1.15 1.53,1.02 1.6,0.86 1.64,0.69 0.85,0.28 0.85,0.24 0.86,0.18 0.87,0.14 0.88,0.08 0.85,0.03 z m 2.12,-32.94 5.64,-3.62 -6.28,-2.35 z" /><path
       id="path164"
       style="fill:#000000;fill-opacity:1;fill-rule:nonzero;stroke:none"
       d="m 416.71,307.7 -0.96,-0.03 -0.97,-0.08 -0.97,-0.14 -0.97,-0.18 -0.95,-0.23 -0.94,-0.28 -1.85,-0.69 -1.79,-0.86 -1.71,-1.01 -1.62,-1.15 -1.51,-1.27 -1.39,-1.39 -1.26,-1.48 -1.11,-1.57 -0.93,-1.64 -0.41,-0.84 -0.36,-0.86 -0.3,-0.88 -0.26,-0.87 -0.21,-0.88 -0.14,-0.9 -0.09,-0.9 -0.03,-0.9 0.02,-0.9 0.09,-0.9 0.13,-0.88 0.18,-0.89 0.22,-0.88 0.28,-0.87 0.67,-1.69 0.84,-1.64 0.98,-1.57 1.12,-1.48 1.24,-1.39 1.34,-1.28 1.44,-1.15 1.53,-1.01 1.62,-0.87 1.77,-0.55 0.29,0.96 -1.72,0.53 0.09,-0.04 -1.55,0.84 0.04,-0.03 -1.5,0.99 0.04,-0.02 -1.41,1.12 0.03,-0.03 -1.31,1.25 0.03,-0.03 -1.21,1.35 0.03,-0.03 -1.1,1.45 0.03,-0.04 -0.96,1.54 0.02,-0.03 -0.82,1.59 0.02,-0.04 -0.65,1.65 0.01,-0.03 -0.27,0.84 0.01,-0.02 -0.22,0.84 0.01,-0.02 -0.18,0.86 0.01,-0.02 -0.13,0.86 v -0.03 l -0.08,0.87 v -0.04 l -0.02,0.87 v -0.03 l 0.03,0.87 v -0.03 l 0.08,0.87 v -0.03 l 0.14,0.86 -0.01,-0.04 0.2,0.86 v -0.03 l 0.25,0.85 -0.01,-0.02 0.29,0.85 -0.01,-0.03 0.35,0.83 -0.01,-0.02 0.39,0.81 -0.02,-0.03 0.92,1.6 -0.03,-0.04 1.08,1.54 -0.02,-0.04 1.23,1.45 -0.03,-0.03 1.36,1.36 -0.03,-0.03 1.48,1.24 -0.03,-0.02 1.58,1.12 -0.04,-0.02 1.68,0.99 -0.03,-0.02 1.74,0.84 -0.04,-0.02 1.81,0.68 -0.03,-0.01 0.91,0.27 -0.02,-0.01 0.93,0.22 h -0.03 l 0.94,0.18 h -0.02 l 0.94,0.13 h -0.03 l 0.95,0.07 h -0.03 l 0.96,0.03 z m -8.73,-39.22 6.5,1.66 -5.22,4.21 z" /><path
       id="path166"
       style="fill:none;stroke:#000000;stroke-width:1;stroke-linecap:butt;stroke-linejoin:round;stroke-miterlimit:10;stroke-dasharray:none;stroke-opacity:1"
       d="M 594.38,285.3 V 255.1" /><path
       id="path168"
       style="fill:none;stroke:#000000;stroke-width:1;stroke-linecap:butt;stroke-linejoin:round;stroke-miterlimit:10;stroke-dasharray:none;stroke-opacity:1"
       d="M 554.76,285.3 V 255.1" /><path
       id="path170"
       style="fill:none;stroke:#000000;stroke-width:1;stroke-linecap:butt;stroke-linejoin:round;stroke-miterlimit:10;stroke-dasharray:none;stroke-opacity:1"
       d="M 634.01,285.3 V 255.1" /><path
       id="path172"
       style="fill:none;stroke:#000000;stroke-width:1;stroke-linecap:butt;stroke-linejoin:round;stroke-miterlimit:10;stroke-dasharray:none;stroke-opacity:1"
       d="m 554.26,284.8 h 80.25" /><path
       id="path174"
       style="fill:none;stroke:#000000;stroke-width:1;stroke-linecap:butt;stroke-linejoin:round;stroke-miterlimit:10;stroke-dasharray:none;stroke-opacity:1"
       d="m 554.26,255.6 h 80.25" /><g
       id="g176"><g
         clip-path="url(#clipPath182)"
         id="g178"><text
           id="text186"
           style="font-variant:normal;font-weight:bold;font-size:18px;font-family:Arial;-inkscape-font-specification:Arial-BoldMT;writing-mode:lr-tb;fill:#000000;fill-opacity:1;fill-rule:nonzero;stroke:none"
           transform="matrix(1,0,0,-1,569.64,263.62)"><tspan
             id="tspan184"
             y="0"
             x="0">2</tspan></text>
</g></g><g
       id="g188"><g
         clip-path="url(#clipPath194)"
         id="g190"><text
           id="text198"
           style="font-variant:normal;font-weight:normal;font-size:12px;font-family:Consolas;-inkscape-font-specification:Consolas;writing-mode:lr-tb;fill:#000000;fill-opacity:1;fill-rule:nonzero;stroke:none"
           transform="matrix(1,0,0,-1,554.74,329.18)"><tspan
             id="tspan196"
             y="0"
             x="0 6.5999999 13.2 19.799999 26.4 33 39.599998 46.307999 52.908001 59.507999 66.108002 72.708">current_node</tspan></text>
</g></g><g
       id="g200"><g
         clip-path="url(#clipPath206)"
         id="g202"><text
           id="text210"
           style="font-variant:normal;font-weight:normal;font-size:12px;font-family:Consolas;-inkscape-font-specification:Consolas;writing-mode:lr-tb;fill:#000000;fill-opacity:1;fill-rule:nonzero;stroke:none"
           transform="matrix(1,0,0,-1,564.58,303.24)"><tspan
             id="tspan208"
             y="0"
             x="0 6.5999999 13.2 19.799999 26.4 33 39.599998 46.307999 52.908001">next_node</tspan></text>
</g></g><path
       id="path212"
       style="fill:#000000;fill-opacity:1;fill-rule:nonzero;stroke:none"
       d="m 546.99,332.74 -0.84,-0.04 h 0.05 l -0.85,-0.13 0.05,0.01 -0.84,-0.23 0.04,0.01 -0.83,-0.3 0.04,0.02 -0.82,-0.39 0.03,0.02 -0.82,-0.46 0.03,0.01 -0.81,-0.54 0.03,0.02 -0.79,-0.6 0.02,0.01 -0.79,-0.68 0.02,0.02 -0.76,-0.74 0.02,0.02 -0.76,-0.81 0.02,0.02 -0.74,-0.88 0.01,0.01 -0.71,-0.92 0.01,0.02 -0.69,-0.98 0.01,0.01 -0.67,-1.03 0.01,0.01 -0.65,-1.08 0.01,0.01 -0.62,-1.13 0.01,0.02 -0.59,-1.17 0.01,0.02 -1.09,-2.47 0.01,0.03 -0.96,-2.6 0.01,0.03 -0.82,-2.73 0.01,0.03 -0.65,-2.8 v 0.02 l -0.27,-1.44 0.01,0.02 -0.22,-1.45 v 0.02 l -0.17,-1.46 v 0.02 l -0.13,-1.47 v 0.01 l -0.08,-1.47 v 0.02 l -0.02,-1.48 v 0.03 l 0.04,-1.48 v 0.02 l 0.11,-1.47 v 0.03 l 0.18,-1.47 -0.01,0.02 0.25,-1.46 v 0.02 l 0.31,-1.45 v 0.02 l 0.38,-1.43 -0.01,0.02 0.44,-1.42 v 0.02 l 0.5,-1.39 -0.01,0.02 0.56,-1.38 -0.01,0.02 0.61,-1.34 -0.01,0.02 0.67,-1.32 -0.01,0.02 0.71,-1.28 -0.01,0.01 0.76,-1.25 -0.01,0.02 0.81,-1.22 -0.01,0.02 0.84,-1.18 -0.02,0.02 0.89,-1.13 -0.01,0.02 0.93,-1.09 -0.02,0.02 0.96,-1.04 -0.01,0.02 0.99,-0.99 -0.01,0.02 1.02,-0.93 -0.02,0.01 1.06,-0.87 -0.02,0.02 1.08,-0.81 -0.02,0.01 1.1,-0.74 -0.02,0.01 1.12,-0.68 -0.03,0.01 1.15,-0.6 -0.02,0.01 1.15,-0.54 -0.02,0.01 1.17,-0.46 -0.09,0.02 1.08,-0.21 -0.19,-0.98 -1.12,0.22 -1.24,0.49 -1.18,0.55 -1.17,0.62 -1.14,0.69 -1.12,0.76 -1.1,0.82 -1.08,0.89 -1.03,0.94 -1.01,1 -0.98,1.05 -0.93,1.11 -0.91,1.14 -0.85,1.19 -0.82,1.23 -0.77,1.27 -0.72,1.3 -0.68,1.34 -0.61,1.36 -0.57,1.39 -0.51,1.42 -0.45,1.43 -0.38,1.46 -0.32,1.47 -0.25,1.48 -0.19,1.5 -0.11,1.49 -0.04,1.5 0.02,1.5 0.09,1.49 0.13,1.48 0.17,1.47 0.22,1.47 0.27,1.46 0.66,2.83 0.83,2.75 0.97,2.63 1.11,2.49 0.59,1.19 0.63,1.15 0.65,1.1 0.68,1.06 0.71,1 0.73,0.93 0.75,0.9 0.77,0.83 0.79,0.76 0.81,0.7 0.82,0.63 0.83,0.56 0.85,0.48 0.87,0.41 0.87,0.31 0.89,0.24 0.9,0.14 0.86,0.05 z m 2.39,-58.5 5.37,-4.01 -6.44,-1.89 z" /><path
       id="path214"
       style="fill:#000000;fill-opacity:1;fill-rule:nonzero;stroke:none"
       d="m 556.99,307.7 -0.96,-0.03 -0.97,-0.08 -0.97,-0.14 -0.97,-0.18 -0.95,-0.23 -0.94,-0.28 -1.85,-0.69 -1.79,-0.86 -1.71,-1.01 -1.62,-1.15 -1.51,-1.27 -1.39,-1.39 -1.26,-1.48 -1.11,-1.57 -0.93,-1.64 -0.41,-0.84 -0.36,-0.86 -0.3,-0.88 -0.26,-0.87 -0.21,-0.88 -0.14,-0.9 -0.09,-0.9 -0.03,-0.9 0.02,-0.9 0.09,-0.9 0.13,-0.88 0.18,-0.89 0.22,-0.88 0.28,-0.87 0.67,-1.69 0.84,-1.64 0.98,-1.57 1.12,-1.48 1.24,-1.39 1.34,-1.28 1.44,-1.15 1.53,-1.01 1.62,-0.87 1.77,-0.55 0.29,0.96 -1.72,0.53 0.09,-0.04 -1.55,0.84 0.04,-0.03 -1.5,0.99 0.04,-0.02 -1.41,1.12 0.03,-0.03 -1.31,1.25 0.03,-0.03 -1.21,1.35 0.03,-0.03 -1.1,1.45 0.03,-0.04 -0.96,1.54 0.02,-0.03 -0.82,1.59 0.02,-0.04 -0.65,1.65 0.01,-0.03 -0.27,0.84 0.01,-0.02 -0.22,0.84 0.01,-0.02 -0.18,0.86 0.01,-0.02 -0.13,0.86 v -0.03 l -0.08,0.87 v -0.04 l -0.02,0.87 v -0.03 l 0.03,0.87 v -0.03 l 0.08,0.87 v -0.03 l 0.14,0.86 -0.01,-0.04 0.2,0.86 v -0.03 l 0.25,0.85 -0.01,-0.02 0.29,0.85 -0.01,-0.03 0.35,0.83 -0.01,-0.02 0.39,0.81 -0.02,-0.03 0.92,1.6 -0.03,-0.04 1.08,1.54 -0.02,-0.04 1.23,1.45 -0.03,-0.03 1.36,1.36 -0.03,-0.03 1.48,1.24 -0.03,-0.02 1.58,1.12 -0.04,-0.02 1.68,0.99 -0.03,-0.02 1.74,0.84 -0.04,-0.02 1.81,0.68 -0.03,-0.01 0.91,0.27 -0.02,-0.01 0.93,0.22 h -0.03 l 0.94,0.18 h -0.02 l 0.94,0.13 h -0.03 l 0.95,0.07 h -0.03 l 0.96,0.03 z m -8.73,-39.22 6.5,1.66 -5.22,4.21 z" /></g></svg>