<?xml version="1.0" encoding="UTF-8" standalone="no"?>
<svg
   xmlns:dc="http://purl.org/dc/elements/1.1/"
   xmlns:cc="http://creativecommons.org/ns#"
   xmlns:rdf="http://www.w3.org/1999/02/22-rdf-syntax-ns#"
   xmlns:svg="http://www.w3.org/2000/svg"
   xmlns="http://www.w3.org/2000/svg"
   viewBox="178 225 872 168"
   height="168"
   width="872"
   xml:space="preserve"
   id="svg2"
   version="1.1"><metadata
     id="metadata8"><rdf:RDF><cc:Work
         rdf:about=""><dc:format>image/svg+xml</dc:format><dc:type
           rdf:resource="http://purl.org/dc/dcmitype/StillImage" /></cc:Work></rdf:RDF></metadata><defs
     id="defs6"><clipPath
       id="clipPath18"
       clipPathUnits="userSpaceOnUse"><path
         style="clip-rule:evenodd"
         id="path16"
         d="M 0,1.2207e-4 H 960 V 540.00012 H 0 Z" /></clipPath><clipPath
       id="clipPath38"
       clipPathUnits="userSpaceOnUse"><path
         style="clip-rule:evenodd"
         id="path36"
         d="M 1.4305e-5,0 H 960.00001 V 540 H 1.4305e-5 Z" /></clipPath><clipPath
       id="clipPath60"
       clipPathUnits="userSpaceOnUse"><path
         style="clip-rule:evenodd"
         id="path58"
         d="M 1.4305e-5,0 H 960.00001 V 540 H 1.4305e-5 Z" /></clipPath><clipPath
       id="clipPath72"
       clipPathUnits="userSpaceOnUse"><path
         style="clip-rule:evenodd"
         id="path70"
         d="M 1.4305e-5,0 H 960.00001 V 540 H 1.4305e-5 Z" /></clipPath><clipPath
       id="clipPath94"
       clipPathUnits="userSpaceOnUse"><path
         style="clip-rule:evenodd"
         id="path92"
         d="M 1.4305e-5,0 H 960.00001 V 540 H 1.4305e-5 Z" /></clipPath><clipPath
       id="clipPath108"
       clipPathUnits="userSpaceOnUse"><path
         style="clip-rule:evenodd"
         id="path106"
         d="M 1.4305e-5,0 H 960.00001 V 540 H 1.4305e-5 Z" /></clipPath><clipPath
       id="clipPath120"
       clipPathUnits="userSpaceOnUse"><path
         style="clip-rule:evenodd"
         id="path118"
         d="M 1.4305e-5,0 H 960.00001 V 540 H 1.4305e-5 Z" /></clipPath><clipPath
       id="clipPath132"
       clipPathUnits="userSpaceOnUse"><path
         style="clip-rule:evenodd"
         id="path130"
         d="M 3.0518e-5,540 H 960 V 2.4414e-4 L 4.5776e-5,1.8311e-4" /></clipPath><clipPath
       id="clipPath142"
       clipPathUnits="userSpaceOnUse"><path
         style="clip-rule:evenodd"
         id="path140"
         d="M 1.4305e-5,0 H 960.00001 V 540 H 1.4305e-5 Z" /></clipPath><clipPath
       id="clipPath154"
       clipPathUnits="userSpaceOnUse"><path
         style="clip-rule:evenodd"
         id="path152"
         d="M 1.4305e-5,0 H 960.00001 V 540 H 1.4305e-5 Z" /></clipPath><clipPath
       id="clipPath166"
       clipPathUnits="userSpaceOnUse"><path
         style="clip-rule:evenodd"
         id="path164"
         d="M 3.0518e-5,540 H 960 V 2.4414e-4 L 6.1035e-5,1.8311e-4" /></clipPath><clipPath
       id="clipPath186"
       clipPathUnits="userSpaceOnUse"><path
         style="clip-rule:evenodd"
         id="path184"
         d="M 1.4305e-5,0 H 960.00001 V 540 H 1.4305e-5 Z" /></clipPath><clipPath
       id="clipPath198"
       clipPathUnits="userSpaceOnUse"><path
         style="clip-rule:evenodd"
         id="path196"
         d="M 1.4305e-5,0 H 960.00001 V 540 H 1.4305e-5 Z" /></clipPath><clipPath
       id="clipPath220"
       clipPathUnits="userSpaceOnUse"><path
         style="clip-rule:evenodd"
         id="path218"
         d="M 1.4305e-5,0 H 960.00001 V 540 H 1.4305e-5 Z" /></clipPath><clipPath
       id="clipPath234"
       clipPathUnits="userSpaceOnUse"><path
         style="clip-rule:evenodd"
         id="path232"
         d="M 1.4305e-5,0 H 960.00001 V 540 H 1.4305e-5 Z" /></clipPath><clipPath
       id="clipPath246"
       clipPathUnits="userSpaceOnUse"><path
         style="clip-rule:evenodd"
         id="path244"
         d="M 1.4305e-5,0 H 960.00001 V 540 H 1.4305e-5 Z" /></clipPath><clipPath
       id="clipPath258"
       clipPathUnits="userSpaceOnUse"><path
         style="clip-rule:evenodd"
         id="path256"
         d="M 6.1035e-5,540 H 960 V 2.4414e-4 L 1.2207e-4,1.8311e-4" /></clipPath><clipPath
       id="clipPath268"
       clipPathUnits="userSpaceOnUse"><path
         style="clip-rule:evenodd"
         id="path266"
         d="M 1.4305e-5,0 H 960.00001 V 540 H 1.4305e-5 Z" /></clipPath><clipPath
       id="clipPath280"
       clipPathUnits="userSpaceOnUse"><path
         style="clip-rule:evenodd"
         id="path278"
         d="M 1.4305e-5,0 H 960.00001 V 540 H 1.4305e-5 Z" /></clipPath><clipPath
       id="clipPath292"
       clipPathUnits="userSpaceOnUse"><path
         style="clip-rule:evenodd"
         id="path290"
         d="M 1.4305e-5,0 H 960.00001 V 540 H 1.4305e-5 Z" /></clipPath><clipPath
       id="clipPath304"
       clipPathUnits="userSpaceOnUse"><path
         style="clip-rule:evenodd"
         id="path302"
         d="M 1.4305e-5,0 H 960.00001 V 540 H 1.4305e-5 Z" /></clipPath></defs><g
     transform="matrix(1.3333333,0,0,-1.3333333,0,720)"
     id="g10"><g
       id="g12"><g
         clip-path="url(#clipPath18)"
         id="g14"><path
           id="path20"
           style="fill:#ffffff;fill-opacity:1;fill-rule:evenodd;stroke:none"
           d="M 0,6.1035e-5 H 960 V 540.00006 H 0 Z" /></g></g><path
       id="path22"
       style="fill:none;stroke:#000000;stroke-width:1;stroke-linecap:butt;stroke-linejoin:round;stroke-miterlimit:10;stroke-dasharray:none;stroke-opacity:1"
       d="M 202.74,284.5 V 254.3" /><path
       id="path24"
       style="fill:none;stroke:#000000;stroke-width:1;stroke-linecap:butt;stroke-linejoin:round;stroke-miterlimit:10;stroke-dasharray:none;stroke-opacity:1"
       d="M 163.11,284.5 V 254.3" /><path
       id="path26"
       style="fill:none;stroke:#000000;stroke-width:1;stroke-linecap:butt;stroke-linejoin:round;stroke-miterlimit:10;stroke-dasharray:none;stroke-opacity:1"
       d="M 242.36,284.5 V 254.3" /><path
       id="path28"
       style="fill:none;stroke:#000000;stroke-width:1;stroke-linecap:butt;stroke-linejoin:round;stroke-miterlimit:10;stroke-dasharray:none;stroke-opacity:1"
       d="m 162.61,284 h 80.25" /><path
       id="path30"
       style="fill:none;stroke:#000000;stroke-width:1;stroke-linecap:butt;stroke-linejoin:round;stroke-miterlimit:10;stroke-dasharray:none;stroke-opacity:1"
       d="m 162.61,254.8 h 80.25" /><g
       id="g32"><g
         clip-path="url(#clipPath38)"
         id="g34"><text
           id="text42"
           style="font-variant:normal;font-weight:bold;font-size:18px;font-family:Arial;-inkscape-font-specification:Arial-BoldMT;writing-mode:lr-tb;fill:#000000;fill-opacity:1;fill-rule:nonzero;stroke:none"
           transform="matrix(1,0,0,-1,177.96,262.82)"><tspan
             id="tspan40"
             y="0"
             x="0">1</tspan></text>
</g></g><path
       id="path44"
       style="fill:none;stroke:#000000;stroke-width:1;stroke-linecap:butt;stroke-linejoin:round;stroke-miterlimit:10;stroke-dasharray:none;stroke-opacity:1"
       d="M 345.81,285.1 V 254.9" /><path
       id="path46"
       style="fill:none;stroke:#000000;stroke-width:1;stroke-linecap:butt;stroke-linejoin:round;stroke-miterlimit:10;stroke-dasharray:none;stroke-opacity:1"
       d="M 306.18,285.1 V 254.9" /><path
       id="path48"
       style="fill:none;stroke:#000000;stroke-width:1;stroke-linecap:butt;stroke-linejoin:round;stroke-miterlimit:10;stroke-dasharray:none;stroke-opacity:1"
       d="M 385.43,285.1 V 254.9" /><path
       id="path50"
       style="fill:none;stroke:#000000;stroke-width:1;stroke-linecap:butt;stroke-linejoin:round;stroke-miterlimit:10;stroke-dasharray:none;stroke-opacity:1"
       d="m 305.68,284.6 h 80.25" /><path
       id="path52"
       style="fill:none;stroke:#000000;stroke-width:1;stroke-linecap:butt;stroke-linejoin:round;stroke-miterlimit:10;stroke-dasharray:none;stroke-opacity:1"
       d="m 305.68,255.4 h 80.25" /><g
       id="g54"><g
         clip-path="url(#clipPath60)"
         id="g56"><text
           id="text64"
           style="font-variant:normal;font-weight:normal;font-size:9.96000004px;font-family:MalgunGothic;-inkscape-font-specification:MalgunGothic;writing-mode:lr-tb;fill:#000000;fill-opacity:1;fill-rule:nonzero;stroke:none"
           transform="matrix(1,0,0,-1,314.66,271.22)"><tspan
             id="tspan62"
             y="0"
             x="0">새</tspan></text>
</g></g><g
       id="g66"><g
         clip-path="url(#clipPath72)"
         id="g68"><text
           id="text76"
           style="font-variant:normal;font-weight:normal;font-size:9.96000004px;font-family:MalgunGothic;-inkscape-font-specification:MalgunGothic;writing-mode:lr-tb;fill:#000000;fill-opacity:1;fill-rule:nonzero;stroke:none"
           transform="matrix(1,0,0,-1,327.41,271.22)"><tspan
             id="tspan74"
             y="0"
             x="0">값</tspan></text>
</g></g><path
       id="path78"
       style="fill:none;stroke:#000000;stroke-width:1;stroke-linecap:butt;stroke-linejoin:round;stroke-miterlimit:10;stroke-dasharray:none;stroke-opacity:1"
       d="M 451.91,285.1 V 254.9" /><path
       id="path80"
       style="fill:none;stroke:#000000;stroke-width:1;stroke-linecap:butt;stroke-linejoin:round;stroke-miterlimit:10;stroke-dasharray:none;stroke-opacity:1"
       d="M 412.28,285.1 V 254.9" /><path
       id="path82"
       style="fill:none;stroke:#000000;stroke-width:1;stroke-linecap:butt;stroke-linejoin:round;stroke-miterlimit:10;stroke-dasharray:none;stroke-opacity:1"
       d="M 491.53,285.1 V 254.9" /><path
       id="path84"
       style="fill:none;stroke:#000000;stroke-width:1;stroke-linecap:butt;stroke-linejoin:round;stroke-miterlimit:10;stroke-dasharray:none;stroke-opacity:1"
       d="m 411.78,284.6 h 80.25" /><path
       id="path86"
       style="fill:none;stroke:#000000;stroke-width:1;stroke-linecap:butt;stroke-linejoin:round;stroke-miterlimit:10;stroke-dasharray:none;stroke-opacity:1"
       d="m 411.78,255.4 h 80.25" /><g
       id="g88"><g
         clip-path="url(#clipPath94)"
         id="g90"><text
           id="text98"
           style="font-variant:normal;font-weight:bold;font-size:18px;font-family:Arial;-inkscape-font-specification:Arial-BoldMT;writing-mode:lr-tb;fill:#000000;fill-opacity:1;fill-rule:nonzero;stroke:none"
           transform="matrix(1,0,0,-1,427.15,263.42)"><tspan
             id="tspan96"
             y="0"
             x="0">1</tspan></text>
</g></g><path
       id="path100"
       style="fill:#000000;fill-opacity:1;fill-rule:nonzero;stroke:none"
       d="m 366.96,270.5 4.23,-0.02 h 2.08 l 2.02,-0.03 1.96,-0.02 1.88,-0.02 1.78,-0.04 1.65,-0.03 1.53,-0.04 1.38,-0.03 0.63,-0.03 0.58,-0.02 0.54,-0.02 0.49,-0.02 0.45,-0.03 0.39,-0.02 0.34,-0.02 0.29,-0.02 0.23,-0.03 0.19,-0.03 0.23,-0.05 0.11,-0.08 0.03,-0.02 -0.19,0.08 0.1,-0.02 -0.04,0.01 0.16,-0.02 h -0.02 l 0.22,-0.03 -0.01,0.01 0.28,-0.03 h -0.01 l 0.33,-0.02 v 0 l 0.39,-0.02 h -0.01 l 0.45,-0.02 h -0.01 l 0.49,-0.03 v 0 l 0.54,-0.02 v 0 l 0.58,-0.02 0.62,-0.02 v 0 l 1.37,-0.04 1.53,-0.04 v 0 l 1.65,-0.03 1.77,-0.03 1.88,-0.03 v 0 l 1.95,-0.02 v 0 l 2.03,-0.02 h 1.3 l -0.01,-1 h -1.3 l -2.03,0.02 -1.96,0.02 -1.87,0.03 -1.77,0.03 -1.66,0.03 -1.54,0.04 -1.37,0.04 -0.63,0.02 -0.58,0.02 -0.54,0.03 -0.49,0.02 -0.45,0.02 -0.39,0.02 -0.34,0.03 -0.29,0.02 -0.23,0.02 -0.19,0.03 -0.23,0.05 -0.11,0.09 -0.03,0.02 0.19,-0.09 -0.1,0.03 0.04,-0.01 -0.16,0.02 h 0.02 l -0.22,0.02 h 0.01 l -0.28,0.02 h 0.01 l -0.34,0.02 h 0.01 l -0.39,0.03 h 0.01 l -0.45,0.02 h 0.01 l -0.49,0.02 v 0 l -0.54,0.02 v 0 l -0.58,0.03 -0.62,0.02 v 0 l -1.38,0.04 -1.52,0.03 v 0 l -1.66,0.03 -1.77,0.04 v 0 l -1.87,0.02 -1.96,0.03 -2.02,0.02 h 0.01 l -2.08,0.01 -4.23,0.01 z m 39.37,1.52 5.98,-3.02 -6.01,-2.98 z" /><g
       id="g102"><g
         clip-path="url(#clipPath108)"
         id="g104"><text
           id="text112"
           style="font-variant:normal;font-weight:normal;font-size:18px;font-family:ArialMT;-inkscape-font-specification:ArialMT;writing-mode:lr-tb;fill:#000000;fill-opacity:1;fill-rule:nonzero;stroke:none"
           transform="matrix(1,0,0,-1,151.75,343.8)"><tspan
             id="tspan110"
             y="0"
             x="0 12.996 22.914 32.922001">Head</tspan></text>
</g></g><g
       id="g114"><g
         clip-path="url(#clipPath120)"
         id="g116"><text
           id="text124"
           style="font-variant:normal;font-weight:normal;font-size:18px;font-family:MalgunGothic;-inkscape-font-specification:MalgunGothic;writing-mode:lr-tb;fill:#000000;fill-opacity:1;fill-rule:nonzero;stroke:none"
           transform="matrix(1,0,0,-1,199.75,343.8)"><tspan
             id="tspan122"
             y="0"
             x="0 18 36">포인터</tspan></text>
</g></g><g
       id="g126"><g
         clip-path="url(#clipPath132)"
         id="g128"><path
           id="path134"
           style="fill:#000000;fill-opacity:1;fill-rule:nonzero;stroke:none"
           d="m 203.21,335.86 -0.05,-1.23 -0.12,-1.25 -0.21,-1.24 -0.28,-1.22 -0.36,-1.23 -0.44,-1.21 -0.5,-1.18 -0.57,-1.17 -0.64,-1.16 -0.69,-1.13 -0.76,-1.11 -0.8,-1.07 -0.87,-1.05 -0.91,-1.01 -0.96,-0.98 -1.02,-0.95 -2.13,-1.77 -1.13,-0.82 -1.16,-0.78 -1.19,-0.72 -1.23,-0.68 -1.25,-0.62 -1.27,-0.58 -1.3,-0.51 -1.31,-0.45 -1.34,-0.39 -1.35,-0.32 -1.36,-0.26 -1.37,-0.18 -1.37,-0.11 -1.36,-0.04 -1.35,-0.03 h 0.02 l -1.35,-0.09 h 0.02 l -1.34,-0.14 h 0.01 l -1.33,-0.19 h 0.02 l -1.32,-0.25 0.02,0.01 -1.31,-0.3 h 0.01 l -1.29,-0.35 0.01,0.01 -1.27,-0.39 0.03,0.01 -2.49,-0.92 0.04,0.01 -2.39,-1.08 0.03,0.02 -2.25,-1.23 0.04,0.02 -2.11,-1.37 0.02,0.02 -1,-0.73 0.02,0.01 -0.94,-0.75 0.01,0.02 -0.9,-0.79 0.02,0.01 -0.85,-0.8 0.02,0.02 -0.8,-0.83 0.02,0.02 -0.74,-0.85 0.01,0.02 -0.68,-0.87 0.02,0.02 -0.63,-0.88 0.02,0.02 -0.56,-0.89 0.02,0.02 -0.5,-0.91 0.02,0.03 -0.43,-0.93 0.02,0.04 -0.36,-0.93 0.01,0.03 -0.27,-0.93 0.01,0.03 -0.21,-0.94 0.01,0.04 -0.13,-0.95 0.01,0.05 -0.04,-0.95 v 0.03 l 0.02,-0.96 v 0.04 l 0.08,-0.95 v 0.02 l 0.13,-0.94 -0.01,0.02 0.18,-0.93 -0.01,0.02 0.22,-0.94 -0.01,0.03 0.27,-0.92 -0.01,0.03 0.66,-1.81 -0.02,0.04 0.82,-1.75 -0.02,0.04 0.96,-1.67 -0.03,0.03 1.1,-1.59 -0.02,0.03 1.2,-1.48 -0.03,0.03 1.32,-1.36 -0.03,0.03 1.41,-1.23 -0.04,0.03 1.49,-1.08 -0.03,0.02 1.55,-0.92 -0.09,0.04 1.73,-0.6 -0.32,-0.94 -1.79,0.62 -1.61,0.96 -1.53,1.1 -1.45,1.26 -1.34,1.39 -1.23,1.52 -1.12,1.62 -0.98,1.71 -0.84,1.79 -0.66,1.85 -0.28,0.94 -0.22,0.96 -0.18,0.96 -0.13,0.97 -0.09,0.97 -0.02,0.99 0.04,0.99 0.13,0.99 0.21,0.98 0.29,0.97 0.37,0.97 0.44,0.95 0.51,0.94 0.57,0.92 0.64,0.91 0.7,0.89 0.75,0.87 0.82,0.84 0.86,0.81 0.91,0.81 0.97,0.76 1.01,0.74 2.14,1.38 2.28,1.25 2.42,1.1 2.51,0.93 1.3,0.4 1.32,0.35 1.33,0.3 1.34,0.25 1.35,0.2 1.36,0.15 1.37,0.09 1.36,0.03 v 0 l 1.35,0.03 h -0.03 l 1.35,0.12 -0.03,-0.01 1.34,0.18 h -0.02 l 1.33,0.25 h -0.02 l 1.33,0.31 h -0.03 l 1.32,0.38 -0.03,-0.01 1.29,0.45 -0.02,-0.01 1.29,0.5 -0.03,-0.01 1.26,0.56 -0.02,-0.01 1.23,0.62 -0.02,-0.01 1.21,0.67 -0.02,-0.01 1.18,0.71 -0.02,-0.01 1.14,0.76 -0.02,-0.01 1.11,0.81 -0.02,-0.02 2.1,1.75 -0.02,-0.02 1,0.93 -0.02,-0.02 0.95,0.97 -0.02,-0.01 0.9,0.99 -0.01,-0.01 0.85,1.03 -0.02,-0.02 0.8,1.06 -0.02,-0.02 0.75,1.08 -0.02,-0.02 0.69,1.11 -0.02,-0.02 0.63,1.14 -0.02,-0.03 0.56,1.15 -0.01,-0.02 0.5,1.16 -0.02,-0.03 0.43,1.19 -0.01,-0.03 0.36,1.19 -0.01,-0.02 0.28,1.2 -0.01,-0.03 0.2,1.2 v -0.03 l 0.12,1.21 v -0.03 l 0.04,1.22 z m -45.29,-62.18 5.16,-4.29 -6.53,-1.55 z" /></g></g><g
       id="g136"><g
         clip-path="url(#clipPath142)"
         id="g138"><text
           id="text146"
           style="font-variant:normal;font-weight:normal;font-size:18.02400017px;font-family:ArialMT;-inkscape-font-specification:ArialMT;writing-mode:lr-tb;fill:#000000;fill-opacity:1;fill-rule:nonzero;stroke:none"
           transform="matrix(1,0,0,-1,408.91,344.02)"><tspan
             id="tspan144"
             y="0"
             x="0 12.960028 22.928072 32.896114">Head</tspan></text>
</g></g><g
       id="g148"><g
         clip-path="url(#clipPath154)"
         id="g150"><text
           id="text158"
           style="font-variant:normal;font-weight:normal;font-size:18.02400017px;font-family:MalgunGothic;-inkscape-font-specification:MalgunGothic;writing-mode:lr-tb;fill:#000000;fill-opacity:1;fill-rule:nonzero;stroke:none"
           transform="matrix(1,0,0,-1,456.91,344.02)"><tspan
             id="tspan156"
             y="0"
             x="0 18 36">포인터</tspan></text>
</g></g><g
       id="g160"><g
         clip-path="url(#clipPath166)"
         id="g162"><path
           id="path168"
           style="fill:#000000;fill-opacity:1;fill-rule:nonzero;stroke:none"
           d="m 460.41,336.1 -0.05,-1.23 -0.15,-1.24 -0.23,-1.23 -0.33,-1.22 -0.41,-1.22 -0.5,-1.2 -0.57,-1.19 -0.65,-1.16 -0.72,-1.14 -0.8,-1.13 -0.85,-1.09 -0.92,-1.07 -0.99,-1.04 -1.03,-1 -1.1,-0.98 -1.14,-0.93 -1.19,-0.9 -1.24,-0.86 -1.28,-0.81 -1.32,-0.77 -1.35,-0.72 -1.39,-0.67 -1.42,-0.62 -1.45,-0.56 -1.47,-0.51 -1.5,-0.44 -1.51,-0.39 -1.53,-0.32 -1.54,-0.25 -1.55,-0.19 -1.55,-0.11 -1.55,-0.04 -1.54,-0.03 h 0.02 l -1.53,-0.08 h 0.02 l -1.53,-0.14 h 0.01 l -1.52,-0.19 h 0.02 l -1.5,-0.25 h 0.02 l -1.5,-0.3 0.02,0.01 -1.48,-0.35 0.02,0.01 -1.46,-0.39 h 0.03 l -2.83,-0.91 0.03,0.01 -2.71,-1.07 0.03,0.01 -2.56,-1.23 0.02,0.01 -1.22,-0.66 0.01,0.01 -1.17,-0.7 0.01,0.01 -1.13,-0.72 0.02,0.02 -1.08,-0.75 0.02,0.01 -1.03,-0.78 0.02,0.01 -0.97,-0.8 0.02,0.01 -0.91,-0.82 0.02,0.02 -0.84,-0.84 0.02,0.01 -0.78,-0.86 0.01,0.02 -0.7,-0.88 0.02,0.03 -0.64,-0.9 0.02,0.03 -0.56,-0.91 0.01,0.04 -0.48,-0.92 0.02,0.03 -0.41,-0.93 0.02,0.04 -0.32,-0.93 0.02,0.04 -0.24,-0.94 0.01,0.05 -0.14,-0.94 v 0.05 l -0.04,-0.95 v 0.04 l 0.02,-0.95 v 0.03 l 0.08,-0.94 v 0.02 l 0.13,-0.94 -0.01,0.03 0.18,-0.94 -0.01,0.02 0.22,-0.92 -0.01,0.03 0.27,-0.92 -0.01,0.03 0.66,-1.8 -0.02,0.04 0.82,-1.74 -0.02,0.03 0.96,-1.66 -0.03,0.03 1.1,-1.58 -0.03,0.03 1.21,-1.47 -0.03,0.04 1.32,-1.36 -0.03,0.03 1.41,-1.22 -0.04,0.02 1.49,-1.08 -0.04,0.03 1.56,-0.92 -0.09,0.05 1.73,-0.61 -0.32,-0.94 -1.79,0.62 -1.61,0.95 -1.53,1.11 -1.45,1.25 -1.34,1.38 -1.23,1.51 -1.12,1.61 -0.98,1.7 -0.84,1.78 -0.66,1.84 -0.28,0.95 -0.22,0.95 -0.18,0.96 -0.13,0.96 -0.09,0.97 -0.02,0.98 0.05,0.99 0.15,0.99 0.24,0.98 0.33,0.97 0.42,0.97 0.5,0.95 0.58,0.93 0.65,0.92 0.72,0.9 0.8,0.88 0.86,0.87 0.93,0.83 0.98,0.82 1.04,0.79 1.09,0.76 1.15,0.73 1.19,0.71 1.25,0.67 2.59,1.24 2.74,1.09 2.85,0.92 1.48,0.4 1.49,0.34 1.51,0.31 1.52,0.25 1.54,0.19 1.54,0.15 1.55,0.08 1.55,0.03 v 0 l 1.53,0.04 h -0.02 l 1.53,0.11 h -0.02 l 1.53,0.18 h -0.03 l 1.52,0.24 h -0.02 l 1.51,0.31 h -0.03 l 1.5,0.38 h -0.02 l 1.47,0.44 -0.01,-0.01 1.44,0.5 -0.02,-0.01 1.44,0.56 -0.02,-0.01 1.4,0.61 h -0.02 l 1.38,0.66 -0.02,-0.01 1.33,0.71 -0.01,-0.01 1.3,0.76 -0.02,-0.01 1.26,0.8 -0.01,-0.01 1.22,0.85 -0.02,-0.02 1.18,0.89 -0.01,-0.01 1.12,0.92 -0.01,-0.01 1.08,0.96 -0.02,-0.02 1.02,0.99 -0.02,-0.01 0.97,1.02 -0.01,-0.02 0.9,1.05 -0.01,-0.02 0.84,1.08 -0.02,-0.02 0.78,1.1 -0.01,-0.02 0.7,1.12 -0.01,-0.02 0.64,1.14 -0.01,-0.03 0.56,1.16 -0.01,-0.03 0.48,1.17 -0.02,-0.02 0.41,1.18 -0.01,-0.03 0.31,1.19 v -0.03 l 0.23,1.19 -0.01,-0.04 0.15,1.21 -0.01,-0.04 0.05,1.21 z m -53.26,-61.79 5.17,-4.28 -6.52,-1.56 z" /></g></g><path
       id="path170"
       style="fill:none;stroke:#000000;stroke-width:1;stroke-linecap:butt;stroke-linejoin:round;stroke-miterlimit:10;stroke-dasharray:none;stroke-opacity:1"
       d="M 620.27,285.5 V 255.3" /><path
       id="path172"
       style="fill:none;stroke:#000000;stroke-width:1;stroke-linecap:butt;stroke-linejoin:round;stroke-miterlimit:10;stroke-dasharray:none;stroke-opacity:1"
       d="M 580.65,285.5 V 255.3" /><path
       id="path174"
       style="fill:none;stroke:#000000;stroke-width:1;stroke-linecap:butt;stroke-linejoin:round;stroke-miterlimit:10;stroke-dasharray:none;stroke-opacity:1"
       d="M 659.9,285.5 V 255.3" /><path
       id="path176"
       style="fill:none;stroke:#000000;stroke-width:1;stroke-linecap:butt;stroke-linejoin:round;stroke-miterlimit:10;stroke-dasharray:none;stroke-opacity:1"
       d="M 580.15,285 H 660.4" /><path
       id="path178"
       style="fill:none;stroke:#000000;stroke-width:1;stroke-linecap:butt;stroke-linejoin:round;stroke-miterlimit:10;stroke-dasharray:none;stroke-opacity:1"
       d="M 580.15,255.8 H 660.4" /><g
       id="g180"><g
         clip-path="url(#clipPath186)"
         id="g182"><text
           id="text190"
           style="font-variant:normal;font-weight:normal;font-size:9.96000004px;font-family:MalgunGothic;-inkscape-font-specification:MalgunGothic;writing-mode:lr-tb;fill:#000000;fill-opacity:1;fill-rule:nonzero;stroke:none"
           transform="matrix(1,0,0,-1,589.18,271.63)"><tspan
             id="tspan188"
             y="0"
             x="0">새</tspan></text>
</g></g><g
       id="g192"><g
         clip-path="url(#clipPath198)"
         id="g194"><text
           id="text202"
           style="font-variant:normal;font-weight:normal;font-size:9.96000004px;font-family:MalgunGothic;-inkscape-font-specification:MalgunGothic;writing-mode:lr-tb;fill:#000000;fill-opacity:1;fill-rule:nonzero;stroke:none"
           transform="matrix(1,0,0,-1,601.9,271.63)"><tspan
             id="tspan200"
             y="0"
             x="0">값</tspan></text>
</g></g><path
       id="path204"
       style="fill:none;stroke:#000000;stroke-width:1;stroke-linecap:butt;stroke-linejoin:round;stroke-miterlimit:10;stroke-dasharray:none;stroke-opacity:1"
       d="M 726.37,285.5 V 255.3" /><path
       id="path206"
       style="fill:none;stroke:#000000;stroke-width:1;stroke-linecap:butt;stroke-linejoin:round;stroke-miterlimit:10;stroke-dasharray:none;stroke-opacity:1"
       d="M 686.75,285.5 V 255.3" /><path
       id="path208"
       style="fill:none;stroke:#000000;stroke-width:1;stroke-linecap:butt;stroke-linejoin:round;stroke-miterlimit:10;stroke-dasharray:none;stroke-opacity:1"
       d="M 766,285.5 V 255.3" /><path
       id="path210"
       style="fill:none;stroke:#000000;stroke-width:1;stroke-linecap:butt;stroke-linejoin:round;stroke-miterlimit:10;stroke-dasharray:none;stroke-opacity:1"
       d="M 686.25,285 H 766.5" /><path
       id="path212"
       style="fill:none;stroke:#000000;stroke-width:1;stroke-linecap:butt;stroke-linejoin:round;stroke-miterlimit:10;stroke-dasharray:none;stroke-opacity:1"
       d="M 686.25,255.8 H 766.5" /><g
       id="g214"><g
         clip-path="url(#clipPath220)"
         id="g216"><text
           id="text224"
           style="font-variant:normal;font-weight:bold;font-size:18px;font-family:Arial;-inkscape-font-specification:Arial-BoldMT;writing-mode:lr-tb;fill:#000000;fill-opacity:1;fill-rule:nonzero;stroke:none"
           transform="matrix(1,0,0,-1,701.64,263.83)"><tspan
             id="tspan222"
             y="0"
             x="0">1</tspan></text>
</g></g><path
       id="path226"
       style="fill:#000000;fill-opacity:1;fill-rule:nonzero;stroke:none"
       d="m 641.4,270.86 4.23,-0.01 2.08,-0.01 2.02,-0.02 1.96,-0.03 1.88,-0.02 1.78,-0.04 1.65,-0.03 1.53,-0.04 1.38,-0.03 0.63,-0.03 0.58,-0.02 0.54,-0.02 0.49,-0.02 0.45,-0.03 0.39,-0.02 0.34,-0.02 0.29,-0.02 0.23,-0.03 0.19,-0.03 0.23,-0.05 0.11,-0.08 0.03,-0.02 -0.19,0.08 0.1,-0.02 -0.05,0.01 0.17,-0.02 h -0.02 l 0.22,-0.03 -0.01,0.01 0.28,-0.03 h -0.01 l 0.33,-0.02 v 0 l 0.39,-0.02 h -0.01 l 0.45,-0.02 h -0.01 l 0.49,-0.03 v 0 l 0.54,-0.02 v 0 l 0.58,-0.02 0.62,-0.02 v 0 l 1.37,-0.04 1.53,-0.04 v 0 l 1.65,-0.03 1.77,-0.03 1.88,-0.03 v 0 l 1.95,-0.02 v 0 l 2.03,-0.01 1.3,-0.01 -0.01,-1 -1.3,0.01 -2.03,0.01 -1.96,0.02 -1.87,0.03 -1.77,0.03 -1.66,0.03 -1.54,0.04 -1.37,0.04 -0.63,0.02 -0.58,0.02 -0.54,0.03 -0.49,0.02 -0.45,0.02 -0.39,0.02 -0.34,0.03 -0.29,0.02 -0.23,0.02 -0.19,0.03 -0.23,0.05 -0.11,0.09 -0.03,0.02 0.19,-0.09 -0.1,0.03 0.04,-0.01 -0.16,0.02 h 0.02 l -0.22,0.02 h 0.01 l -0.28,0.02 h 0.01 l -0.34,0.02 h 0.01 l -0.39,0.03 h 0.01 l -0.45,0.02 h 0.01 l -0.49,0.02 v 0 l -0.54,0.02 v 0 l -0.58,0.03 -0.62,0.02 v 0 l -1.38,0.04 -1.52,0.03 v 0 l -1.66,0.03 -1.77,0.04 v 0 l -1.87,0.02 -1.96,0.03 -2.02,0.02 h 0.01 l -2.08,0.01 -4.23,0.01 z m 39.37,1.52 5.98,-3.02 -6.01,-2.98 z" /><g
       id="g228"><g
         clip-path="url(#clipPath234)"
         id="g230"><text
           id="text238"
           style="font-variant:normal;font-weight:normal;font-size:18px;font-family:ArialMT;-inkscape-font-specification:ArialMT;writing-mode:lr-tb;fill:#000000;fill-opacity:1;fill-rule:nonzero;stroke:none"
           transform="matrix(1,0,0,-1,683.42,344.4)"><tspan
             id="tspan236"
             y="0"
             x="0 12.996 22.914 32.922001">Head</tspan></text>
</g></g><g
       id="g240"><g
         clip-path="url(#clipPath246)"
         id="g242"><text
           id="text250"
           style="font-variant:normal;font-weight:normal;font-size:18px;font-family:MalgunGothic;-inkscape-font-specification:MalgunGothic;writing-mode:lr-tb;fill:#000000;fill-opacity:1;fill-rule:nonzero;stroke:none"
           transform="matrix(1,0,0,-1,731.42,344.4)"><tspan
             id="tspan248"
             y="0"
             x="0 18 36">포인터</tspan></text>
</g></g><g
       id="g252"><g
         clip-path="url(#clipPath258)"
         id="g254"><path
           id="path260"
           style="fill:#000000;fill-opacity:1;fill-rule:nonzero;stroke:none"
           d="m 734.87,336.46 -0.03,-0.63 -0.11,-0.66 -0.16,-0.64 -0.23,-0.65 -0.29,-0.64 -0.35,-0.63 -0.4,-0.62 -0.46,-0.62 -0.53,-0.62 -0.56,-0.6 -0.63,-0.61 -0.67,-0.6 -0.72,-0.59 -0.78,-0.59 -0.81,-0.58 -0.88,-0.58 -0.91,-0.57 -0.96,-0.56 -1,-0.56 -1.06,-0.55 -2.22,-1.09 -2.39,-1.06 -2.54,-1.02 -2.7,-1 -2.83,-0.96 -2.96,-0.93 -3.1,-0.89 -3.2,-0.85 -3.32,-0.8 -3.42,-0.76 -3.51,-0.72 -3.6,-0.66 -3.68,-0.61 -3.74,-0.55 -3.81,-0.5 -3.87,-0.44 -3.91,-0.38 -3.96,-0.31 -3.98,-0.25 -4.01,-0.18 -4.03,-0.11 -4.02,-0.04 -4.02,-0.05 h 0.01 l -4.02,-0.08 v 0 l -3.99,-0.14 v 0 l -3.97,-0.2 v 0 l -3.94,-0.24 h 0.01 l -3.9,-0.3 v 0 l -3.86,-0.35 h 0.01 l -3.81,-0.39 h 0.01 l -3.73,-0.43 v 0 l -3.66,-0.48 v 0 l -3.59,-0.52 h 0.01 l -3.51,-0.55 h 0.01 l -3.41,-0.6 h 0.01 l -3.31,-0.63 h 0.01 l -3.2,-0.66 h 0.01 l -3.08,-0.69 h 0.01 l -2.95,-0.72 h 0.01 l -2.82,-0.75 h 0.01 l -2.69,-0.78 0.02,0.01 -2.53,-0.8 h 0.01 l -2.37,-0.82 0.02,0.01 -2.21,-0.85 h 0.01 l -1.04,-0.42 h 0.01 l -1,-0.43 h 0.01 l -0.94,-0.43 h 0.01 l -0.91,-0.44 h 0.01 l -0.85,-0.44 0.01,0.01 -0.81,-0.45 0.01,0.01 -0.76,-0.45 0.02,0.01 -0.71,-0.46 0.02,0.01 -0.66,-0.46 0.01,0.01 -0.6,-0.46 0.02,0.02 -0.56,-0.47 0.02,0.02 -0.49,-0.46 0.02,0.02 -0.45,-0.47 0.03,0.03 -0.39,-0.47 0.02,0.04 -0.33,-0.48 0.02,0.03 -0.28,-0.46 0.03,0.05 -0.21,-0.47 0.02,0.04 -0.16,-0.47 0.02,0.07 -0.09,-0.48 0.01,0.07 -0.03,-0.48 v 0.05 l 0.02,-0.95 v 0.03 l 0.08,-0.94 v 0.02 l 0.13,-0.94 -0.01,0.03 0.17,-0.94 v 0.02 l 0.22,-0.92 -0.01,0.03 0.27,-0.92 -0.01,0.03 0.65,-1.8 -0.01,0.04 0.81,-1.74 -0.02,0.03 0.96,-1.66 -0.02,0.03 1.09,-1.58 -0.03,0.04 1.22,-1.47 -0.03,0.03 1.31,-1.36 -0.03,0.03 1.41,-1.22 -0.03,0.02 1.48,-1.08 -0.04,0.03 1.56,-0.92 -0.09,0.05 1.73,-0.61 -0.32,-0.94 -1.79,0.62 -1.61,0.95 -1.53,1.11 -1.44,1.25 -1.34,1.38 -1.24,1.51 -1.11,1.61 -0.98,1.7 -0.84,1.78 -0.67,1.84 -0.27,0.95 -0.23,0.95 -0.17,0.96 -0.13,0.96 -0.09,0.97 -0.02,0.98 0.03,0.53 0.1,0.54 0.18,0.52 0.23,0.53 0.3,0.5 0.36,0.51 0.41,0.49 0.46,0.49 0.52,0.48 0.57,0.48 0.63,0.48 0.67,0.46 0.72,0.47 0.78,0.46 0.82,0.46 0.87,0.44 0.91,0.45 0.96,0.44 1.01,0.44 1.05,0.43 2.22,0.85 2.38,0.83 2.54,0.8 2.7,0.79 2.83,0.75 2.95,0.72 3.09,0.7 3.21,0.66 3.31,0.63 3.42,0.61 3.51,0.55 3.6,0.52 3.68,0.48 3.74,0.44 3.81,0.39 3.87,0.34 3.9,0.3 3.95,0.25 3.99,0.2 4,0.14 4.03,0.08 4.02,0.05 4.02,0.04 -0.01,-0.01 4.01,0.12 v 0 l 4,0.18 h -0.01 l 3.98,0.24 h -0.01 l 3.94,0.32 h -0.01 l 3.9,0.37 v 0 l 3.86,0.44 h -0.01 l 3.8,0.5 h -0.01 l 3.74,0.55 h -0.01 l 3.68,0.61 h -0.01 l 3.58,0.66 h -0.01 l 3.51,0.71 h -0.01 l 3.41,0.75 h -0.01 l 3.31,0.8 h -0.01 l 3.19,0.85 h -0.01 l 3.08,0.88 h -0.01 l 2.96,0.92 h -0.01 l 2.82,0.96 -0.02,-0.01 2.68,0.99 h -0.01 l 2.53,1.02 -0.02,-0.01 2.38,1.05 -0.02,-0.01 2.21,1.08 h -0.02 l 1.05,0.54 h -0.02 l 0.99,0.55 v 0 l 0.95,0.55 -0.01,-0.01 0.9,0.57 -0.02,-0.01 0.87,0.57 -0.02,-0.01 0.81,0.57 -0.02,-0.01 0.77,0.58 -0.02,-0.02 0.71,0.59 -0.01,-0.01 0.66,0.58 -0.02,-0.02 0.6,0.59 -0.01,-0.01 0.55,0.58 -0.02,-0.02 0.5,0.6 -0.02,-0.02 0.44,0.59 -0.01,-0.02 0.39,0.6 -0.02,-0.03 0.33,0.59 -0.02,-0.04 0.27,0.6 -0.02,-0.04 0.22,0.61 -0.01,-0.05 0.15,0.6 -0.01,-0.04 0.1,0.61 -0.01,-0.05 0.03,0.6 z m -159.36,-61.79 5.17,-4.28 -6.52,-1.56 z" /></g></g><g
       id="g262"><g
         clip-path="url(#clipPath268)"
         id="g264"><text
           id="text272"
           style="font-variant:normal;font-weight:normal;font-size:9.96000004px;font-family:MalgunGothic;-inkscape-font-specification:MalgunGothic;writing-mode:lr-tb;fill:#000000;fill-opacity:1;fill-rule:nonzero;stroke:none"
           transform="matrix(1,0,0,-1,327.62,291.02)"><tspan
             id="tspan270"
             y="0"
             x="0">새</tspan></text>
</g></g><g
       id="g274"><g
         clip-path="url(#clipPath280)"
         id="g276"><text
           id="text284"
           style="font-variant:normal;font-weight:normal;font-size:9.96000004px;font-family:ArialMT;-inkscape-font-specification:ArialMT;writing-mode:lr-tb;fill:#000000;fill-opacity:1;fill-rule:nonzero;stroke:none"
           transform="matrix(1,0,0,-1,340.34,291.02)"><tspan
             id="tspan282"
             y="0"
             x="0 7.21104 12.7488 18.246719">Node</tspan></text>
</g></g><g
       id="g286"><g
         clip-path="url(#clipPath292)"
         id="g288"><text
           id="text296"
           style="font-variant:normal;font-weight:normal;font-size:9.96000004px;font-family:MalgunGothic;-inkscape-font-specification:MalgunGothic;writing-mode:lr-tb;fill:#000000;fill-opacity:1;fill-rule:nonzero;stroke:none"
           transform="matrix(1,0,0,-1,602.14,291.02)"><tspan
             id="tspan294"
             y="0"
             x="0">새</tspan></text>
</g></g><g
       id="g298"><g
         clip-path="url(#clipPath304)"
         id="g300"><text
           id="text308"
           style="font-variant:normal;font-weight:normal;font-size:9.96000004px;font-family:ArialMT;-inkscape-font-specification:ArialMT;writing-mode:lr-tb;fill:#000000;fill-opacity:1;fill-rule:nonzero;stroke:none"
           transform="matrix(1,0,0,-1,614.86,291.02)"><tspan
             id="tspan306"
             y="0"
             x="0 7.1911201 12.72888 18.26664">Node</tspan></text>
</g></g></g></svg>