<?xml version="1.0" encoding="UTF-8" standalone="no"?>
<svg
   xmlns:dc="http://purl.org/dc/elements/1.1/"
   xmlns:cc="http://creativecommons.org/ns#"
   xmlns:rdf="http://www.w3.org/1999/02/22-rdf-syntax-ns#"
   xmlns:svg="http://www.w3.org/2000/svg"
   xmlns="http://www.w3.org/2000/svg"
   viewBox="87 226 851 161"
   height="161"
   width="851"
   xml:space="preserve"
   id="svg2"
   version="1.1"><metadata
     id="metadata8"><rdf:RDF><cc:Work
         rdf:about=""><dc:format>image/svg+xml</dc:format><dc:type
           rdf:resource="http://purl.org/dc/dcmitype/StillImage" /></cc:Work></rdf:RDF></metadata><defs
     id="defs6"><clipPath
       id="clipPath18"
       clipPathUnits="userSpaceOnUse"><path
         style="clip-rule:evenodd"
         id="path16"
         d="M 0,1.2207e-4 H 960 V 540.00012 H 0 Z" /></clipPath><clipPath
       id="clipPath38"
       clipPathUnits="userSpaceOnUse"><path
         style="clip-rule:evenodd"
         id="path36"
         d="M 1.4305e-5,0 H 960.00001 V 540 H 1.4305e-5 Z" /></clipPath><clipPath
       id="clipPath60"
       clipPathUnits="userSpaceOnUse"><path
         style="clip-rule:evenodd"
         id="path58"
         d="M 1.4305e-5,0 H 960.00001 V 540 H 1.4305e-5 Z" /></clipPath><clipPath
       id="clipPath82"
       clipPathUnits="userSpaceOnUse"><path
         style="clip-rule:evenodd"
         id="path80"
         d="M 1.4305e-5,0 H 960.00001 V 540 H 1.4305e-5 Z" /></clipPath><clipPath
       id="clipPath96"
       clipPathUnits="userSpaceOnUse"><path
         style="clip-rule:evenodd"
         id="path94"
         d="M 3.0518e-5,540 H 960 V 1.8311e-4 H 4.5776e-5" /></clipPath><clipPath
       id="clipPath116"
       clipPathUnits="userSpaceOnUse"><path
         style="clip-rule:evenodd"
         id="path114"
         d="M 1.4305e-5,0 H 960.00001 V 540 H 1.4305e-5 Z" /></clipPath><clipPath
       id="clipPath128"
       clipPathUnits="userSpaceOnUse"><path
         style="clip-rule:evenodd"
         id="path126"
         d="M 1.4305e-5,0 H 960.00001 V 540 H 1.4305e-5 Z" /></clipPath><clipPath
       id="clipPath150"
       clipPathUnits="userSpaceOnUse"><path
         style="clip-rule:evenodd"
         id="path148"
         d="M 1.4305e-5,0 H 960.00001 V 540 H 1.4305e-5 Z" /></clipPath><clipPath
       id="clipPath172"
       clipPathUnits="userSpaceOnUse"><path
         style="clip-rule:evenodd"
         id="path170"
         d="M 1.4305e-5,0 H 960.00001 V 540 H 1.4305e-5 Z" /></clipPath><clipPath
       id="clipPath186"
       clipPathUnits="userSpaceOnUse"><path
         style="clip-rule:evenodd"
         id="path184"
         d="M 6.1035e-5,540 H 960 V 1.8311e-4 H 9.1553e-5" /></clipPath><clipPath
       id="clipPath206"
       clipPathUnits="userSpaceOnUse"><path
         style="clip-rule:evenodd"
         id="path204"
         d="M 1.4305e-5,0 H 960.00001 V 540 H 1.4305e-5 Z" /></clipPath><clipPath
       id="clipPath218"
       clipPathUnits="userSpaceOnUse"><path
         style="clip-rule:evenodd"
         id="path216"
         d="M 1.4305e-5,0 H 960.00001 V 540 H 1.4305e-5 Z" /></clipPath><clipPath
       id="clipPath240"
       clipPathUnits="userSpaceOnUse"><path
         style="clip-rule:evenodd"
         id="path238"
         d="M 1.4305e-5,0 H 960.00001 V 540 H 1.4305e-5 Z" /></clipPath><clipPath
       id="clipPath262"
       clipPathUnits="userSpaceOnUse"><path
         style="clip-rule:evenodd"
         id="path260"
         d="M 1.4305e-5,0 H 960.00001 V 540 H 1.4305e-5 Z" /></clipPath><clipPath
       id="clipPath274"
       clipPathUnits="userSpaceOnUse"><path
         style="clip-rule:evenodd"
         id="path272"
         d="M -1.8311e-4,540 H 960 V 6.1035e-5 H -1.2207e-4" /></clipPath><clipPath
       id="clipPath284"
       clipPathUnits="userSpaceOnUse"><path
         style="clip-rule:evenodd"
         id="path282"
         d="M 0,540 H 960 V 1.8311e-4 H 6.1035e-5" /></clipPath><clipPath
       id="clipPath294"
       clipPathUnits="userSpaceOnUse"><path
         style="clip-rule:evenodd"
         id="path292"
         d="M 1.4305e-5,0 H 960.00001 V 540 H 1.4305e-5 Z" /></clipPath><clipPath
       id="clipPath306"
       clipPathUnits="userSpaceOnUse"><path
         style="clip-rule:evenodd"
         id="path304"
         d="M 1.4305e-5,0 H 960.00001 V 540 H 1.4305e-5 Z" /></clipPath><clipPath
       id="clipPath318"
       clipPathUnits="userSpaceOnUse"><path
         style="clip-rule:evenodd"
         id="path316"
         d="M 1.4305e-5,0 H 960.00001 V 540 H 1.4305e-5 Z" /></clipPath><clipPath
       id="clipPath330"
       clipPathUnits="userSpaceOnUse"><path
         style="clip-rule:evenodd"
         id="path328"
         d="M 1.4305e-5,0 H 960.00001 V 540 H 1.4305e-5 Z" /></clipPath><clipPath
       id="clipPath342"
       clipPathUnits="userSpaceOnUse"><path
         style="clip-rule:evenodd"
         id="path340"
         d="M 1.4305e-5,0 H 960.00001 V 540 H 1.4305e-5 Z" /></clipPath><clipPath
       id="clipPath354"
       clipPathUnits="userSpaceOnUse"><path
         style="clip-rule:evenodd"
         id="path352"
         d="M 1.4305e-5,0 H 960.00001 V 540 H 1.4305e-5 Z" /></clipPath></defs><g
     transform="matrix(1.3333333,0,0,-1.3333333,0,720)"
     id="g10"><g
       id="g12"><g
         clip-path="url(#clipPath18)"
         id="g14"><path
           id="path20"
           style="fill:#ffffff;fill-opacity:1;fill-rule:evenodd;stroke:none"
           d="M 0,6.1035e-5 H 960 V 540.00006 H 0 Z" /></g></g><path
       id="path22"
       style="fill:none;stroke:#000000;stroke-width:1;stroke-linecap:butt;stroke-linejoin:round;stroke-miterlimit:10;stroke-dasharray:none;stroke-opacity:1"
       d="M 115.63,285.1 V 254.9" /><path
       id="path24"
       style="fill:none;stroke:#000000;stroke-width:1;stroke-linecap:butt;stroke-linejoin:round;stroke-miterlimit:10;stroke-dasharray:none;stroke-opacity:1"
       d="M 76,285.1 V 254.9" /><path
       id="path26"
       style="fill:none;stroke:#000000;stroke-width:1;stroke-linecap:butt;stroke-linejoin:round;stroke-miterlimit:10;stroke-dasharray:none;stroke-opacity:1"
       d="M 155.25,285.1 V 254.9" /><path
       id="path28"
       style="fill:none;stroke:#000000;stroke-width:1;stroke-linecap:butt;stroke-linejoin:round;stroke-miterlimit:10;stroke-dasharray:none;stroke-opacity:1"
       d="m 75.5,284.6 h 80.25" /><path
       id="path30"
       style="fill:none;stroke:#000000;stroke-width:1;stroke-linecap:butt;stroke-linejoin:round;stroke-miterlimit:10;stroke-dasharray:none;stroke-opacity:1"
       d="m 75.5,255.4 h 80.25" /><g
       id="g32"><g
         clip-path="url(#clipPath38)"
         id="g34"><text
           id="text42"
           style="font-variant:normal;font-weight:bold;font-size:18px;font-family:Arial;-inkscape-font-specification:Arial-BoldMT;writing-mode:lr-tb;fill:#000000;fill-opacity:1;fill-rule:nonzero;stroke:none"
           transform="matrix(1,0,0,-1,90.816,263.42)"><tspan
             id="tspan40"
             y="0"
             x="0">1</tspan></text>
</g></g><path
       id="path44"
       style="fill:none;stroke:#000000;stroke-width:1;stroke-linecap:butt;stroke-linejoin:round;stroke-miterlimit:10;stroke-dasharray:none;stroke-opacity:1"
       d="M 222.88,285.1 V 254.9" /><path
       id="path46"
       style="fill:none;stroke:#000000;stroke-width:1;stroke-linecap:butt;stroke-linejoin:round;stroke-miterlimit:10;stroke-dasharray:none;stroke-opacity:1"
       d="M 183.25,285.1 V 254.9" /><path
       id="path48"
       style="fill:none;stroke:#000000;stroke-width:1;stroke-linecap:butt;stroke-linejoin:round;stroke-miterlimit:10;stroke-dasharray:none;stroke-opacity:1"
       d="M 262.5,285.1 V 254.9" /><path
       id="path50"
       style="fill:none;stroke:#000000;stroke-width:1;stroke-linecap:butt;stroke-linejoin:round;stroke-miterlimit:10;stroke-dasharray:none;stroke-opacity:1"
       d="M 182.75,284.6 H 263" /><path
       id="path52"
       style="fill:none;stroke:#000000;stroke-width:1;stroke-linecap:butt;stroke-linejoin:round;stroke-miterlimit:10;stroke-dasharray:none;stroke-opacity:1"
       d="M 182.75,255.4 H 263" /><g
       id="g54"><g
         clip-path="url(#clipPath60)"
         id="g56"><text
           id="text64"
           style="font-variant:normal;font-weight:bold;font-size:18px;font-family:Arial;-inkscape-font-specification:Arial-BoldMT;writing-mode:lr-tb;fill:#000000;fill-opacity:1;fill-rule:nonzero;stroke:none"
           transform="matrix(1,0,0,-1,198.1,263.42)"><tspan
             id="tspan62"
             y="0"
             x="0">2</tspan></text>
</g></g><path
       id="path66"
       style="fill:none;stroke:#000000;stroke-width:1;stroke-linecap:butt;stroke-linejoin:round;stroke-miterlimit:10;stroke-dasharray:none;stroke-opacity:1"
       d="m 168.65,344.41 v -30.2" /><path
       id="path68"
       style="fill:none;stroke:#000000;stroke-width:1;stroke-linecap:butt;stroke-linejoin:round;stroke-miterlimit:10;stroke-dasharray:none;stroke-opacity:1"
       d="m 129.02,344.41 v -30.2" /><path
       id="path70"
       style="fill:none;stroke:#000000;stroke-width:1;stroke-linecap:butt;stroke-linejoin:round;stroke-miterlimit:10;stroke-dasharray:none;stroke-opacity:1"
       d="m 208.27,344.41 v -30.2" /><path
       id="path72"
       style="fill:none;stroke:#000000;stroke-width:1;stroke-linecap:butt;stroke-linejoin:round;stroke-miterlimit:10;stroke-dasharray:none;stroke-opacity:1"
       d="m 128.52,343.91 h 80.25" /><path
       id="path74"
       style="fill:none;stroke:#000000;stroke-width:1;stroke-linecap:butt;stroke-linejoin:round;stroke-miterlimit:10;stroke-dasharray:none;stroke-opacity:1"
       d="m 128.52,314.71 h 80.25" /><g
       id="g76"><g
         clip-path="url(#clipPath82)"
         id="g78"><text
           id="text86"
           style="font-variant:normal;font-weight:bold;font-size:18px;font-family:Arial;-inkscape-font-specification:Arial-BoldMT;writing-mode:lr-tb;fill:#000000;fill-opacity:1;fill-rule:nonzero;stroke:none"
           transform="matrix(1,0,0,-1,143.86,322.75)"><tspan
             id="tspan84"
             y="0"
             x="0">1</tspan></text>
</g></g><path
       id="path88"
       style="fill:#000000;fill-opacity:1;fill-rule:nonzero;stroke:none"
       d="m 137.4,270.5 4.28,-0.02 h 2.1 l 2.05,-0.03 1.98,-0.02 1.89,-0.02 1.8,-0.04 1.68,-0.03 1.53,-0.04 1.4,-0.03 0.64,-0.03 0.59,-0.02 0.54,-0.02 0.5,-0.02 0.45,-0.03 0.4,-0.02 0.34,-0.02 0.29,-0.02 0.24,-0.03 0.18,-0.02 0.23,-0.05 0.12,-0.09 0.03,-0.02 -0.2,0.08 0.11,-0.02 -0.04,0.01 0.16,-0.03 -0.02,0.01 0.22,-0.02 v 0 l 0.27,-0.03 v 0 l 0.33,-0.02 v 0 l 0.39,-0.02 h -0.01 l 0.45,-0.02 v 0 l 0.5,-0.03 v 0 l 0.54,-0.02 h -0.01 l 0.6,-0.02 0.63,-0.02 h -0.01 l 1.39,-0.04 1.54,-0.04 v 0 l 1.67,-0.03 1.8,-0.03 1.89,-0.03 v 0 l 1.98,-0.02 v 0 l 2.04,-0.02 h 1.37 l -0.01,-1 h -1.36 l -2.05,0.02 -1.98,0.02 -1.9,0.03 -1.8,0.03 -1.67,0.03 -1.55,0.04 -1.39,0.04 -0.63,0.02 -0.59,0.02 -0.55,0.03 -0.49,0.02 -0.46,0.02 -0.39,0.02 -0.34,0.03 -0.29,0.02 -0.24,0.02 -0.19,0.03 -0.22,0.05 -0.12,0.09 -0.03,0.02 0.19,-0.09 -0.1,0.02 h 0.03 l -0.16,0.02 h 0.03 l -0.23,0.02 h 0.01 l -0.28,0.02 h 0.01 l -0.34,0.02 h 0.01 l -0.39,0.03 v 0 l -0.45,0.02 v 0 l -0.49,0.02 v 0 l -0.54,0.02 v 0 l -0.59,0.03 -0.63,0.02 v 0 l -1.39,0.04 -1.54,0.03 h 0.01 l -1.69,0.03 -1.79,0.04 h 0.01 l -1.89,0.02 -1.98,0.03 -2.05,0.02 v 0 l -2.1,0.01 -4.27,0.01 z m 39.86,1.52 5.99,-3.02 -6.02,-2.98 z" /><g
       id="g90"><g
         clip-path="url(#clipPath96)"
         id="g92"><path
           id="path98"
           style="fill:#000000;fill-opacity:1;fill-rule:nonzero;stroke:none"
           d="m 185.84,328.19 -0.06,-2.06 -0.17,-2.05 -0.27,-2.02 -0.37,-1.98 -0.47,-1.9 -0.54,-1.83 -0.62,-1.73 -0.69,-1.62 -0.75,-1.5 -0.81,-1.36 -0.84,-1.19 -0.46,-0.54 -0.45,-0.5 -0.47,-0.44 -0.49,-0.4 -0.49,-0.34 -0.49,-0.3 -0.52,-0.23 -0.53,-0.17 -0.52,-0.11 -0.51,-0.03 -0.47,-0.03 0.05,0.01 -0.47,-0.08 0.05,0.01 -0.47,-0.13 0.04,0.02 -0.46,-0.17 0.04,0.01 -0.46,-0.22 0.04,0.02 -0.45,-0.27 0.04,0.03 -0.9,-0.66 0.04,0.04 -0.87,-0.83 0.04,0.04 -0.82,-0.97 0.02,0.03 -0.79,-1.1 0.03,0.03 -0.74,-1.22 0.02,0.03 -0.68,-1.34 0.02,0.03 -0.62,-1.42 0.01,0.03 -0.53,-1.5 0.01,0.03 -0.46,-1.58 0.01,0.03 -0.37,-1.62 0.01,0.03 -0.27,-1.67 v 0.04 l -0.16,-1.7 v 0.03 l -0.06,-1.7 v 0.03 l 0.02,-0.85 v 0.03 l 0.08,-0.85 v 0.03 l 0.13,-0.85 -0.01,0.03 0.18,-0.85 -0.01,0.03 0.22,-0.84 -0.01,0.03 0.27,-0.83 -0.01,0.03 0.65,-1.62 -0.02,0.05 0.82,-1.58 -0.03,0.04 0.96,-1.5 -0.02,0.03 1.09,-1.42 -0.02,0.03 1.21,-1.33 -0.03,0.03 1.31,-1.23 -0.03,0.03 1.41,-1.1 -0.04,0.02 1.49,-0.97 -0.04,0.02 1.56,-0.82 -0.09,0.04 1.72,-0.52 -0.29,-0.95 -1.77,0.53 -1.61,0.85 -1.53,1 -1.45,1.13 -1.34,1.25 -1.24,1.36 -1.12,1.46 -0.98,1.54 -0.84,1.62 -0.67,1.65 -0.28,0.87 -0.22,0.86 -0.18,0.87 -0.13,0.87 -0.09,0.88 -0.02,0.89 0.06,1.73 0.17,1.73 0.27,1.7 0.38,1.65 0.46,1.6 0.55,1.53 0.62,1.45 0.69,1.37 0.76,1.25 0.81,1.14 0.86,1.01 0.91,0.86 0.94,0.7 0.49,0.29 0.51,0.25 0.51,0.18 0.52,0.14 0.51,0.09 0.5,0.03 0.47,0.03 -0.07,-0.01 0.46,0.1 -0.04,-0.02 0.47,0.15 -0.06,-0.02 0.47,0.21 -0.05,-0.02 0.46,0.27 -0.04,-0.02 0.46,0.32 -0.03,-0.02 0.46,0.37 -0.03,-0.02 0.45,0.42 -0.03,-0.03 0.44,0.48 -0.02,-0.02 0.44,0.52 -0.03,-0.04 0.83,1.17 -0.02,-0.04 0.78,1.32 -0.01,-0.03 0.73,1.47 -0.01,-0.03 0.67,1.59 -0.01,-0.02 0.62,1.71 -0.01,-0.03 0.53,1.8 -0.01,-0.02 0.46,1.88 v -0.03 l 0.36,1.95 v -0.02 l 0.27,1.99 v -0.02 l 0.16,2.02 v -0.03 l 0.06,2.04 z m -7.84,-54.01 5.24,-4.19 -6.5,-1.68 z" /></g></g><path
       id="path100"
       style="fill:none;stroke:#000000;stroke-width:1;stroke-linecap:butt;stroke-linejoin:round;stroke-miterlimit:10;stroke-dasharray:none;stroke-opacity:1"
       d="M 332.15,285.1 V 254.9" /><path
       id="path102"
       style="fill:none;stroke:#000000;stroke-width:1;stroke-linecap:butt;stroke-linejoin:round;stroke-miterlimit:10;stroke-dasharray:none;stroke-opacity:1"
       d="M 292.52,285.1 V 254.9" /><path
       id="path104"
       style="fill:none;stroke:#000000;stroke-width:1;stroke-linecap:butt;stroke-linejoin:round;stroke-miterlimit:10;stroke-dasharray:none;stroke-opacity:1"
       d="M 371.77,285.1 V 254.9" /><path
       id="path106"
       style="fill:none;stroke:#000000;stroke-width:1;stroke-linecap:butt;stroke-linejoin:round;stroke-miterlimit:10;stroke-dasharray:none;stroke-opacity:1"
       d="m 292.02,284.6 h 80.25" /><path
       id="path108"
       style="fill:none;stroke:#000000;stroke-width:1;stroke-linecap:butt;stroke-linejoin:round;stroke-miterlimit:10;stroke-dasharray:none;stroke-opacity:1"
       d="m 292.02,255.4 h 80.25" /><g
       id="g110"><g
         clip-path="url(#clipPath116)"
         id="g112"><text
           id="text120"
           style="font-variant:normal;font-weight:bold;font-size:5.03999996px;font-family:MalgunGothicBold;-inkscape-font-specification:MalgunGothicBold;writing-mode:lr-tb;fill:#000000;fill-opacity:1;fill-rule:nonzero;stroke:none"
           transform="matrix(1,0,0,-1,301.61,267.38)"><tspan
             id="tspan118"
             y="0"
             x="0">새</tspan></text>
</g></g><g
       id="g122"><g
         clip-path="url(#clipPath128)"
         id="g124"><text
           id="text132"
           style="font-variant:normal;font-weight:bold;font-size:5.03999996px;font-family:MalgunGothicBold;-inkscape-font-specification:MalgunGothicBold;writing-mode:lr-tb;fill:#000000;fill-opacity:1;fill-rule:nonzero;stroke:none"
           transform="matrix(1,0,0,-1,307.97,267.38)"><tspan
             id="tspan130"
             y="0"
             x="0 5.04 10.08">데이터</tspan></text>
</g></g><path
       id="path134"
       style="fill:none;stroke:#000000;stroke-width:1;stroke-linecap:butt;stroke-linejoin:round;stroke-miterlimit:10;stroke-dasharray:none;stroke-opacity:1"
       d="M 439.4,285.1 V 254.9" /><path
       id="path136"
       style="fill:none;stroke:#000000;stroke-width:1;stroke-linecap:butt;stroke-linejoin:round;stroke-miterlimit:10;stroke-dasharray:none;stroke-opacity:1"
       d="M 399.77,285.1 V 254.9" /><path
       id="path138"
       style="fill:none;stroke:#000000;stroke-width:1;stroke-linecap:butt;stroke-linejoin:round;stroke-miterlimit:10;stroke-dasharray:none;stroke-opacity:1"
       d="M 479.02,285.1 V 254.9" /><path
       id="path140"
       style="fill:none;stroke:#000000;stroke-width:1;stroke-linecap:butt;stroke-linejoin:round;stroke-miterlimit:10;stroke-dasharray:none;stroke-opacity:1"
       d="m 399.27,284.6 h 80.25" /><path
       id="path142"
       style="fill:none;stroke:#000000;stroke-width:1;stroke-linecap:butt;stroke-linejoin:round;stroke-miterlimit:10;stroke-dasharray:none;stroke-opacity:1"
       d="m 399.27,255.4 h 80.25" /><g
       id="g144"><g
         clip-path="url(#clipPath150)"
         id="g146"><text
           id="text154"
           style="font-variant:normal;font-weight:bold;font-size:18px;font-family:Arial;-inkscape-font-specification:Arial-BoldMT;writing-mode:lr-tb;fill:#000000;fill-opacity:1;fill-rule:nonzero;stroke:none"
           transform="matrix(1,0,0,-1,414.65,263.42)"><tspan
             id="tspan152"
             y="0"
             x="0">2</tspan></text>
</g></g><path
       id="path156"
       style="fill:none;stroke:#000000;stroke-width:1;stroke-linecap:butt;stroke-linejoin:round;stroke-miterlimit:10;stroke-dasharray:none;stroke-opacity:1"
       d="m 385.17,344.41 v -30.2" /><path
       id="path158"
       style="fill:none;stroke:#000000;stroke-width:1;stroke-linecap:butt;stroke-linejoin:round;stroke-miterlimit:10;stroke-dasharray:none;stroke-opacity:1"
       d="m 345.54,344.41 v -30.2" /><path
       id="path160"
       style="fill:none;stroke:#000000;stroke-width:1;stroke-linecap:butt;stroke-linejoin:round;stroke-miterlimit:10;stroke-dasharray:none;stroke-opacity:1"
       d="m 424.79,344.41 v -30.2" /><path
       id="path162"
       style="fill:none;stroke:#000000;stroke-width:1;stroke-linecap:butt;stroke-linejoin:round;stroke-miterlimit:10;stroke-dasharray:none;stroke-opacity:1"
       d="m 345.04,343.91 h 80.25" /><path
       id="path164"
       style="fill:none;stroke:#000000;stroke-width:1;stroke-linecap:butt;stroke-linejoin:round;stroke-miterlimit:10;stroke-dasharray:none;stroke-opacity:1"
       d="m 345.04,314.71 h 80.25" /><g
       id="g166"><g
         clip-path="url(#clipPath172)"
         id="g168"><text
           id="text176"
           style="font-variant:normal;font-weight:bold;font-size:18px;font-family:Arial;-inkscape-font-specification:Arial-BoldMT;writing-mode:lr-tb;fill:#000000;fill-opacity:1;fill-rule:nonzero;stroke:none"
           transform="matrix(1,0,0,-1,360.41,322.75)"><tspan
             id="tspan174"
             y="0"
             x="0">1</tspan></text>
</g></g><path
       id="path178"
       style="fill:#000000;fill-opacity:1;fill-rule:nonzero;stroke:none"
       d="m 353.88,270.5 4.28,-0.02 h 2.1 l 2.05,-0.03 1.98,-0.02 1.89,-0.02 1.8,-0.04 1.68,-0.03 1.53,-0.04 1.4,-0.03 0.64,-0.03 0.59,-0.02 0.54,-0.02 0.5,-0.02 0.45,-0.03 0.4,-0.02 0.34,-0.02 0.29,-0.02 0.24,-0.03 0.18,-0.02 0.23,-0.05 0.12,-0.09 0.03,-0.02 -0.2,0.08 0.11,-0.02 -0.04,0.01 0.16,-0.03 -0.02,0.01 0.22,-0.02 v 0 l 0.27,-0.03 v 0 l 0.33,-0.02 v 0 l 0.39,-0.02 h -0.01 l 0.45,-0.02 v 0 l 0.5,-0.03 v 0 l 0.54,-0.02 h -0.01 l 0.6,-0.02 0.63,-0.02 h -0.01 l 1.39,-0.04 1.54,-0.04 v 0 l 1.67,-0.03 1.8,-0.03 1.89,-0.03 v 0 l 1.98,-0.02 v 0 l 2.04,-0.02 h 1.37 l -0.01,-1 h -1.36 l -2.05,0.02 -1.98,0.02 -1.9,0.03 -1.8,0.03 -1.67,0.03 -1.55,0.04 -1.39,0.04 -0.63,0.02 -0.59,0.02 -0.55,0.03 -0.49,0.02 -0.46,0.02 -0.39,0.02 -0.34,0.03 -0.29,0.02 -0.24,0.02 -0.19,0.03 -0.22,0.05 -0.12,0.09 -0.03,0.02 0.19,-0.09 -0.1,0.02 h 0.03 l -0.16,0.02 h 0.03 l -0.23,0.02 h 0.01 l -0.28,0.02 h 0.01 l -0.34,0.02 h 0.01 l -0.39,0.03 v 0 l -0.45,0.02 v 0 l -0.49,0.02 v 0 l -0.54,0.02 v 0 l -0.59,0.03 -0.63,0.02 v 0 l -1.39,0.04 -1.54,0.03 h 0.01 l -1.69,0.03 -1.79,0.04 h 0.01 l -1.89,0.02 -1.98,0.03 -2.05,0.02 v 0 l -2.1,0.01 -4.27,0.01 z m 39.86,1.52 5.99,-3.02 -6.02,-2.98 z" /><g
       id="g180"><g
         clip-path="url(#clipPath186)"
         id="g182"><path
           id="path188"
           style="fill:#000000;fill-opacity:1;fill-rule:nonzero;stroke:none"
           d="m 402.32,328.19 -0.06,-2.06 -0.17,-2.05 -0.27,-2.02 -0.37,-1.98 -0.47,-1.9 -0.54,-1.83 -0.62,-1.73 -0.69,-1.62 -0.75,-1.5 -0.81,-1.36 -0.84,-1.19 -0.46,-0.54 -0.45,-0.5 -0.47,-0.44 -0.49,-0.4 -0.49,-0.34 -0.49,-0.3 -0.52,-0.23 -0.53,-0.17 -0.52,-0.11 -0.51,-0.03 -0.47,-0.03 0.05,0.01 -0.47,-0.08 0.05,0.01 -0.47,-0.13 0.04,0.02 -0.46,-0.17 0.04,0.01 -0.46,-0.22 0.04,0.02 -0.45,-0.27 0.04,0.03 -0.9,-0.66 0.04,0.04 -0.87,-0.83 0.04,0.04 -0.82,-0.97 0.02,0.03 -0.79,-1.1 0.03,0.03 -0.74,-1.22 0.02,0.03 -0.68,-1.34 0.02,0.03 -0.62,-1.42 0.01,0.03 -0.53,-1.5 0.01,0.03 -0.46,-1.58 0.01,0.03 -0.37,-1.62 0.01,0.03 -0.27,-1.67 v 0.04 l -0.16,-1.7 v 0.03 l -0.06,-1.7 v 0.03 l 0.02,-0.85 v 0.03 l 0.08,-0.85 v 0.03 l 0.13,-0.85 -0.01,0.03 0.18,-0.85 -0.01,0.03 0.22,-0.84 -0.01,0.03 0.27,-0.83 -0.01,0.03 0.65,-1.62 -0.02,0.05 0.82,-1.58 -0.03,0.04 0.96,-1.5 -0.02,0.03 1.09,-1.42 -0.02,0.03 1.21,-1.33 -0.03,0.03 1.31,-1.23 -0.03,0.03 1.41,-1.1 -0.04,0.02 1.49,-0.97 -0.04,0.02 1.56,-0.82 -0.09,0.04 1.72,-0.52 -0.29,-0.95 -1.77,0.53 -1.61,0.85 -1.53,1 -1.45,1.13 -1.34,1.25 -1.24,1.36 -1.12,1.46 -0.98,1.54 -0.84,1.62 -0.67,1.65 -0.28,0.87 -0.22,0.86 -0.18,0.87 -0.13,0.87 -0.09,0.88 -0.02,0.89 0.06,1.73 0.17,1.73 0.27,1.7 0.38,1.65 0.46,1.6 0.55,1.53 0.62,1.45 0.69,1.37 0.76,1.25 0.81,1.14 0.86,1.01 0.91,0.86 0.94,0.7 0.49,0.29 0.51,0.25 0.51,0.18 0.52,0.14 0.51,0.09 0.5,0.03 0.47,0.03 -0.07,-0.01 0.46,0.1 -0.04,-0.02 0.47,0.15 -0.06,-0.02 0.47,0.21 -0.05,-0.02 0.46,0.27 -0.04,-0.02 0.46,0.32 -0.03,-0.02 0.46,0.37 -0.03,-0.02 0.45,0.42 -0.03,-0.03 0.44,0.48 -0.02,-0.02 0.44,0.52 -0.03,-0.04 0.83,1.17 -0.02,-0.04 0.78,1.32 -0.01,-0.03 0.73,1.47 -0.01,-0.03 0.67,1.59 -0.01,-0.02 0.62,1.71 -0.01,-0.03 0.53,1.8 -0.01,-0.02 0.46,1.88 v -0.03 l 0.36,1.95 v -0.02 l 0.27,1.99 v -0.02 l 0.16,2.02 v -0.03 l 0.06,2.04 z m -7.84,-54.01 5.24,-4.19 -6.5,-1.68 z" /></g></g><path
       id="path190"
       style="fill:none;stroke:#000000;stroke-width:1;stroke-linecap:butt;stroke-linejoin:round;stroke-miterlimit:10;stroke-dasharray:none;stroke-opacity:1"
       d="M 548.6,285.1 V 254.9" /><path
       id="path192"
       style="fill:none;stroke:#000000;stroke-width:1;stroke-linecap:butt;stroke-linejoin:round;stroke-miterlimit:10;stroke-dasharray:none;stroke-opacity:1"
       d="M 508.98,285.1 V 254.9" /><path
       id="path194"
       style="fill:none;stroke:#000000;stroke-width:1;stroke-linecap:butt;stroke-linejoin:round;stroke-miterlimit:10;stroke-dasharray:none;stroke-opacity:1"
       d="M 588.23,285.1 V 254.9" /><path
       id="path196"
       style="fill:none;stroke:#000000;stroke-width:1;stroke-linecap:butt;stroke-linejoin:round;stroke-miterlimit:10;stroke-dasharray:none;stroke-opacity:1"
       d="m 508.48,284.6 h 80.25" /><path
       id="path198"
       style="fill:none;stroke:#000000;stroke-width:1;stroke-linecap:butt;stroke-linejoin:round;stroke-miterlimit:10;stroke-dasharray:none;stroke-opacity:1"
       d="m 508.48,255.4 h 80.25" /><g
       id="g200"><g
         clip-path="url(#clipPath206)"
         id="g202"><text
           id="text210"
           style="font-variant:normal;font-weight:bold;font-size:5.03999996px;font-family:MalgunGothicBold;-inkscape-font-specification:MalgunGothicBold;writing-mode:lr-tb;fill:#000000;fill-opacity:1;fill-rule:nonzero;stroke:none"
           transform="matrix(1,0,0,-1,518.09,267.38)"><tspan
             id="tspan208"
             y="0"
             x="0">새</tspan></text>
</g></g><g
       id="g212"><g
         clip-path="url(#clipPath218)"
         id="g214"><text
           id="text222"
           style="font-variant:normal;font-weight:bold;font-size:5.03999996px;font-family:MalgunGothicBold;-inkscape-font-specification:MalgunGothicBold;writing-mode:lr-tb;fill:#000000;fill-opacity:1;fill-rule:nonzero;stroke:none"
           transform="matrix(1,0,0,-1,524.45,267.38)"><tspan
             id="tspan220"
             y="0"
             x="0 5.04 10.08">데이터</tspan></text>
</g></g><path
       id="path224"
       style="fill:none;stroke:#000000;stroke-width:1;stroke-linecap:butt;stroke-linejoin:round;stroke-miterlimit:10;stroke-dasharray:none;stroke-opacity:1"
       d="M 655.85,285.1 V 254.9" /><path
       id="path226"
       style="fill:none;stroke:#000000;stroke-width:1;stroke-linecap:butt;stroke-linejoin:round;stroke-miterlimit:10;stroke-dasharray:none;stroke-opacity:1"
       d="M 616.23,285.1 V 254.9" /><path
       id="path228"
       style="fill:none;stroke:#000000;stroke-width:1;stroke-linecap:butt;stroke-linejoin:round;stroke-miterlimit:10;stroke-dasharray:none;stroke-opacity:1"
       d="M 695.48,285.1 V 254.9" /><path
       id="path230"
       style="fill:none;stroke:#000000;stroke-width:1;stroke-linecap:butt;stroke-linejoin:round;stroke-miterlimit:10;stroke-dasharray:none;stroke-opacity:1"
       d="m 615.73,284.6 h 80.25" /><path
       id="path232"
       style="fill:none;stroke:#000000;stroke-width:1;stroke-linecap:butt;stroke-linejoin:round;stroke-miterlimit:10;stroke-dasharray:none;stroke-opacity:1"
       d="m 615.73,255.4 h 80.25" /><g
       id="g234"><g
         clip-path="url(#clipPath240)"
         id="g236"><text
           id="text244"
           style="font-variant:normal;font-weight:bold;font-size:18px;font-family:Arial;-inkscape-font-specification:Arial-BoldMT;writing-mode:lr-tb;fill:#000000;fill-opacity:1;fill-rule:nonzero;stroke:none"
           transform="matrix(1,0,0,-1,631.13,263.42)"><tspan
             id="tspan242"
             y="0"
             x="0">2</tspan></text>
</g></g><path
       id="path246"
       style="fill:none;stroke:#000000;stroke-width:1;stroke-linecap:butt;stroke-linejoin:round;stroke-miterlimit:10;stroke-dasharray:none;stroke-opacity:1"
       d="m 601.62,344.41 v -30.2" /><path
       id="path248"
       style="fill:none;stroke:#000000;stroke-width:1;stroke-linecap:butt;stroke-linejoin:round;stroke-miterlimit:10;stroke-dasharray:none;stroke-opacity:1"
       d="m 562,344.41 v -30.2" /><path
       id="path250"
       style="fill:none;stroke:#000000;stroke-width:1;stroke-linecap:butt;stroke-linejoin:round;stroke-miterlimit:10;stroke-dasharray:none;stroke-opacity:1"
       d="m 641.25,344.41 v -30.2" /><path
       id="path252"
       style="fill:none;stroke:#000000;stroke-width:1;stroke-linecap:butt;stroke-linejoin:round;stroke-miterlimit:10;stroke-dasharray:none;stroke-opacity:1"
       d="m 561.5,343.91 h 80.25" /><path
       id="path254"
       style="fill:none;stroke:#000000;stroke-width:1;stroke-linecap:butt;stroke-linejoin:round;stroke-miterlimit:10;stroke-dasharray:none;stroke-opacity:1"
       d="m 561.5,314.71 h 80.25" /><g
       id="g256"><g
         clip-path="url(#clipPath262)"
         id="g258"><text
           id="text266"
           style="font-variant:normal;font-weight:bold;font-size:18px;font-family:Arial;-inkscape-font-specification:Arial-BoldMT;writing-mode:lr-tb;fill:#000000;fill-opacity:1;fill-rule:nonzero;stroke:none"
           transform="matrix(1,0,0,-1,576.89,322.75)"><tspan
             id="tspan264"
             y="0"
             x="0">1</tspan></text>
</g></g><g
       id="g268"><g
         clip-path="url(#clipPath274)"
         id="g270"><path
           id="path276"
           style="fill:#000000;fill-opacity:1;fill-rule:nonzero;stroke:none"
           d="m 570.84,269.98 -0.07,2.11 -0.22,2.11 -0.37,2.08 -0.49,2.03 -0.6,1.96 -0.72,1.87 -0.81,1.79 -0.91,1.66 -0.98,1.53 -1.06,1.39 -0.56,0.64 -0.56,0.59 -0.58,0.55 -0.6,0.5 -0.61,0.46 -0.62,0.4 -0.64,0.35 -0.64,0.28 -0.65,0.23 -0.66,0.17 -0.67,0.11 -0.64,0.03 -0.62,0.03 h 0.04 l -0.63,0.07 0.05,-0.01 -0.62,0.13 0.04,-0.01 -0.61,0.18 0.04,-0.01 -0.61,0.23 0.03,-0.01 -0.6,0.27 0.04,-0.02 -1.17,0.67 0.04,-0.03 -1.13,0.84 0.04,-0.04 -1.09,0.99 0.03,-0.03 -1.04,1.12 0.03,-0.03 -0.96,1.24 0.02,-0.03 -0.89,1.35 0.02,-0.03 -0.79,1.44 0.01,-0.03 -0.7,1.53 0.01,-0.03 -0.6,1.59 0.01,-0.04 -0.48,1.65 0.01,-0.03 -0.36,1.68 0.01,-0.04 -0.22,1.72 v -0.04 l -0.07,1.73 v -0.03 l 0.02,0.86 v -0.03 l 0.08,0.87 v -0.03 l 0.13,0.85 -0.01,-0.02 0.18,0.86 -0.01,-0.02 0.22,0.84 -0.01,-0.03 0.27,0.84 -0.01,-0.03 0.65,1.65 -0.02,-0.04 0.82,1.59 -0.02,-0.04 0.96,1.53 -0.03,-0.03 1.1,1.44 -0.03,-0.03 1.21,1.35 -0.03,-0.03 1.31,1.25 -0.03,-0.03 1.41,1.12 -0.04,-0.03 1.5,0.99 -0.04,-0.02 1.55,0.83 -0.09,-0.04 1.72,0.53 -0.29,0.95 -1.77,-0.54 -1.62,-0.86 -1.53,-1.02 -1.44,-1.14 -1.34,-1.28 -1.24,-1.38 -1.12,-1.48 -0.98,-1.56 -0.84,-1.64 -0.67,-1.68 -0.28,-0.87 -0.22,-0.88 -0.18,-0.89 -0.13,-0.88 -0.09,-0.9 -0.02,-0.89 0.08,-1.77 0.22,-1.76 0.37,-1.73 0.49,-1.69 0.61,-1.62 0.72,-1.56 0.81,-1.48 0.92,-1.39 0.98,-1.27 1.07,-1.15 1.13,-1.03 1.17,-0.86 1.23,-0.7 0.63,-0.29 0.64,-0.24 0.65,-0.19 0.65,-0.14 0.67,-0.08 0.63,-0.03 0.61,-0.03 -0.05,0.01 0.62,-0.1 -0.04,0.01 0.61,-0.16 -0.04,0.01 0.6,-0.21 -0.03,0.01 0.61,-0.27 -0.04,0.02 0.6,-0.33 -0.03,0.02 0.59,-0.39 -0.03,0.02 0.59,-0.43 -0.02,0.02 0.58,-0.48 -0.03,0.02 0.56,-0.54 -0.02,0.02 0.55,-0.57 -0.01,0.01 0.54,-0.61 -0.02,0.02 1.03,-1.36 -0.02,0.04 0.96,-1.5 -0.02,0.03 0.89,-1.64 -0.01,0.04 0.79,-1.76 -0.01,0.03 0.71,-1.85 -0.01,0.03 0.6,-1.92 -0.01,0.03 0.48,-2 -0.01,0.03 0.36,-2.04 v 0.03 l 0.21,-2.08 v 0.04 l 0.08,-2.1 z m -14.1,55.09 5.22,4.21 -6.5,1.65 z" /></g></g><g
       id="g278"><g
         clip-path="url(#clipPath284)"
         id="g280"><path
           id="path286"
           style="fill:#000000;fill-opacity:1;fill-rule:nonzero;stroke:none"
           d="m 618.8,328.19 -0.06,-2.06 -0.17,-2.05 -0.27,-2.02 -0.37,-1.98 -0.47,-1.9 -0.54,-1.83 -0.62,-1.73 -0.69,-1.62 -0.75,-1.5 -0.81,-1.36 -0.84,-1.19 -0.46,-0.54 -0.45,-0.5 -0.47,-0.44 -0.49,-0.4 -0.49,-0.34 -0.49,-0.3 -0.52,-0.23 -0.53,-0.17 -0.52,-0.11 -0.51,-0.03 -0.47,-0.03 0.05,0.01 -0.47,-0.08 0.05,0.01 -0.47,-0.13 0.04,0.02 -0.46,-0.17 0.04,0.01 -0.46,-0.22 0.04,0.02 -0.45,-0.27 0.04,0.03 -0.9,-0.66 0.04,0.04 -0.87,-0.83 0.04,0.04 -0.82,-0.97 0.02,0.03 -0.79,-1.1 0.03,0.03 -0.74,-1.22 0.02,0.03 -0.68,-1.34 0.02,0.03 -0.62,-1.42 0.01,0.03 -0.53,-1.5 0.01,0.03 -0.46,-1.58 0.01,0.03 -0.37,-1.62 0.01,0.03 -0.27,-1.67 v 0.04 l -0.16,-1.7 v 0.03 l -0.06,-1.7 v 0.03 l 0.02,-0.85 v 0.03 l 0.08,-0.85 v 0.03 l 0.13,-0.85 -0.01,0.03 0.18,-0.85 -0.01,0.03 0.22,-0.84 -0.01,0.03 0.27,-0.83 -0.01,0.03 0.65,-1.62 -0.02,0.05 0.82,-1.58 -0.03,0.04 0.96,-1.5 -0.02,0.03 1.09,-1.42 -0.02,0.03 1.21,-1.33 -0.03,0.03 1.31,-1.23 -0.03,0.03 1.41,-1.1 -0.04,0.02 1.49,-0.97 -0.04,0.02 1.56,-0.82 -0.09,0.04 1.72,-0.52 -0.29,-0.95 -1.77,0.53 -1.61,0.85 -1.53,1 -1.45,1.13 -1.34,1.25 -1.24,1.36 -1.12,1.46 -0.98,1.54 -0.84,1.62 -0.67,1.65 -0.28,0.87 -0.22,0.86 -0.18,0.87 -0.13,0.87 -0.09,0.88 -0.02,0.89 0.06,1.73 0.17,1.73 0.27,1.7 0.38,1.65 0.46,1.6 0.55,1.53 0.62,1.45 0.69,1.37 0.76,1.25 0.81,1.14 0.86,1.01 0.91,0.86 0.94,0.7 0.49,0.29 0.51,0.25 0.51,0.18 0.52,0.14 0.51,0.09 0.5,0.03 0.47,0.03 -0.07,-0.01 0.46,0.1 -0.04,-0.02 0.47,0.15 -0.06,-0.02 0.47,0.21 -0.05,-0.02 0.46,0.27 -0.04,-0.02 0.46,0.32 -0.03,-0.02 0.46,0.37 -0.03,-0.02 0.45,0.42 -0.03,-0.03 0.44,0.48 -0.02,-0.02 0.44,0.52 -0.03,-0.04 0.83,1.17 -0.02,-0.04 0.78,1.32 -0.01,-0.03 0.73,1.47 -0.01,-0.03 0.67,1.59 -0.01,-0.02 0.62,1.71 -0.01,-0.03 0.53,1.8 -0.01,-0.02 0.46,1.88 v -0.03 l 0.36,1.95 v -0.02 l 0.27,1.99 v -0.02 l 0.16,2.02 v -0.03 l 0.06,2.04 z m -7.84,-54.01 5.24,-4.19 -6.5,-1.68 z" /></g></g><g
       id="g288"><g
         clip-path="url(#clipPath294)"
         id="g290"><text
           id="text298"
           style="font-variant:normal;font-weight:normal;font-size:11.03999996px;font-family:MalgunGothic;-inkscape-font-specification:MalgunGothic;writing-mode:lr-tb;fill:#000000;fill-opacity:1;fill-rule:nonzero;stroke:none"
           transform="matrix(1,0,0,-1,143.02,352.63)"><tspan
             id="tspan296"
             y="0"
             x="0 11.04">임시</tspan></text>
</g></g><g
       id="g300"><g
         clip-path="url(#clipPath306)"
         id="g302"><text
           id="text310"
           style="font-variant:normal;font-weight:normal;font-size:11.03999996px;font-family:ArialMT;-inkscape-font-specification:ArialMT;writing-mode:lr-tb;fill:#000000;fill-opacity:1;fill-rule:nonzero;stroke:none"
           transform="matrix(1,0,0,-1,167.98,352.63)"><tspan
             id="tspan308"
             y="0"
             x="0 7.9156799 14.05392 20.15904">Node</tspan></text>
</g></g><g
       id="g312"><g
         clip-path="url(#clipPath318)"
         id="g314"><text
           id="text322"
           style="font-variant:normal;font-weight:normal;font-size:11.03999996px;font-family:MalgunGothic;-inkscape-font-specification:MalgunGothic;writing-mode:lr-tb;fill:#000000;fill-opacity:1;fill-rule:nonzero;stroke:none"
           transform="matrix(1,0,0,-1,359.57,352.63)"><tspan
             id="tspan320"
             y="0"
             x="0 11.04">임시</tspan></text>
</g></g><g
       id="g324"><g
         clip-path="url(#clipPath330)"
         id="g326"><text
           id="text334"
           style="font-variant:normal;font-weight:normal;font-size:11.03999996px;font-family:ArialMT;-inkscape-font-specification:ArialMT;writing-mode:lr-tb;fill:#000000;fill-opacity:1;fill-rule:nonzero;stroke:none"
           transform="matrix(1,0,0,-1,384.53,352.63)"><tspan
             id="tspan332"
             y="0"
             x="0 7.9156799 14.05392 20.15904">Node</tspan></text>
</g></g><g
       id="g336"><g
         clip-path="url(#clipPath342)"
         id="g338"><text
           id="text346"
           style="font-variant:normal;font-weight:normal;font-size:11.03999996px;font-family:MalgunGothic;-inkscape-font-specification:MalgunGothic;writing-mode:lr-tb;fill:#000000;fill-opacity:1;fill-rule:nonzero;stroke:none"
           transform="matrix(1,0,0,-1,576.05,352.63)"><tspan
             id="tspan344"
             y="0"
             x="0 11.04">임시</tspan></text>
</g></g><g
       id="g348"><g
         clip-path="url(#clipPath354)"
         id="g350"><text
           id="text358"
           style="font-variant:normal;font-weight:normal;font-size:11.03999996px;font-family:ArialMT;-inkscape-font-specification:ArialMT;writing-mode:lr-tb;fill:#000000;fill-opacity:1;fill-rule:nonzero;stroke:none"
           transform="matrix(1,0,0,-1,601.01,352.63)"><tspan
             id="tspan356"
             y="0"
             x="0 7.9156799 14.05392 20.15904">Node</tspan></text>
</g></g></g></svg>