<?xml version="1.0" encoding="UTF-8" standalone="no"?>
<svg
   xmlns:dc="http://purl.org/dc/elements/1.1/"
   xmlns:cc="http://creativecommons.org/ns#"
   xmlns:rdf="http://www.w3.org/1999/02/22-rdf-syntax-ns#"
   xmlns:svg="http://www.w3.org/2000/svg"
   xmlns="http://www.w3.org/2000/svg"
   viewBox="78 308 891 73"
   height="73"
   width="891"
   xml:space="preserve"
   id="svg2"
   version="1.1"><metadata
     id="metadata8"><rdf:RDF><cc:Work
         rdf:about=""><dc:format>image/svg+xml</dc:format><dc:type
           rdf:resource="http://purl.org/dc/dcmitype/StillImage" /></cc:Work></rdf:RDF></metadata><defs
     id="defs6"><clipPath
       id="clipPath18"
       clipPathUnits="userSpaceOnUse"><path
         style="clip-rule:evenodd"
         id="path16"
         d="M 0,1.2207e-4 H 960 V 540.00012 H 0 Z" /></clipPath><clipPath
       id="clipPath38"
       clipPathUnits="userSpaceOnUse"><path
         style="clip-rule:evenodd"
         id="path36"
         d="M 1.4305e-5,0 H 960.00001 V 540 H 1.4305e-5 Z" /></clipPath><clipPath
       id="clipPath60"
       clipPathUnits="userSpaceOnUse"><path
         style="clip-rule:evenodd"
         id="path58"
         d="M 1.4305e-5,0 H 960.00001 V 540 H 1.4305e-5 Z" /></clipPath><clipPath
       id="clipPath84"
       clipPathUnits="userSpaceOnUse"><path
         style="clip-rule:evenodd"
         id="path82"
         d="M 1.4305e-5,0 H 960.00001 V 540 H 1.4305e-5 Z" /></clipPath><clipPath
       id="clipPath96"
       clipPathUnits="userSpaceOnUse"><path
         style="clip-rule:evenodd"
         id="path94"
         d="M 1.4305e-5,0 H 960.00001 V 540 H 1.4305e-5 Z" /></clipPath><clipPath
       id="clipPath108"
       clipPathUnits="userSpaceOnUse"><path
         style="clip-rule:evenodd"
         id="path106"
         d="M 1.4305e-5,0 H 960.00001 V 540 H 1.4305e-5 Z" /></clipPath><clipPath
       id="clipPath130"
       clipPathUnits="userSpaceOnUse"><path
         style="clip-rule:evenodd"
         id="path128"
         d="M 1.4305e-5,0 H 960.00001 V 540 H 1.4305e-5 Z" /></clipPath><clipPath
       id="clipPath152"
       clipPathUnits="userSpaceOnUse"><path
         style="clip-rule:evenodd"
         id="path150"
         d="M 1.4305e-5,0 H 960.00001 V 540 H 1.4305e-5 Z" /></clipPath><clipPath
       id="clipPath176"
       clipPathUnits="userSpaceOnUse"><path
         style="clip-rule:evenodd"
         id="path174"
         d="M 1.4305e-5,0 H 960.00001 V 540 H 1.4305e-5 Z" /></clipPath><clipPath
       id="clipPath188"
       clipPathUnits="userSpaceOnUse"><path
         style="clip-rule:evenodd"
         id="path186"
         d="M 1.4305e-5,0 H 960.00001 V 540 H 1.4305e-5 Z" /></clipPath><clipPath
       id="clipPath200"
       clipPathUnits="userSpaceOnUse"><path
         style="clip-rule:evenodd"
         id="path198"
         d="M 1.4305e-5,0 H 960.00001 V 540 H 1.4305e-5 Z" /></clipPath></defs><g
     transform="matrix(1.3333333,0,0,-1.3333333,0,720)"
     id="g10"><g
       id="g12"><g
         clip-path="url(#clipPath18)"
         id="g14"><path
           id="path20"
           style="fill:#ffffff;fill-opacity:1;fill-rule:evenodd;stroke:none"
           d="M 0,6.1035e-5 H 960 V 540.00006 H 0 Z" /></g></g><path
       id="path22"
       style="fill:none;stroke:#000000;stroke-width:1;stroke-linecap:butt;stroke-linejoin:round;stroke-miterlimit:10;stroke-dasharray:none;stroke-opacity:1"
       d="m 107.44,290.04 v -30.2" /><path
       id="path24"
       style="fill:none;stroke:#000000;stroke-width:1;stroke-linecap:butt;stroke-linejoin:round;stroke-miterlimit:10;stroke-dasharray:none;stroke-opacity:1"
       d="m 67.818,290.04 v -30.2" /><path
       id="path26"
       style="fill:none;stroke:#000000;stroke-width:1;stroke-linecap:butt;stroke-linejoin:round;stroke-miterlimit:10;stroke-dasharray:none;stroke-opacity:1"
       d="m 147.07,290.04 v -30.2" /><path
       id="path28"
       style="fill:none;stroke:#000000;stroke-width:1;stroke-linecap:butt;stroke-linejoin:round;stroke-miterlimit:10;stroke-dasharray:none;stroke-opacity:1"
       d="M 67.318,289.54 H 147.57" /><path
       id="path30"
       style="fill:none;stroke:#000000;stroke-width:1;stroke-linecap:butt;stroke-linejoin:round;stroke-miterlimit:10;stroke-dasharray:none;stroke-opacity:1"
       d="M 67.318,260.34 H 147.57" /><g
       id="g32"><g
         clip-path="url(#clipPath38)"
         id="g34"><text
           id="text42"
           style="font-variant:normal;font-weight:bold;font-size:18px;font-family:Arial;-inkscape-font-specification:Arial-BoldMT;writing-mode:lr-tb;fill:#000000;fill-opacity:1;fill-rule:nonzero;stroke:none"
           transform="matrix(1,0,0,-1,82.632,268.37)"><tspan
             id="tspan40"
             y="0"
             x="0">1</tspan></text>
</g></g><path
       id="path44"
       style="fill:none;stroke:#000000;stroke-width:1;stroke-linecap:butt;stroke-linejoin:round;stroke-miterlimit:10;stroke-dasharray:none;stroke-opacity:1"
       d="m 215.44,290.04 v -30.2" /><path
       id="path46"
       style="fill:none;stroke:#000000;stroke-width:1;stroke-linecap:butt;stroke-linejoin:round;stroke-miterlimit:10;stroke-dasharray:none;stroke-opacity:1"
       d="m 175.82,290.04 v -30.2" /><path
       id="path48"
       style="fill:none;stroke:#000000;stroke-width:1;stroke-linecap:butt;stroke-linejoin:round;stroke-miterlimit:10;stroke-dasharray:none;stroke-opacity:1"
       d="m 255.07,290.04 v -30.2" /><path
       id="path50"
       style="fill:none;stroke:#000000;stroke-width:1;stroke-linecap:butt;stroke-linejoin:round;stroke-miterlimit:10;stroke-dasharray:none;stroke-opacity:1"
       d="m 175.32,289.54 h 80.25" /><path
       id="path52"
       style="fill:none;stroke:#000000;stroke-width:1;stroke-linecap:butt;stroke-linejoin:round;stroke-miterlimit:10;stroke-dasharray:none;stroke-opacity:1"
       d="m 175.32,260.34 h 80.25" /><g
       id="g54"><g
         clip-path="url(#clipPath60)"
         id="g56"><text
           id="text64"
           style="font-variant:normal;font-weight:bold;font-size:18px;font-family:Arial;-inkscape-font-specification:Arial-BoldMT;writing-mode:lr-tb;fill:#000000;fill-opacity:1;fill-rule:nonzero;stroke:none"
           transform="matrix(1,0,0,-1,190.66,268.37)"><tspan
             id="tspan62"
             y="0"
             x="0">2</tspan></text>
</g></g><path
       id="path66"
       style="fill:#000000;fill-opacity:1;fill-rule:nonzero;stroke:none"
       d="m 128.52,273.92 h 4.42 l 2.17,0.01 2.1,0.01 2.05,0.01 1.96,0.01 1.85,0.02 1.74,0.01 1.59,0.03 1.43,0.02 v 0 h 0.66 l 0.61,0.01 0.57,0.02 h -0.01 l 0.52,0.01 0.46,0.01 h -0.01 l 0.41,0.01 0.35,0.01 0.3,0.01 h -0.01 l 0.25,0.01 0.18,0.01 h -0.01 l 0.17,0.02 0.11,0.04 0.04,0.02 -0.15,-0.04 0.1,0.01 0.17,0.01 h -0.03 l 0.24,0.01 0.3,0.02 h -0.02 0.35 l 0.41,0.02 h -0.01 l 0.46,0.01 0.51,0.01 v 0 l 0.56,0.01 0.61,0.01 v 0 l 0.65,0.01 1.44,0.02 v 0 l 1.59,0.02 1.73,0.02 v 0 l 1.85,0.01 1.96,0.02 v 0 l 2.04,0.01 2.11,0.01 v 0 h 1.58 v 1 h -1.58 l -2.12,-0.01 v 0 l -2.04,-0.01 -1.96,-0.02 -1.85,-0.01 -1.73,-0.02 v 0 l -1.59,-0.02 -1.45,-0.02 h 0.01 l -0.66,-0.01 -0.61,-0.01 h 0.01 l -0.57,-0.01 -0.51,-0.02 v 0 h -0.46 l -0.41,-0.02 h 0.01 l -0.36,-0.01 -0.3,-0.01 h 0.01 l -0.24,-0.01 -0.18,-0.01 v 0 l -0.17,-0.02 -0.11,-0.04 -0.04,-0.02 0.15,0.04 -0.1,-0.01 -0.17,-0.01 h 0.03 l -0.24,-0.01 -0.29,-0.02 h 0.01 -0.34 v 0 l -0.41,-0.01 -0.46,-0.02 h 0.01 -0.52 l -0.56,-0.02 h 0.01 l -0.61,-0.01 h -0.66 l -1.43,-0.03 -1.59,-0.02 v 0 l -1.73,-0.01 -1.86,-0.02 -1.95,-0.01 v 0 l -2.05,-0.01 -2.11,-0.01 -2.16,-0.01 h -4.42 z m 41.35,-2.01 6,3.01 -6.01,2.99 z" /><path
       id="path68"
       style="fill:none;stroke:#000000;stroke-width:1;stroke-linecap:butt;stroke-linejoin:round;stroke-miterlimit:10;stroke-dasharray:none;stroke-opacity:1"
       d="m 323.44,289.54 v -30.2" /><path
       id="path70"
       style="fill:none;stroke:#000000;stroke-width:1;stroke-linecap:butt;stroke-linejoin:round;stroke-miterlimit:10;stroke-dasharray:none;stroke-opacity:1"
       d="m 283.82,289.54 v -30.2" /><path
       id="path72"
       style="fill:none;stroke:#000000;stroke-width:1;stroke-linecap:butt;stroke-linejoin:round;stroke-miterlimit:10;stroke-dasharray:none;stroke-opacity:1"
       d="m 363.07,289.54 v -30.2" /><path
       id="path74"
       style="fill:none;stroke:#000000;stroke-width:1;stroke-linecap:butt;stroke-linejoin:round;stroke-miterlimit:10;stroke-dasharray:none;stroke-opacity:1"
       d="m 283.32,289.04 h 80.25" /><path
       id="path76"
       style="fill:none;stroke:#000000;stroke-width:1;stroke-linecap:butt;stroke-linejoin:round;stroke-miterlimit:10;stroke-dasharray:none;stroke-opacity:1"
       d="m 283.32,259.84 h 80.25" /><g
       id="g78"><g
         clip-path="url(#clipPath84)"
         id="g80"><text
           id="text88"
           style="font-variant:normal;font-weight:bold;font-size:18px;font-family:Arial;-inkscape-font-specification:Arial-BoldMT;writing-mode:lr-tb;fill:#000000;fill-opacity:1;fill-rule:nonzero;stroke:none"
           transform="matrix(1,0,0,-1,298.68,267.86)"><tspan
             id="tspan86"
             y="0"
             x="0">3</tspan></text>
</g></g><g
       id="g90"><g
         clip-path="url(#clipPath96)"
         id="g92"><text
           id="text100"
           style="font-variant:normal;font-weight:normal;font-size:9.96000004px;font-family:MalgunGothicRegular;-inkscape-font-specification:MalgunGothicRegular;writing-mode:lr-tb;fill:#000000;fill-opacity:1;fill-rule:nonzero;stroke:none"
           transform="matrix(1,0,0,-1,305.26,295.06)"><tspan
             id="tspan98"
             y="0"
             x="0">새</tspan></text>
</g></g><g
       id="g102"><g
         clip-path="url(#clipPath108)"
         id="g104"><text
           id="text112"
           style="font-variant:normal;font-weight:normal;font-size:9.96000004px;font-family:ArialMT;-inkscape-font-specification:ArialMT;writing-mode:lr-tb;fill:#000000;fill-opacity:1;fill-rule:nonzero;stroke:none"
           transform="matrix(1,0,0,-1,318,295.06)"><tspan
             id="tspan110"
             y="0"
             x="0 7.1911201 12.72888 18.26664">Node</tspan></text>
</g></g><path
       id="path114"
       style="fill:none;stroke:#000000;stroke-width:1;stroke-linecap:butt;stroke-linejoin:round;stroke-miterlimit:10;stroke-dasharray:none;stroke-opacity:1"
       d="m 465.33,290.04 v -30.2" /><path
       id="path116"
       style="fill:none;stroke:#000000;stroke-width:1;stroke-linecap:butt;stroke-linejoin:round;stroke-miterlimit:10;stroke-dasharray:none;stroke-opacity:1"
       d="m 425.7,290.04 v -30.2" /><path
       id="path118"
       style="fill:none;stroke:#000000;stroke-width:1;stroke-linecap:butt;stroke-linejoin:round;stroke-miterlimit:10;stroke-dasharray:none;stroke-opacity:1"
       d="m 504.95,290.04 v -30.2" /><path
       id="path120"
       style="fill:none;stroke:#000000;stroke-width:1;stroke-linecap:butt;stroke-linejoin:round;stroke-miterlimit:10;stroke-dasharray:none;stroke-opacity:1"
       d="m 425.2,289.54 h 80.25" /><path
       id="path122"
       style="fill:none;stroke:#000000;stroke-width:1;stroke-linecap:butt;stroke-linejoin:round;stroke-miterlimit:10;stroke-dasharray:none;stroke-opacity:1"
       d="m 425.2,260.34 h 80.25" /><g
       id="g124"><g
         clip-path="url(#clipPath130)"
         id="g126"><text
           id="text134"
           style="font-variant:normal;font-weight:bold;font-size:18px;font-family:Arial;-inkscape-font-specification:Arial-BoldMT;writing-mode:lr-tb;fill:#000000;fill-opacity:1;fill-rule:nonzero;stroke:none"
           transform="matrix(1,0,0,-1,440.57,268.37)"><tspan
             id="tspan132"
             y="0"
             x="0">1</tspan></text>
</g></g><path
       id="path136"
       style="fill:none;stroke:#000000;stroke-width:1;stroke-linecap:butt;stroke-linejoin:round;stroke-miterlimit:10;stroke-dasharray:none;stroke-opacity:1"
       d="m 573.33,290.04 v -30.2" /><path
       id="path138"
       style="fill:none;stroke:#000000;stroke-width:1;stroke-linecap:butt;stroke-linejoin:round;stroke-miterlimit:10;stroke-dasharray:none;stroke-opacity:1"
       d="m 533.7,290.04 v -30.2" /><path
       id="path140"
       style="fill:none;stroke:#000000;stroke-width:1;stroke-linecap:butt;stroke-linejoin:round;stroke-miterlimit:10;stroke-dasharray:none;stroke-opacity:1"
       d="m 612.95,290.04 v -30.2" /><path
       id="path142"
       style="fill:none;stroke:#000000;stroke-width:1;stroke-linecap:butt;stroke-linejoin:round;stroke-miterlimit:10;stroke-dasharray:none;stroke-opacity:1"
       d="m 533.2,289.54 h 80.25" /><path
       id="path144"
       style="fill:none;stroke:#000000;stroke-width:1;stroke-linecap:butt;stroke-linejoin:round;stroke-miterlimit:10;stroke-dasharray:none;stroke-opacity:1"
       d="m 533.2,260.34 h 80.25" /><g
       id="g146"><g
         clip-path="url(#clipPath152)"
         id="g148"><text
           id="text156"
           style="font-variant:normal;font-weight:bold;font-size:18px;font-family:Arial;-inkscape-font-specification:Arial-BoldMT;writing-mode:lr-tb;fill:#000000;fill-opacity:1;fill-rule:nonzero;stroke:none"
           transform="matrix(1,0,0,-1,548.59,268.37)"><tspan
             id="tspan154"
             y="0"
             x="0">2</tspan></text>
</g></g><path
       id="path158"
       style="fill:#000000;fill-opacity:1;fill-rule:nonzero;stroke:none"
       d="m 486.36,273.92 h 4.42 l 2.17,0.01 2.1,0.01 2.05,0.01 1.96,0.01 1.85,0.02 1.74,0.01 1.59,0.03 1.43,0.02 v 0 h 0.66 l 0.61,0.01 0.57,0.02 h -0.01 l 0.52,0.01 0.46,0.01 h -0.01 l 0.41,0.01 0.35,0.01 0.3,0.01 h -0.01 l 0.25,0.01 0.18,0.01 h -0.01 l 0.17,0.02 0.11,0.04 0.04,0.02 -0.15,-0.04 0.1,0.01 0.17,0.01 h -0.03 l 0.24,0.01 0.3,0.02 h -0.02 0.35 l 0.41,0.02 h -0.01 l 0.46,0.01 0.51,0.01 v 0 l 0.56,0.01 0.61,0.01 v 0 l 0.65,0.01 1.44,0.02 v 0 l 1.59,0.02 1.73,0.02 v 0 l 1.85,0.01 1.96,0.02 v 0 l 2.04,0.01 2.11,0.01 v 0 h 1.58 v 1 h -1.58 l -2.12,-0.01 v 0 l -2.04,-0.01 -1.96,-0.02 -1.85,-0.01 -1.73,-0.02 v 0 l -1.59,-0.02 -1.45,-0.02 h 0.01 l -0.66,-0.01 -0.61,-0.01 h 0.01 l -0.57,-0.01 -0.51,-0.02 v 0 h -0.46 l -0.41,-0.02 h 0.01 l -0.36,-0.01 -0.3,-0.01 h 0.01 l -0.24,-0.01 -0.18,-0.01 v 0 l -0.17,-0.02 -0.11,-0.04 -0.04,-0.02 0.15,0.04 -0.1,-0.01 -0.17,-0.01 h 0.03 l -0.24,-0.01 -0.29,-0.02 h 0.01 -0.34 v 0 l -0.41,-0.01 -0.46,-0.02 h 0.01 -0.52 l -0.56,-0.02 h 0.01 l -0.61,-0.01 h -0.66 l -1.43,-0.03 -1.59,-0.02 v 0 l -1.73,-0.01 -1.86,-0.02 -1.95,-0.01 v 0 l -2.05,-0.01 -2.11,-0.01 -2.16,-0.01 h -4.42 z m 41.35,-2.01 6,3.01 -6.01,2.99 z" /><path
       id="path160"
       style="fill:none;stroke:#000000;stroke-width:1;stroke-linecap:butt;stroke-linejoin:round;stroke-miterlimit:10;stroke-dasharray:none;stroke-opacity:1"
       d="m 681.33,289.54 v -30.2" /><path
       id="path162"
       style="fill:none;stroke:#000000;stroke-width:1;stroke-linecap:butt;stroke-linejoin:round;stroke-miterlimit:10;stroke-dasharray:none;stroke-opacity:1"
       d="m 641.7,289.54 v -30.2" /><path
       id="path164"
       style="fill:none;stroke:#000000;stroke-width:1;stroke-linecap:butt;stroke-linejoin:round;stroke-miterlimit:10;stroke-dasharray:none;stroke-opacity:1"
       d="m 720.95,289.54 v -30.2" /><path
       id="path166"
       style="fill:none;stroke:#000000;stroke-width:1;stroke-linecap:butt;stroke-linejoin:round;stroke-miterlimit:10;stroke-dasharray:none;stroke-opacity:1"
       d="m 641.2,289.04 h 80.25" /><path
       id="path168"
       style="fill:none;stroke:#000000;stroke-width:1;stroke-linecap:butt;stroke-linejoin:round;stroke-miterlimit:10;stroke-dasharray:none;stroke-opacity:1"
       d="m 641.2,259.84 h 80.25" /><g
       id="g170"><g
         clip-path="url(#clipPath176)"
         id="g172"><text
           id="text180"
           style="font-variant:normal;font-weight:bold;font-size:18px;font-family:Arial;-inkscape-font-specification:Arial-BoldMT;writing-mode:lr-tb;fill:#000000;fill-opacity:1;fill-rule:nonzero;stroke:none"
           transform="matrix(1,0,0,-1,656.59,267.86)"><tspan
             id="tspan178"
             y="0"
             x="0">3</tspan></text>
</g></g><g
       id="g182"><g
         clip-path="url(#clipPath188)"
         id="g184"><text
           id="text192"
           style="font-variant:normal;font-weight:normal;font-size:9.96000004px;font-family:MalgunGothicRegular;-inkscape-font-specification:MalgunGothicRegular;writing-mode:lr-tb;fill:#000000;fill-opacity:1;fill-rule:nonzero;stroke:none"
           transform="matrix(1,0,0,-1,663.19,295.06)"><tspan
             id="tspan190"
             y="0"
             x="0">새</tspan></text>
</g></g><g
       id="g194"><g
         clip-path="url(#clipPath200)"
         id="g196"><text
           id="text204"
           style="font-variant:normal;font-weight:normal;font-size:9.96000004px;font-family:ArialMT;-inkscape-font-specification:ArialMT;writing-mode:lr-tb;fill:#000000;fill-opacity:1;fill-rule:nonzero;stroke:none"
           transform="matrix(1,0,0,-1,675.91,295.06)"><tspan
             id="tspan202"
             y="0"
             x="0 7.1911201 12.72888 18.26664">Node</tspan></text>
</g></g><path
       id="path206"
       style="fill:#000000;fill-opacity:1;fill-rule:nonzero;stroke:none"
       d="m 594.36,274.94 4.42,-0.01 2.17,-0.01 2.11,-0.03 2.05,-0.02 1.96,-0.02 1.85,-0.04 1.73,-0.03 1.59,-0.04 1.44,-0.03 0.66,-0.03 0.61,-0.02 0.57,-0.02 0.51,-0.02 0.46,-0.03 0.41,-0.02 0.35,-0.02 0.3,-0.02 0.25,-0.03 0.19,-0.03 0.2,-0.04 0.1,-0.06 0.04,-0.03 -0.14,0.06 0.09,-0.02 -0.04,0.01 0.16,-0.02 h -0.01 l 0.23,-0.02 h -0.01 l 0.29,-0.03 h -0.01 l 0.35,-0.02 v 0 l 0.4,-0.02 v 0 l 0.45,-0.02 v 0 l 0.51,-0.03 v 0 l 0.56,-0.02 0.61,-0.02 0.65,-0.02 v 0 l 1.44,-0.04 1.58,-0.04 v 0 l 1.73,-0.03 1.86,-0.03 1.95,-0.03 v 0 l 2.04,-0.02 v 0 l 2.11,-0.01 1.58,-0.01 -0.01,-1 -1.57,0.01 -2.12,0.01 -2.04,0.02 -1.96,0.03 -1.85,0.03 -1.74,0.03 -1.59,0.04 -1.44,0.04 -0.66,0.02 -0.61,0.02 -0.56,0.03 -0.51,0.02 -0.46,0.02 -0.41,0.02 -0.35,0.03 -0.3,0.02 -0.25,0.02 -0.2,0.03 -0.19,0.05 -0.11,0.06 -0.04,0.02 0.15,-0.06 -0.1,0.03 0.04,-0.01 -0.16,0.02 h 0.02 l -0.23,0.02 h 0.01 l -0.3,0.02 h 0.01 l -0.35,0.02 h 0.01 l -0.41,0.03 h 0.01 l -0.46,0.02 v 0 l -0.51,0.02 v 0 l -0.56,0.02 -0.6,0.03 -0.66,0.02 v 0 l -1.43,0.04 -1.59,0.03 v 0 l -1.73,0.03 -1.85,0.04 v 0 l -1.96,0.02 -2.04,0.03 -2.11,0.02 v 0 l -2.16,0.01 -4.42,0.01 z m 41.36,1.52 5.99,-3.02 -6.02,-2.98 z" /></g></svg>